<?xml version="1.0"?>
<svg viewBox="0 0 30 20" xmlns="http://www.w3.org/2000/svg" xmlns:svg="http://www.w3.org/2000/svg">
 <g class="layer" display="inline">
  <title>Layer 1</title>
  <path d="m26.83,0.79c-0.91,0 -1.66,0.76 -1.66,1.71c0,0.71 0.43,1.35 1.07,1.58l-5.51,8.13c0,-0.04 -3.44,-6.18 -4.66,-8.4c0.35,-0.32 0.63,-0.8 0.63,-1.35c0,-0.95 -0.75,-1.71 -1.66,-1.71c-0.91,0 -1.67,0.76 -1.67,1.71c0,0.55 0.28,1.07 0.68,1.39l-4.63,8.32l-5.42,-8.05c0.55,-0.27 0.95,-0.87 0.95,-1.58c0,-0.95 -0.76,-1.75 -1.67,-1.75c-0.95,0 -1.7,0.8 -1.7,1.75c0,0.79 0.48,1.43 1.11,1.66l0,13.64l6.77,0l3.36,0l0,-3.37c0,-1.26 1.03,-2.3 2.26,-2.3c1.22,0 2.25,1.04 2.25,2.3l0,3.37l3.37,0l6.76,0l0,-13.76c0.64,-0.27 1.03,-0.87 1.03,-1.58c0,-0.95 -0.75,-1.71 -1.66,-1.71z" fill="currentColor" id="svg_3"/>
 </g>

</svg>