<svg width="30" height="23" xmlns="http://www.w3.org/2000/svg" fill="none">
   <path id="svg_3" fill="currentColor" d="m26.8288,0.79307c-0.9101,0 -1.662,0.75345 -1.662,1.70518c0,0.71379 0.4353,1.34827 1.0684,1.5862l-5.5003,8.12935c0,-0.0397 -3.4426,-6.18624 -4.6693,-8.40693c0.3561,-0.31725 0.6331,-0.79311 0.6331,-1.34828c0,-0.95172 -0.7518,-1.70517 -1.6619,-1.70517c-0.9102,0 -1.662,0.75345 -1.662,1.70517c0,0.55517 0.277,1.07069 0.6727,1.38793l-4.62977,8.32758l-5.42116,-8.04999c0.55398,-0.27759 0.94969,-0.87242 0.94969,-1.58621c0,-0.95172 -0.75184,-1.74483 -1.66196,-1.74483c-0.9497,0 -1.70154,0.79311 -1.70154,1.74483c0,0.7931 0.47485,1.42759 1.10798,1.66552l0,13.64138l6.76656,0l3.3635,0l0,-3.3707c0,-1.269 1.0288,-2.3 2.2555,-2.3c1.2267,0 2.2555,1.031 2.2555,2.3l0,3.3707l3.3635,0l6.7666,0l0,-13.76035c0.6331,-0.27758 1.0288,-0.87241 1.0288,-1.5862c0,-0.95173 -0.7518,-1.70518 -1.6619,-1.70518z"/>
   <path id="svg_4" fill="currentColor" d="m38.6329,9.28659l-2.2259,0l0,-2.77155l2.2259,0l0,-1.99204c0,-0.6159 0.0561,-1.1933 0.159,-1.74184c0.1028,-0.54853 0.3086,-1.0297 0.6079,-1.44351c0.2992,-0.4138 0.7294,-0.741 1.2906,-0.98158c0.5611,-0.24059 1.3,-0.35607 2.2072,-0.35607c0.346,0 0.6827,0.01925 1.01,0.04812c0.3274,0.02887 0.6547,0.08661 0.9633,0.1636l-0.159,2.93513c-0.1964,-0.07698 -0.3741,-0.13472 -0.5424,-0.17322c-0.1683,-0.03849 -0.3554,-0.05774 -0.5611,-0.05774c-0.5425,0 -0.9446,0.11548 -1.2159,0.35607c-0.2712,0.24058 -0.4021,0.73138 -0.4021,1.46275l0,1.78033l2.4971,0l0,2.77155l-2.4878,0l0,8.44931l-3.3668,0l0,-8.44931z"/>
   <path id="svg_5" fill="currentColor" d="m52.0534,16.331l-0.0467,0c-0.3741,0.5966 -0.8698,1.0297 -1.4964,1.2895c-0.6173,0.2598 -1.2719,0.3945 -1.964,0.3945c-0.505,0 -1.0007,-0.0769 -1.4683,-0.2213c-0.4677,-0.1443 -0.8885,-0.3657 -1.2439,-0.6544c-0.3554,-0.2887 -0.6453,-0.6544 -0.8511,-1.0874c-0.2057,-0.4331 -0.318,-0.9335 -0.318,-1.5013c0,-0.6447 0.1123,-1.1933 0.3461,-1.636c0.2338,-0.4426 0.5424,-0.8179 0.9446,-1.1066c0.3928,-0.2887 0.851,-0.5197 1.3561,-0.6833c0.505,-0.1636 1.0381,-0.2791 1.5805,-0.3561c0.5425,-0.077 1.0943,-0.1251 1.6367,-0.1347c0.5424,-0.0192 1.0475,-0.0192 1.5151,-0.0192c0,-0.61595 -0.2151,-1.10674 -0.636,-1.46281c-0.4302,-0.36569 -0.9352,-0.53891 -1.5151,-0.53891c-0.5518,0 -1.0568,0.11548 -1.5151,0.35607c-0.4582,0.24058 -0.8604,0.56778 -1.2251,0.98159l-1.7957,-1.89581c0.6266,-0.59666 1.3655,-1.04896 2.1978,-1.34728c0.8417,-0.29833 1.7022,-0.4523 2.6,-0.4523c0.9914,0 1.7957,0.1251 2.4316,0.38494c0.636,0.2502 1.141,0.62552 1.5245,1.11631c0.3834,0.49079 0.6453,1.09707 0.7949,1.8092c0.1497,0.7121 0.2245,1.5397 0.2245,2.4828l0,5.7067l-3.0957,0l0,-1.4242l0.0187,0zm-0.8323,-3.5126c-0.2525,0 -0.5705,0.0096 -0.954,0.0385c-0.3834,0.0289 -0.7482,0.0866 -1.1036,0.1925c-0.3553,0.1058 -0.6546,0.2694 -0.8978,0.4811c-0.2431,0.2118 -0.3741,0.5197 -0.3741,0.9046c0,0.4139 0.1684,0.7218 0.5144,0.9239c0.346,0.2021 0.7014,0.2983 1.0755,0.2983c0.3274,0 0.6453,-0.0481 0.954,-0.1347c0.3086,-0.0962 0.5798,-0.2214 0.823,-0.3946c0.2431,-0.1732 0.4302,-0.3849 0.5705,-0.6447c0.1403,-0.2599 0.2151,-0.5678 0.2151,-0.9239l0,-0.741l-0.823,0z"/>
   <path id="svg_6" fill="currentColor" d="m57.0103,6.51508l3.0957,0l0,1.47238l0.0467,0c0.131,-0.20209 0.3087,-0.40418 0.5238,-0.6159c0.2151,-0.21171 0.4676,-0.39455 0.7669,-0.56778c0.2899,-0.17322 0.6079,-0.30794 0.9539,-0.4138c0.3461,-0.10586 0.7108,-0.1636 1.1036,-0.1636c0.8043,0 1.5431,0.14435 2.1978,0.42343c0.6547,0.2887 1.2252,0.68326 1.6928,1.20293c0.4676,0.51966 0.8324,1.12593 1.0849,1.83807c0.2525,0.71209 0.3834,1.48199 0.3834,2.32889c0,0.7891 -0.1122,1.5397 -0.346,2.2518c-0.2338,0.7122 -0.5612,1.3473 -0.9914,1.9055c-0.4302,0.5581 -0.9446,1.0008 -1.5618,1.328c-0.6173,0.3272 -1.3094,0.5004 -2.0856,0.5004c-0.7014,0 -1.3561,-0.1155 -1.964,-0.3368c-0.6079,-0.2213 -1.1036,-0.6063 -1.4964,-1.1452l-0.0468,0l0,6.4766l-3.3668,0l0,-16.48492l0.0093,0zm3.0957,5.61042c0,0.8469 0.2338,1.5301 0.7108,2.0594c0.4676,0.5197 1.1316,0.7892 1.9827,0.7892c0.851,0 1.5151,-0.2599 1.9827,-0.7892c0.4676,-0.5196 0.7108,-1.2125 0.7108,-2.0594c0,-0.8468 -0.2339,-1.5301 -0.7108,-2.0594c-0.4676,-0.51965 -1.1317,-0.7891 -1.9827,-0.7891c-0.8511,0 -1.5151,0.25983 -1.9827,0.7891c-0.477,0.5293 -0.7108,1.2126 -0.7108,2.0594z"/>
   <path id="svg_7" fill="white" d="m73.639,0.27911l0,7.75647l0.0468,0c0.0748,-0.21172 0.2057,-0.43306 0.3834,-0.64477c0.1777,-0.21172 0.3928,-0.40418 0.6547,-0.5774c0.2525,-0.17323 0.5518,-0.30795 0.8978,-0.41381c0.3461,-0.10586 0.7202,-0.1636 1.1223,-0.1636c0.8511,0 1.5431,0.13473 2.0669,0.40418c0.5237,0.26946 0.9352,0.64477 1.2251,1.11632c0.29,0.48117 0.4864,1.03933 0.5986,1.68409c0.1029,0.64481 0.159,1.34731 0.159,2.09791l0,6.1878l-3.3669,0l0,-5.4949c0,-0.3272 -0.0093,-0.6544 -0.0374,-1.0009c-0.0187,-0.3464 -0.0935,-0.664 -0.2057,-0.9623c-0.1123,-0.28869 -0.2806,-0.52928 -0.5144,-0.71212c-0.2338,-0.18285 -0.5612,-0.27908 -1.0007,-0.27908c-0.4302,0 -0.7856,0.07698 -1.0568,0.24058c-0.2713,0.1636 -0.477,0.37531 -0.6173,0.64472c-0.1403,0.2695 -0.2338,0.5775 -0.2806,0.9143c-0.0467,0.3368 -0.0654,0.6929 -0.0654,1.0585l0,5.5912l-3.3669,0l0,-17.44719l3.3575,0z"/>
   <path id="svg_8" fill="white" d="m82.1965,12.1255c0,-0.8949 0.159,-1.7033 0.4677,-2.42505c0.3179,-0.72176 0.7481,-1.34728 1.2906,-1.85732c0.5424,-0.51966 1.1877,-0.91422 1.9266,-1.1933c0.7388,-0.27908 1.5338,-0.41381 2.3661,-0.41381c0.8418,0 1.6274,0.13473 2.3662,0.41381c0.7388,0.27908 1.3842,0.67364 1.9266,1.1933c0.5424,0.51966 0.9726,1.13556 1.2906,1.85732c0.318,0.72175 0.4676,1.53015 0.4676,2.42505c0,0.895 -0.1589,1.7034 -0.4676,2.4251c-0.318,0.7218 -0.7482,1.3473 -1.2906,1.8574c-0.5424,0.5196 -1.1878,0.9142 -1.9266,1.1933c-0.7388,0.279 -1.5338,0.4138 -2.3662,0.4138c-0.8417,0 -1.6273,-0.1348 -2.3661,-0.4138c-0.7389,-0.2791 -1.3842,-0.6737 -1.9266,-1.1933c-0.5425,-0.5197 -0.9727,-1.1356 -1.2906,-1.8574c-0.3087,-0.7217 -0.4677,-1.5301 -0.4677,-2.4251zm3.3669,0c0,0.8469 0.2338,1.5302 0.7108,2.0595c0.4676,0.5196 1.1316,0.7891 1.9827,0.7891c0.8511,0 1.5151,-0.2599 1.9827,-0.7891c0.4676,-0.5197 0.7108,-1.2126 0.7108,-2.0595c0,-0.8468 -0.2338,-1.5301 -0.7108,-2.0594c-0.4676,-0.51963 -1.1316,-0.78908 -1.9827,-0.78908c-0.8511,0 -1.5151,0.25983 -1.9827,0.78908c-0.477,0.5293 -0.7108,1.2126 -0.7108,2.0594z"/>
   <path id="svg_9" fill="white" d="m106.232,17.7359l-3.236,0l0,-1.5205l-0.046,0c-0.122,0.2117 -0.272,0.4331 -0.459,0.6448c-0.187,0.2117 -0.411,0.4042 -0.682,0.5774c-0.272,0.1732 -0.58,0.3079 -0.917,0.4138c-0.346,0.1058 -0.72,0.1636 -1.1223,0.1636c-0.851,0 -1.5431,-0.1347 -2.0762,-0.4042c-0.5331,-0.2695 -0.9446,-0.6448 -1.2345,-1.1163c-0.2899,-0.4812 -0.4863,-1.0393 -0.5799,-1.6841c-0.0935,-0.6448 -0.1496,-1.3473 -0.1496,-2.0979l0,-6.19749l3.3669,0l0,5.49499c0,0.3272 0.0093,0.6544 0.0374,1.0008c0.028,0.3465 0.0935,0.664 0.2057,0.9624c0.1123,0.2887 0.2806,0.5292 0.5144,0.7121c0.2341,0.1828 0.5611,0.2791 1.0011,0.2791c0.43,0 0.785,-0.077 1.056,-0.2406c0.272,-0.1636 0.477,-0.3753 0.618,-0.6448c0.14,-0.2694 0.234,-0.5774 0.28,-0.9142c0.047,-0.3368 0.066,-0.6929 0.066,-1.0586l0,-5.59119l3.367,0l0,11.22089l-0.01,0z"/>
   <path id="svg_10" fill="white" d="m114.228,9.81593c-0.495,-0.63515 -1.141,-0.9431 -1.954,-0.9431c-0.281,0 -0.561,0.06737 -0.833,0.21172c-0.271,0.14435 -0.402,0.37531 -0.402,0.71213c0,0.27912 0.141,0.48122 0.412,0.61592c0.28,0.1347 0.626,0.2502 1.057,0.3464c0.43,0.0963 0.879,0.2117 1.365,0.3272c0.486,0.1155 0.945,0.2983 1.366,0.5389c0.43,0.2502 0.776,0.5774 1.056,1.0009c0.281,0.4234 0.412,0.9912 0.412,1.6937c0,0.7217 -0.15,1.3184 -0.458,1.7899c-0.309,0.4716 -0.702,0.8469 -1.179,1.1356c-0.477,0.2887 -1.019,0.4812 -1.618,0.5966c-0.598,0.1155 -1.188,0.1733 -1.777,0.1733c-0.767,0 -1.534,-0.1155 -2.31,-0.3369c-0.776,-0.2213 -1.44,-0.6158 -1.973,-1.1933l2.039,-2.3288c0.318,0.4042 0.664,0.7025 1.047,0.9142c0.384,0.2117 0.823,0.308 1.338,0.308c0.392,0 0.738,-0.0578 1.056,-0.1733c0.318,-0.1154 0.468,-0.3272 0.468,-0.6351c0,-0.2887 -0.14,-0.51 -0.412,-0.6544c-0.28,-0.1444 -0.626,-0.2695 -1.056,-0.3657c-0.431,-0.0962 -0.879,-0.2117 -1.366,-0.3272c-0.486,-0.1155 -0.944,-0.2887 -1.365,-0.5196c-0.43,-0.231 -0.776,-0.5582 -1.057,-0.9816c-0.281,-0.4235 -0.412,-0.9912 -0.412,-1.6938c0,-0.66397 0.131,-1.23175 0.393,-1.71292c0.262,-0.48117 0.608,-0.86611 1.029,-1.17406c0.43,-0.30795 0.917,-0.53891 1.468,-0.68326c0.552,-0.14435 1.113,-0.22134 1.684,-0.22134c0.72,0 1.44,0.10586 2.179,0.3272c0.729,0.21171 1.356,0.59665 1.861,1.15481l-2.058,2.0979z"/>
   <path id="svg_11" fill="white" d="m128.21,15.8017c-0.542,0.7121 -1.216,1.251 -2.039,1.636c-0.823,0.3849 -1.674,0.5774 -2.562,0.5774c-0.842,0 -1.627,-0.1348 -2.366,-0.4138c-0.739,-0.2791 -1.384,-0.6737 -1.927,-1.1933c-0.542,-0.5197 -0.973,-1.1356 -1.291,-1.8574c-0.318,-0.7217 -0.467,-1.5301 -0.467,-2.4251c0,-0.8949 0.159,-1.7033 0.467,-2.42505c0.318,-0.72176 0.749,-1.34728 1.291,-1.85732c0.543,-0.51966 1.188,-0.91422 1.927,-1.1933c0.739,-0.27908 1.534,-0.41381 2.366,-0.41381c0.776,0 1.487,0.13473 2.123,0.41381c0.636,0.27908 1.178,0.67364 1.618,1.1933c0.439,0.51966 0.785,1.13556 1.019,1.85732c0.243,0.72175 0.356,1.53015 0.356,2.42505l0,1.0875l-7.81,0c0.131,0.664 0.431,1.1933 0.879,1.5782c0.449,0.3946 1.001,0.5871 1.665,0.5871c0.552,0 1.02,-0.1251 1.403,-0.385c0.384,-0.2502 0.711,-0.5774 1.001,-0.9816l2.347,1.79zm-2.852,-4.9464c0.018,-0.5871 -0.169,-1.08749 -0.561,-1.50129c-0.393,-0.41381 -0.889,-0.62553 -1.506,-0.62553c-0.374,0 -0.702,0.05774 -0.991,0.18285c-0.281,0.1251 -0.524,0.27908 -0.73,0.47155c-0.206,0.19246 -0.355,0.4138 -0.468,0.67362c-0.112,0.2502 -0.177,0.5197 -0.187,0.7988l4.443,0z"/>
</svg>