<svg width="18" height="24.029999999999998" xmlns="http://www.w3.org/2000/svg" data-testid="logo-default-icon" data-name="logo-default">

 <g>
  <title>Layer 1</title>
  <path id="svg_1" d="m110.215,23.07l7.873,-17.456l-3.862,0l-4.534,9.913l-4.557,-9.913l-3.858,0l7.89,17.465l1.048,-0.009zm13.452,-17.506l-3.537,0l0,17.506l3.537,0l0,-17.506zm3.33,0.05l0,17.434l1.417,0l0,0.031l3.51,0a8.76,8.76 0 0 0 6.154,-2.567a7.963,7.963 0 0 0 1.868,-2.761a8.624,8.624 0 0 0 0,-6.8a8.348,8.348 0 0 0 -1.868,-2.793a8.586,8.586 0 0 0 -6.154,-2.54l-4.927,-0.004zm3.483,13.978l0,-10.491l1.444,0a5.245,5.245 0 0 1 0,10.49l-1.444,0.001zm17.339,-3.885l0.077,0.027c1.818,0.623 2.892,1.493 2.892,2.441a1.919,1.919 0 0 1 -1.918,1.769a6.034,6.034 0 0 1 -4.68,-1.965l-2.54,2.391a9.681,9.681 0 0 0 4.155,2.639a10.322,10.322 0 0 0 3.068,0.424a5.418,5.418 0 0 0 5.405,-5.247a5.053,5.053 0 0 0 -1.367,-3.415a9.316,9.316 0 0 0 -3.858,-2.319c-0.149,-0.05 -0.3,-0.1 -0.5,-0.149c-1.6,-0.4 -2.22,-0.9 -2.242,-1.791a1.225,1.225 0 0 1 0.3,-1a2.664,2.664 0 0 1 1.543,-0.65a5.379,5.379 0 0 1 3.366,1.2l0.618,0.4l1.818,-2.964l-0.573,-0.374a8.663,8.663 0 0 0 -5.234,-1.742a6.071,6.071 0 0 0 -4.061,1.715a4.67,4.67 0 0 0 -1.272,3.56a4.815,4.815 0 0 0 2.238,3.939a8.459,8.459 0 0 0 2.639,1.1l0.126,0.011zm-52.276,-10.097l-3.56,6.574l-3.587,-6.574l-3.858,0l5.7,11.059l0,6.4l3.483,0l0,-6.4l5.684,-11.059l-3.862,0zm-17.484,0l0,9.764l-9.637,-9.764l-1.1,0l0,17.461l3.488,0l0,-10.189l9.809,10.188l0.92,0l0,-17.461l-3.48,0.001zm-21.991,0l-8.893,17.451l3.912,0l1.642,-3.24l7.224,0l1.521,3.244l3.858,0l-8.244,-17.46l-1.02,0.005zm0.42,6.849l1.818,3.889l-3.785,0l1.967,-3.889zm-13.278,-6.854l-7.273,6.619l-7.292,-6.624l-1.2,0l0,17.461l3.488,0l0,-10.684l5,4.557l5.008,-4.557l0,10.684l3.488,0l0,-17.461l-1.219,0l0,0.005zm-32.58,13.513a1.876,1.876 0 0 0 -0.041,-0.217c-0.239,-0.911 -0.465,-1.823 -0.726,-2.725a0.569,0.569 0 0 1 0.176,-0.677a1.3,1.3 0 0 0 0.221,-1.543a1.418,1.418 0 0 0 -1.313,-0.772a1.376,1.376 0 0 0 -1.232,0.938a1.3,1.3 0 0 0 0.415,1.507a0.358,0.358 0 0 1 0.117,0.438c-0.257,0.916 -0.492,1.836 -0.735,2.757a2.781,2.781 0 0 0 -0.041,0.289l3.158,0m-1.6,-7.9a5.417,5.417 0 0 1 1.642,-2.134a4.357,4.357 0 0 1 5.577,0.352a5.785,5.785 0 0 1 1.187,6.736a13.445,13.445 0 0 1 -2.725,3.61a28.84,28.84 0 0 1 -5.491,4.16a0.424,0.424 0 0 1 -0.352,0.027a27.5,27.5 0 0 1 -6.4,-5.094a9.672,9.672 0 0 1 -2.279,-3.84a5.677,5.677 0 0 1 1.8,-5.766a4.324,4.324 0 0 1 6.6,1.169c0.149,0.239 0.28,0.492 0.438,0.781m-3.523,-8.492c0.4,0.379 0.79,0.781 1.214,1.132c0.352,0.293 0.537,0.262 0.772,-0.126c0.329,-0.546 0.618,-1.11 0.9,-1.683c0.036,-0.077 -0.036,-0.244 -0.108,-0.329a1.015,1.015 0 0 1 0.106,-1.494a1.006,1.006 0 0 1 1.363,1.48a0.31,0.31 0 0 0 -0.072,0.438c0.3,0.532 0.573,1.087 0.893,1.611c0.221,0.361 0.37,0.37 0.722,0.126a3.189,3.189 0 0 0 0.447,-0.37c0.266,-0.266 0.519,-0.541 0.776,-0.808c-0.492,-0.672 -0.4,-1.358 0.2,-1.678a1.006,1.006 0 0 1 1.354,0.406a0.985,0.985 0 0 1 -0.424,1.367a0.619,0.619 0 0 0 -0.388,0.492c-0.23,0.947 -0.483,1.886 -0.717,2.833a0.486,0.486 0 0 1 -0.532,0.415q-3,-0.007 -5.992,0a0.48,0.48 0 0 1 -0.532,-0.411c-0.244,-0.966 -0.505,-1.931 -0.74,-2.9a0.513,0.513 0 0 0 -0.334,-0.411a1,1 0 0 1 -0.564,-1.132a1.026,1.026 0 0 1 0.862,-0.767a0.982,0.982 0 0 1 1.074,0.659c0.14,0.361 0.063,0.672 -0.284,1.142"/>
 </g>
</svg>