<svg width="95" height="36" viewBox="0 0 95 36" fill="none" xmlns="http://www.w3.org/2000/svg">
<path d="M57.9424 0.663879V22.7507C57.9211 24.4735 57.5842 26.0897 56.9387 27.5567C56.7259 28.0469 56.4812 28.5371 56.2116 29.0166C55.0484 31.0981 53.3531 32.8457 51.3103 34.0712C49.2037 35.3322 46.7885 36 44.3201 36H38.6031V29.5814H44.3201C46.9375 29.5814 49.3491 28.1641 50.6188 25.8837C51.5125 24.2817 51.5373 23.0029 51.5338 22.7649V22.1717L50.8493 22.3813C49.9201 22.6655 48.9484 22.8147 47.9766 22.8218H47.8596C47.6752 22.8147 47.4198 22.8111 47.3702 22.8076C42.0397 22.5269 37.8619 18.1153 37.8619 12.7623V0.663879H44.2705V12.8049C44.2882 14.8047 45.9161 16.4351 47.9021 16.4351C49.8882 16.4351 51.5338 14.8047 51.5338 12.7978V0.663879H57.9424Z" fill="currentColor"/>
<path d="M34.6275 10.7376V22.2463H28.2154V10.3078C27.999 8.4607 26.435 7.06473 24.5731 7.06473C22.7112 7.06473 21.0407 8.57792 20.9237 10.5103V22.3351H14.5116V10.3042C14.2917 8.45715 12.7277 7.06473 10.8658 7.06473C9.94011 7.06473 9.05703 7.41284 8.37964 8.04155C7.70935 8.66672 7.2944 9.51211 7.21992 10.4214V22.3351H0.80426V0.674536C2.25479 0.756234 3.65212 1.30681 4.77282 2.24456L5.07428 2.4932L5.40411 2.28008C7.92214 0.646119 11.0785 0.212765 14.0186 1.17183C15.2493 1.57676 16.3806 2.21259 17.3736 3.05798L17.7212 3.35281L18.0652 3.05798C18.2319 2.9159 18.3808 2.79513 18.5263 2.68501C20.2818 1.36364 22.3707 0.663879 24.5731 0.663879C25.637 0.663879 26.6868 0.830828 27.7224 1.16828C29.7297 1.84672 31.4463 3.0935 32.6804 4.77719C33.9536 6.51416 34.6275 8.57437 34.6275 10.7376Z" fill="currentColor"/>
<path d="M95 10.7376V22.3351H88.5879V10.3042C88.368 8.45715 86.804 7.06473 84.9421 7.06473C83.0801 7.06473 81.4133 8.57792 81.2927 10.5103V22.3351H74.8806V10.3042C74.6642 8.45715 73.1002 7.06473 71.2383 7.06473C70.3126 7.06473 69.4296 7.41284 68.7522 8.04155C68.0783 8.66672 67.6669 9.51211 67.5889 10.4214V22.3351H61.1768V0.674536C62.6273 0.756234 64.0246 1.30681 65.1418 2.24456L65.4433 2.4932L65.7731 2.28008C68.2911 0.646119 71.4475 0.212765 74.3912 1.17183C75.6218 1.57676 76.7496 2.21259 77.7462 3.05798L78.0937 3.35281L78.4377 3.05798C78.6044 2.9159 78.7534 2.79513 78.8988 2.68501C80.6543 1.36364 82.7432 0.663879 84.9421 0.663879C86.006 0.663879 87.0593 0.83438 88.0985 1.17183C90.0881 1.82896 91.8011 3.07574 93.053 4.77719C94.3262 6.51416 95 8.57437 95 10.7376Z" fill="currentColor"/>
</svg>