<?xml version="1.0" encoding="UTF-8"?>
<svg id="Layer_2" data-name="Layer 2" xmlns="http://www.w3.org/2000/svg" viewBox="0 0 43.82 28.43">
  <defs>
    <style>
      .cls-1 {
        fill: "currentColor";
        stroke-width: 0px;
      }
    </style>
  </defs>
  <g id="Logos_and_Icons" data-name="Logos and Icons">
    <g>
      <path class="cls-1" d="M18.28,18.19V0H0s12.26,10.58,14.35,28.43c0,0,3.93-2.46,3.93-10.24Z"/>
      <path class="cls-1" d="M29.41,0h-.74v14.07c0,3.8-1.51,7.44-4.19,10.13-2.68,2.69-6.32,4.21-10.12,4.23l15.05-.02c1.88.03,3.75-.32,5.5-1.02s3.34-1.74,4.68-3.06c1.34-1.32,2.41-2.9,3.13-4.63.73-1.74,1.1-3.6,1.1-5.49s-.37-3.75-1.1-5.49c-.73-1.74-1.79-3.31-3.13-4.63-1.34-1.32-2.93-2.36-4.68-3.06C33.16.33,31.29-.02,29.41,0h0Z"/>
    </g>
  </g>
</svg>