<svg xmlns="http://www.w3.org/2000/svg" xmlns:xlink="http://www.w3.org/1999/xlink" width="500" zoomAndPan="magnify" viewBox="0 0 375 149.999998" height="200" preserveAspectRatio="xMidYMid meet" version="1.0"><defs><g/></defs><g fill="#ffffff" fill-opacity="1"><g transform="translate(9.451825, 108.374996)"><g><path d="M 50.808594 -28.347656 C 53.011719 -28.347656 55.054688 -27.796875 56.929688 -26.699219 C 58.65625 -25.6875 60.070312 -24.308594 61.164062 -22.558594 C 62.605469 -20.246094 63.328125 -17.542969 63.328125 -14.449219 C 63.328125 -9.742188 61.984375 -5.832031 59.296875 -2.71875 L 51.539062 -9.414062 L 59.472656 -2.925781 C 56.464844 0.75 53.351562 3.742188 50.128906 6.054688 C 45.851562 9.121094 40.914062 10.652344 35.308594 10.652344 C 32.046875 10.652344 29.023438 10.160156 26.238281 9.171875 C 23.21875 8.097656 20.550781 6.480469 18.238281 4.316406 C 15.863281 2.089844 14.074219 -0.515625 12.871094 -3.503906 C 11.746094 -6.3125 11.179688 -9.367188 11.179688 -12.660156 C 11.179688 -15.90625 12.085938 -18.796875 13.902344 -21.335938 C 15.558594 -23.660156 17.8125 -25.425781 20.664062 -26.636719 C 21.304688 -26.914062 21.816406 -27.175781 22.195312 -27.417969 C 22.277344 -27.472656 22.332031 -27.511719 22.359375 -27.53125 C 22.289062 -27.472656 22.207031 -27.390625 22.109375 -27.28125 C 21.761719 -26.886719 21.496094 -26.433594 21.308594 -25.917969 C 21.15625 -25.503906 21.082031 -25.113281 21.082031 -24.753906 C 21.082031 -24.3125 21.15625 -23.824219 21.304688 -23.292969 C 21.597656 -22.242188 22.109375 -21.273438 22.847656 -20.386719 C 23.585938 -19.503906 24.488281 -18.800781 25.558594 -18.28125 C 26.722656 -17.714844 27.945312 -17.429688 29.21875 -17.429688 C 30.527344 -17.429688 31.632812 -17.726562 32.535156 -18.316406 C 32.605469 -18.363281 32.664062 -18.402344 32.710938 -18.441406 L 32.699219 -18.429688 C 32.582031 -18.320312 32.433594 -18.160156 32.261719 -17.953125 C 31.09375 -16.546875 29.941406 -14.601562 28.804688 -12.109375 C 27.554688 -9.359375 26.570312 -6.535156 25.859375 -3.636719 C 25.460938 -1.9375 24.992188 -0.414062 24.453125 0.925781 C 23.671875 2.871094 22.699219 4.507812 21.535156 5.832031 C 19.988281 7.59375 18.082031 8.882812 15.820312 9.703125 C 14.078125 10.335938 12.183594 10.652344 10.144531 10.652344 C 7.710938 10.652344 5.46875 10.148438 3.421875 9.136719 C 1.113281 7.992188 -0.746094 6.324219 -2.160156 4.128906 C -3.824219 1.550781 -4.878906 -1.820312 -5.320312 -5.976562 C -5.628906 -8.878906 -5.785156 -12.976562 -5.785156 -18.261719 C -5.785156 -27.234375 -4.871094 -36.550781 -3.050781 -46.214844 C -1.148438 -56.300781 1.722656 -64.882812 5.558594 -71.964844 C 7.914062 -76.3125 10.664062 -79.695312 13.808594 -82.113281 C 17.644531 -85.066406 21.890625 -86.542969 26.539062 -86.542969 C 29.484375 -86.542969 32.210938 -85.878906 34.71875 -84.546875 C 37.136719 -83.265625 39.195312 -81.445312 40.898438 -79.085938 C 43.730469 -75.15625 45.148438 -70.386719 45.148438 -64.769531 C 45.148438 -57.566406 43.136719 -50.265625 39.113281 -42.871094 C 35.523438 -36.261719 29.84375 -28.726562 22.082031 -20.261719 L 14.527344 -27.191406 L 24.757812 -26.601562 C 24.609375 -23.984375 24.53125 -21.285156 24.53125 -18.503906 L 14.285156 -18.503906 L 4.71875 -22.179688 C 7.894531 -30.453125 11.761719 -36.664062 16.3125 -40.8125 C 21.621094 -45.652344 27.058594 -48.070312 32.628906 -48.070312 C 35.363281 -48.070312 37.914062 -47.570312 40.277344 -46.574219 C 42.773438 -45.519531 44.945312 -43.964844 46.789062 -41.90625 C 48.5 -40 49.785156 -37.855469 50.652344 -35.476562 C 51.472656 -33.210938 51.886719 -30.800781 51.886719 -28.246094 C 51.886719 -23.355469 50.628906 -18.84375 48.117188 -14.71875 C 45.625 -10.625 41.707031 -7.164062 36.367188 -4.335938 L 31.574219 -13.390625 L 41.710938 -14.894531 C 41.632812 -15.414062 41.449219 -15.929688 41.160156 -16.441406 C 40.847656 -17 40.457031 -17.464844 39.988281 -17.84375 C 39.585938 -18.167969 39.136719 -18.414062 38.636719 -18.578125 C 38.257812 -18.707031 37.902344 -18.769531 37.578125 -18.769531 C 37.101562 -18.769531 36.660156 -18.6875 36.25 -18.523438 C 36.121094 -18.472656 36.015625 -18.421875 35.925781 -18.367188 L 35.914062 -18.363281 C 37.007812 -19.269531 38.625 -20.996094 40.769531 -23.550781 C 42.003906 -24.992188 43.390625 -26.113281 44.9375 -26.914062 C 46.78125 -27.867188 48.738281 -28.347656 50.808594 -28.347656 Z M 50.808594 -7.851562 C 52.070312 -7.851562 53.257812 -8.140625 54.371094 -8.71875 C 55.183594 -9.140625 55.882812 -9.691406 56.46875 -10.375 C 53.523438 -6.871094 51.03125 -4.269531 48.984375 -2.574219 C 45.519531 0.292969 41.71875 1.726562 37.578125 1.726562 C 33.601562 1.726562 30.121094 0.523438 27.136719 -1.878906 C 25.558594 -3.148438 24.28125 -4.652344 23.304688 -6.386719 C 22.351562 -8.074219 21.730469 -9.910156 21.4375 -11.890625 L 20.375 -19.058594 L 26.777344 -22.449219 C 27.953125 -23.070312 28.898438 -23.691406 29.625 -24.308594 C 30.09375 -24.707031 30.421875 -25.0625 30.613281 -25.375 C 31.128906 -26.230469 31.390625 -27.183594 31.390625 -28.246094 C 31.390625 -28.359375 31.382812 -28.449219 31.375 -28.519531 L 31.371094 -28.527344 C 31.375 -28.515625 31.378906 -28.5 31.386719 -28.480469 C 31.425781 -28.375 31.476562 -28.285156 31.535156 -28.21875 C 31.730469 -28.003906 31.984375 -27.828125 32.304688 -27.691406 C 32.433594 -27.636719 32.554688 -27.601562 32.660156 -27.582031 C 32.683594 -27.578125 32.699219 -27.574219 32.707031 -27.574219 C 32.6875 -27.574219 32.660156 -27.574219 32.628906 -27.574219 C 32.746094 -27.574219 32.835938 -27.582031 32.902344 -27.601562 C 32.832031 -27.582031 32.71875 -27.535156 32.570312 -27.464844 C 31.882812 -27.128906 31.066406 -26.53125 30.117188 -25.664062 C 27.957031 -23.695312 25.867188 -20.085938 23.851562 -14.832031 L 4.039062 -18.503906 C 4.039062 -21.679688 4.125 -24.769531 4.296875 -27.78125 L 4.507812 -31.425781 L 6.976562 -34.117188 C 13.605469 -41.34375 18.316406 -47.527344 21.109375 -52.660156 C 23.472656 -57.003906 24.652344 -61.042969 24.652344 -64.769531 C 24.652344 -65.542969 24.585938 -66.171875 24.449219 -66.660156 C 24.390625 -66.871094 24.335938 -67.015625 24.277344 -67.09375 C 24.4375 -66.871094 24.71875 -66.652344 25.121094 -66.441406 C 25.613281 -66.179688 26.085938 -66.046875 26.539062 -66.046875 C 26.554688 -66.046875 26.578125 -66.054688 26.605469 -66.0625 C 26.546875 -66.042969 26.445312 -65.976562 26.308594 -65.871094 C 25.460938 -65.21875 24.550781 -63.996094 23.578125 -62.199219 C 20.761719 -57 18.597656 -50.402344 17.089844 -42.417969 C 15.503906 -34.007812 14.710938 -25.957031 14.710938 -18.261719 C 14.710938 -13.699219 14.828125 -10.328125 15.058594 -8.144531 C 15.132812 -7.445312 15.226562 -6.898438 15.335938 -6.511719 C 15.347656 -6.46875 15.355469 -6.4375 15.363281 -6.414062 C 15.363281 -6.417969 15.355469 -6.433594 15.347656 -6.453125 C 15.28125 -6.609375 15.1875 -6.78125 15.066406 -6.972656 C 14.4375 -7.949219 13.582031 -8.703125 12.507812 -9.238281 C 11.691406 -9.640625 10.902344 -9.839844 10.144531 -9.839844 C 9.785156 -9.839844 9.347656 -9.75 8.832031 -9.5625 C 7.800781 -9.1875 6.90625 -8.566406 6.140625 -7.699219 C 5.871094 -7.386719 5.652344 -7.089844 5.488281 -6.796875 C 5.457031 -6.742188 5.433594 -6.695312 5.414062 -6.660156 C 5.417969 -6.667969 5.425781 -6.683594 5.433594 -6.710938 C 5.585938 -7.085938 5.761719 -7.695312 5.957031 -8.535156 C 6.976562 -12.671875 8.375 -16.695312 10.152344 -20.601562 C 12.050781 -24.765625 14.171875 -28.253906 16.519531 -31.070312 C 20.324219 -35.640625 24.558594 -37.925781 29.21875 -37.925781 C 31.089844 -37.925781 32.859375 -37.519531 34.523438 -36.710938 C 36.09375 -35.945312 37.449219 -34.878906 38.59375 -33.507812 C 40.582031 -31.121094 41.578125 -28.203125 41.578125 -24.753906 C 41.578125 -22.71875 41.246094 -20.78125 40.578125 -18.945312 C 39.878906 -17.011719 38.84375 -15.265625 37.464844 -13.707031 C 35.429688 -11.402344 32.5 -9.425781 28.683594 -7.777344 C 29.371094 -8.066406 30 -8.617188 30.578125 -9.425781 C 31.308594 -10.449219 31.675781 -11.527344 31.675781 -12.660156 C 31.675781 -12.007812 31.746094 -11.503906 31.890625 -11.144531 C 31.960938 -10.96875 32.078125 -10.800781 32.246094 -10.644531 C 32.820312 -10.109375 33.839844 -9.839844 35.308594 -9.839844 C 36.519531 -9.839844 37.476562 -10.09375 38.179688 -10.597656 C 39.9375 -11.859375 41.746094 -13.625 43.609375 -15.902344 L 43.695312 -16.007812 L 43.785156 -16.113281 C 43.359375 -15.621094 43.0625 -15.105469 42.898438 -14.570312 C 42.863281 -14.449219 42.839844 -14.351562 42.828125 -14.273438 C 42.832031 -14.304688 42.835938 -14.359375 42.835938 -14.449219 C 42.835938 -14.25 42.867188 -14 42.9375 -13.699219 C 43.09375 -13.019531 43.375 -12.351562 43.785156 -11.695312 C 44.472656 -10.59375 45.402344 -9.699219 46.574219 -9.011719 C 47.898438 -8.238281 49.308594 -7.851562 50.808594 -7.851562 Z M 24.835938 -58.011719 C 26.691406 -58.011719 28.355469 -58.511719 29.835938 -59.515625 C 30.476562 -59.949219 30.992188 -60.421875 31.386719 -60.929688 C 31.449219 -61.007812 31.492188 -61.070312 31.527344 -61.121094 C 31.515625 -61.105469 31.496094 -61.066406 31.464844 -61.015625 C 31.335938 -60.773438 31.183594 -60.453125 31.011719 -60.054688 C 30.054688 -57.8125 29.089844 -54.617188 28.117188 -50.460938 C 27.089844 -46.074219 26.246094 -41.269531 25.589844 -36.050781 L 15.421875 -37.335938 L 7.609375 -43.96875 C 10.378906 -47.226562 12.664062 -50.773438 14.46875 -54.605469 C 16.011719 -57.878906 16.78125 -60.644531 16.78125 -62.902344 C 16.78125 -63.28125 16.765625 -63.5625 16.742188 -63.746094 C 16.769531 -63.5625 16.847656 -63.308594 16.984375 -62.976562 C 17.425781 -61.90625 18.140625 -60.949219 19.132812 -60.105469 C 19.917969 -59.4375 20.800781 -58.921875 21.78125 -58.5625 C 22.773438 -58.195312 23.789062 -58.011719 24.835938 -58.011719 Z M 24.835938 -78.507812 C 26.234375 -78.507812 27.585938 -78.265625 28.886719 -77.785156 C 30.175781 -77.308594 31.351562 -76.621094 32.40625 -75.722656 C 33.9375 -74.421875 35.117188 -72.773438 35.933594 -70.78125 C 36.828125 -68.613281 37.273438 -65.984375 37.273438 -62.902344 C 37.273438 -57.585938 35.855469 -51.910156 33.011719 -45.875 C 30.433594 -40.402344 27.171875 -35.34375 23.230469 -30.703125 L 0.941406 -4.460938 L 5.253906 -38.617188 C 6.003906 -44.546875 6.972656 -50.050781 8.164062 -55.136719 C 9.40625 -60.449219 10.742188 -64.773438 12.167969 -68.105469 C 13.109375 -70.308594 14.121094 -72.109375 15.203125 -73.5 C 16.136719 -74.707031 17.183594 -75.699219 18.335938 -76.480469 C 20.328125 -77.832031 22.496094 -78.507812 24.835938 -78.507812 Z M 24.835938 -78.507812 "/></g></g></g><g fill="#ffffff" fill-opacity="1"><g transform="translate(52.062926, 108.374996)"><g><path d="M 14.527344 -32.933594 C 9.574219 -32.933594 5.542969 -34.371094 2.441406 -37.253906 C 0.714844 -38.855469 -0.574219 -40.761719 -1.425781 -42.976562 C -2.167969 -44.898438 -2.535156 -46.96875 -2.535156 -49.1875 C -2.535156 -51.660156 -2.027344 -53.980469 -1.003906 -56.152344 C -0.0078125 -58.277344 1.421875 -60.132812 3.285156 -61.722656 C 5.019531 -63.207031 6.964844 -64.316406 9.125 -65.058594 C 11.128906 -65.746094 13.253906 -66.089844 15.503906 -66.089844 C 19.859375 -66.089844 23.589844 -64.875 26.6875 -62.449219 C 28.636719 -60.925781 30.109375 -59.050781 31.113281 -56.828125 C 32.027344 -54.796875 32.488281 -52.601562 32.488281 -50.242188 C 32.488281 -47.816406 32.054688 -45.550781 31.195312 -43.445312 C 30.253906 -41.148438 28.855469 -39.164062 27 -37.484375 C 25.25 -35.90625 23.246094 -34.726562 20.976562 -33.957031 C 18.972656 -33.273438 16.824219 -32.933594 14.527344 -32.933594 Z M 14.527344 -53.425781 C 14.59375 -53.425781 14.636719 -53.429688 14.652344 -53.429688 C 14.574219 -53.417969 14.480469 -53.394531 14.371094 -53.355469 C 13.96875 -53.21875 13.597656 -53 13.257812 -52.6875 C 12.808594 -52.285156 12.464844 -51.792969 12.226562 -51.210938 C 12.070312 -50.828125 11.992188 -50.503906 11.992188 -50.242188 C 11.992188 -49.664062 12.136719 -49.050781 12.429688 -48.402344 C 12.8125 -47.558594 13.355469 -46.859375 14.058594 -46.3125 C 14.449219 -46.003906 14.855469 -45.789062 15.277344 -45.660156 C 15.390625 -45.628906 15.484375 -45.605469 15.570312 -45.59375 L 15.582031 -45.59375 C 15.5625 -45.59375 15.535156 -45.59375 15.503906 -45.59375 L 15.488281 -45.597656 C 15.574219 -45.609375 15.667969 -45.636719 15.773438 -45.671875 C 16.078125 -45.777344 16.355469 -45.933594 16.601562 -46.144531 C 16.972656 -46.464844 17.289062 -46.894531 17.542969 -47.433594 C 17.820312 -48.023438 17.957031 -48.605469 17.957031 -49.1875 C 17.957031 -49.507812 17.871094 -49.894531 17.699219 -50.34375 C 17.414062 -51.082031 16.976562 -51.722656 16.386719 -52.273438 C 15.816406 -52.804688 15.210938 -53.167969 14.574219 -53.363281 C 14.453125 -53.402344 14.351562 -53.425781 14.277344 -53.4375 C 14.328125 -53.429688 14.410156 -53.425781 14.527344 -53.425781 Z M 13.878906 10.652344 C 10.546875 10.652344 7.53125 9.996094 4.839844 8.6875 C 1.835938 7.222656 -0.582031 5.0625 -2.417969 2.203125 C -5.09375 -1.96875 -6.433594 -7.113281 -6.433594 -13.230469 C -6.433594 -16.21875 -6.078125 -19.894531 -5.367188 -24.253906 C -4.675781 -28.492188 -3.78125 -32.464844 -2.6875 -36.179688 C -1.628906 -39.9375 0.164062 -42.828125 2.6875 -44.851562 C 5.371094 -46.996094 8.804688 -48.070312 12.988281 -48.070312 C 16.433594 -48.070312 19.363281 -47.265625 21.773438 -45.660156 C 23.628906 -44.421875 25.046875 -42.820312 26.03125 -40.851562 C 26.925781 -39.066406 27.375 -37.136719 27.375 -35.0625 C 27.375 -33.003906 26.785156 -29.167969 25.613281 -23.554688 C 24.460938 -18.261719 23.882812 -14.929688 23.882812 -13.554688 C 23.882812 -13.332031 23.886719 -13.199219 23.894531 -13.160156 C 23.832031 -13.523438 23.683594 -13.941406 23.449219 -14.402344 C 22.769531 -15.769531 21.746094 -16.855469 20.382812 -17.664062 C 19.136719 -18.402344 17.835938 -18.769531 16.476562 -18.769531 C 15.191406 -18.769531 14.082031 -18.507812 13.144531 -17.988281 C 13.027344 -17.921875 12.941406 -17.871094 12.890625 -17.832031 C 12.957031 -17.882812 13.050781 -17.960938 13.167969 -18.070312 C 14.304688 -19.125 15.949219 -20.941406 18.101562 -23.523438 C 19.351562 -24.984375 20.746094 -26.113281 22.289062 -26.914062 C 24.132812 -27.867188 26.09375 -28.347656 28.164062 -28.347656 C 30.367188 -28.347656 32.410156 -27.796875 34.285156 -26.699219 C 36.011719 -25.6875 37.425781 -24.308594 38.519531 -22.558594 C 39.960938 -20.246094 40.683594 -17.542969 40.683594 -14.449219 C 40.683594 -9.742188 39.339844 -5.832031 36.648438 -2.71875 L 28.894531 -9.414062 L 36.824219 -2.925781 C 29.417969 6.125 21.769531 10.652344 13.878906 10.652344 Z M 13.878906 -9.839844 C 13.917969 -9.839844 14.003906 -9.867188 14.144531 -9.914062 C 14.53125 -10.042969 14.988281 -10.28125 15.515625 -10.625 C 17.136719 -11.6875 18.953125 -13.445312 20.964844 -15.902344 L 21.050781 -16.007812 L 21.140625 -16.113281 C 20.714844 -15.621094 20.417969 -15.105469 20.253906 -14.570312 C 20.21875 -14.449219 20.195312 -14.351562 20.183594 -14.273438 C 20.1875 -14.304688 20.191406 -14.359375 20.191406 -14.449219 C 20.191406 -14.25 20.222656 -14 20.292969 -13.699219 C 20.445312 -13.019531 20.730469 -12.351562 21.136719 -11.695312 C 21.828125 -10.59375 22.757812 -9.699219 23.929688 -9.011719 C 25.253906 -8.238281 26.664062 -7.851562 28.164062 -7.851562 C 29.425781 -7.851562 30.609375 -8.140625 31.726562 -8.71875 C 32.539062 -9.140625 33.246094 -9.703125 33.84375 -10.402344 C 31.128906 -7.140625 28.875 -4.683594 27.089844 -3.03125 C 23.664062 0.140625 20.128906 1.726562 16.476562 1.726562 C 14.089844 1.726562 11.910156 1.140625 9.933594 -0.03125 C 7.839844 -1.273438 6.234375 -3.007812 5.121094 -5.238281 C 3.964844 -7.546875 3.386719 -10.320312 3.386719 -13.554688 C 3.386719 -16.402344 4.109375 -21.128906 5.550781 -27.742188 C 6.035156 -30.058594 6.394531 -31.929688 6.628906 -33.351562 C 6.730469 -33.972656 6.804688 -34.480469 6.847656 -34.878906 C 6.863281 -35.015625 6.875 -35.121094 6.878906 -35.203125 L 6.882812 -35.207031 C 6.878906 -35.164062 6.878906 -35.117188 6.878906 -35.0625 C 6.878906 -33.910156 7.152344 -32.785156 7.703125 -31.6875 C 8.339844 -30.410156 9.242188 -29.382812 10.40625 -28.605469 C 11.125 -28.128906 11.847656 -27.808594 12.574219 -27.648438 C 12.730469 -27.613281 12.867188 -27.589844 12.984375 -27.578125 L 12.988281 -27.574219 C 12.898438 -27.574219 12.839844 -27.574219 12.8125 -27.570312 C 12.902344 -27.582031 13.019531 -27.601562 13.160156 -27.636719 C 13.957031 -27.835938 14.734375 -28.242188 15.492188 -28.847656 C 16.160156 -29.378906 16.65625 -29.953125 16.992188 -30.5625 C 17.039062 -30.648438 17.070312 -30.714844 17.089844 -30.761719 C 17.066406 -30.703125 17.027344 -30.574219 16.972656 -30.378906 C 16.117188 -27.488281 15.414062 -24.347656 14.863281 -20.953125 C 14.328125 -17.6875 14.0625 -15.109375 14.0625 -13.230469 C 14.0625 -11.988281 14.164062 -10.9375 14.375 -10.078125 C 14.503906 -9.542969 14.65625 -9.136719 14.835938 -8.859375 C 14.597656 -9.230469 14.253906 -9.523438 13.808594 -9.742188 C 13.671875 -9.808594 13.5625 -9.847656 13.476562 -9.867188 C 13.558594 -9.851562 13.691406 -9.839844 13.878906 -9.839844 Z M 13.878906 -9.839844 "/></g></g></g><g fill="#ffffff" fill-opacity="1"><g transform="translate(72.029272, 108.374996)"><g><path d="M 18.992188 12.4375 C 13.617188 12.4375 9.21875 10.945312 5.800781 7.964844 C 4.0625 6.445312 2.707031 4.730469 1.734375 2.824219 C 0.617188 0.632812 0.0625 -1.6875 0.0625 -4.140625 C 0.0625 -6.226562 0.457031 -8.210938 1.253906 -10.09375 C 2.027344 -11.933594 3.144531 -13.578125 4.605469 -15.039062 C 6.246094 -16.679688 8.199219 -17.882812 10.464844 -18.652344 C 12.289062 -19.273438 14.265625 -19.582031 16.394531 -19.582031 C 17.585938 -19.582031 18.890625 -19.480469 20.320312 -19.277344 C 21.160156 -19.15625 21.773438 -19.074219 22.152344 -19.03125 L 21.023438 -8.847656 L 10.78125 -8.453125 C 10.78125 -8.511719 10.773438 -8.550781 10.765625 -8.570312 C 10.5 -9.152344 10.148438 -9.738281 9.714844 -10.316406 C 9.011719 -11.265625 8.371094 -12.070312 7.789062 -12.730469 L 15.503906 -19.480469 L 24.574219 -14.714844 C 22.609375 -10.976562 20.613281 -7.808594 18.582031 -5.210938 C 16.644531 -2.738281 14.539062 -0.390625 12.257812 1.828125 C 11 3.085938 9.582031 4.085938 8 4.835938 C 6.097656 5.738281 4.105469 6.1875 2.027344 6.1875 C 0.152344 6.1875 -1.621094 5.820312 -3.292969 5.078125 C -5.039062 4.308594 -6.542969 3.191406 -7.8125 1.734375 C -8.941406 0.433594 -9.792969 -1.023438 -10.359375 -2.644531 C -10.878906 -4.128906 -11.140625 -5.679688 -11.140625 -7.304688 C -11.140625 -10.839844 -9.980469 -14.011719 -7.667969 -16.824219 L -6.65625 -18.070312 C -3.933594 -21.433594 -1.917969 -24.144531 -0.609375 -26.199219 L 8.035156 -20.695312 L -0.804688 -25.878906 C -0.0351562 -27.191406 0.90625 -29.023438 2.023438 -31.378906 C 3.207031 -33.871094 4.363281 -36.457031 5.496094 -39.136719 C 6.949219 -42.503906 9.226562 -45.050781 12.320312 -46.773438 C 14.941406 -48.234375 17.949219 -48.964844 21.347656 -48.964844 C 24.339844 -48.964844 26.808594 -48.523438 28.753906 -47.640625 C 30.777344 -46.71875 32.402344 -45.367188 33.625 -43.585938 C 34.976562 -41.621094 35.652344 -39.429688 35.652344 -37.011719 C 35.652344 -35.660156 35.394531 -34.140625 34.875 -32.457031 C 34.460938 -31.113281 33.90625 -29.792969 33.210938 -28.5 L 24.1875 -33.359375 L 33.351562 -28.777344 C 33.136719 -28.34375 32.992188 -28.003906 32.917969 -27.761719 C 32.957031 -27.882812 32.972656 -28.097656 32.972656 -28.40625 C 32.972656 -29.0625 32.882812 -29.671875 32.703125 -30.238281 C 32.617188 -30.507812 32.527344 -30.726562 32.429688 -30.894531 C 32.730469 -30.378906 33.304688 -29.597656 34.160156 -28.550781 L 34.265625 -28.421875 L 34.367188 -28.289062 C 36.390625 -25.628906 37.96875 -23.292969 39.097656 -21.277344 C 40.859375 -18.125 41.738281 -14.714844 41.738281 -11.039062 C 41.738281 -10.117188 41.664062 -8.984375 41.515625 -7.632812 L 31.328125 -8.765625 L 27.625 -18.320312 C 27.601562 -18.308594 27.578125 -18.300781 27.5625 -18.292969 C 27.5625 -18.292969 27.570312 -18.296875 27.578125 -18.300781 C 27.636719 -18.332031 27.714844 -18.378906 27.804688 -18.4375 C 28.117188 -18.640625 28.476562 -18.925781 28.890625 -19.285156 C 30 -20.261719 31.265625 -21.628906 32.679688 -23.390625 L 32.882812 -23.632812 C 34.070312 -25.019531 35.4375 -26.113281 36.980469 -26.914062 C 38.824219 -27.867188 40.785156 -28.347656 42.855469 -28.347656 C 45.058594 -28.347656 47.097656 -27.796875 48.976562 -26.699219 C 50.703125 -25.6875 52.113281 -24.308594 53.207031 -22.558594 C 54.652344 -20.246094 55.375 -17.542969 55.375 -14.449219 C 55.375 -10.015625 54.125 -6.214844 51.621094 -3.054688 C 47.933594 1.519531 44.183594 4.746094 40.375 6.628906 C 36.578125 8.507812 32.125 9.523438 27.007812 9.675781 L 26.703125 -0.566406 L 33.339844 7.238281 C 31.308594 8.964844 29.0625 10.269531 26.605469 11.148438 C 24.203125 12.007812 21.667969 12.4375 18.992188 12.4375 Z M 18.992188 -8.054688 C 19.296875 -8.054688 19.53125 -8.085938 19.699219 -8.148438 C 19.8125 -8.1875 19.933594 -8.261719 20.066406 -8.375 L 22.804688 -10.703125 L 26.398438 -10.8125 C 28.535156 -10.875 30.164062 -11.183594 31.292969 -11.742188 C 31.707031 -11.945312 32.21875 -12.320312 32.828125 -12.859375 C 33.691406 -13.621094 34.597656 -14.59375 35.550781 -15.777344 C 35.265625 -15.417969 35.066406 -15.039062 34.945312 -14.648438 C 34.910156 -14.542969 34.890625 -14.453125 34.878906 -14.375 L 34.878906 -14.363281 C 34.878906 -14.386719 34.878906 -14.414062 34.878906 -14.449219 C 34.878906 -14.25 34.914062 -14 34.984375 -13.699219 C 35.136719 -13.019531 35.417969 -12.351562 35.828125 -11.695312 C 36.515625 -10.59375 37.449219 -9.699219 38.621094 -9.011719 C 39.941406 -8.238281 41.355469 -7.851562 42.855469 -7.851562 C 44.113281 -7.851562 45.300781 -8.140625 46.414062 -8.71875 C 47.230469 -9.140625 47.90625 -9.664062 48.445312 -10.292969 L 40.664062 -16.964844 L 48.644531 -10.539062 C 46.492188 -7.859375 44.414062 -5.644531 42.414062 -3.886719 C 39.949219 -1.722656 37.488281 -0.164062 35.035156 0.789062 L 19.277344 6.898438 L 21.144531 -9.898438 C 21.210938 -10.496094 21.246094 -10.875 21.246094 -11.039062 C 21.246094 -11.152344 21.234375 -11.230469 21.210938 -11.269531 C 20.550781 -12.445312 19.503906 -13.976562 18.066406 -15.867188 L 26.214844 -22.078125 L 18.273438 -15.605469 C 16.746094 -17.476562 15.5625 -19.132812 14.726562 -20.566406 C 13.226562 -23.136719 12.480469 -25.75 12.480469 -28.40625 C 12.480469 -31.375 13.328125 -34.550781 15.023438 -37.941406 L 15.089844 -38.082031 L 15.164062 -38.21875 C 15.226562 -38.332031 15.265625 -38.417969 15.285156 -38.484375 L 15.296875 -38.492188 C 15.203125 -38.054688 15.15625 -37.558594 15.15625 -37.011719 C 15.15625 -35.1875 15.683594 -33.507812 16.738281 -31.976562 C 17.664062 -30.628906 18.839844 -29.632812 20.269531 -28.980469 C 20.910156 -28.691406 21.476562 -28.511719 21.972656 -28.449219 C 21.875 -28.460938 21.667969 -28.46875 21.347656 -28.46875 C 21.28125 -28.46875 21.234375 -28.464844 21.203125 -28.464844 C 21.230469 -28.464844 21.273438 -28.472656 21.332031 -28.488281 C 21.632812 -28.554688 21.957031 -28.683594 22.292969 -28.871094 C 23.253906 -29.40625 23.945312 -30.164062 24.371094 -31.152344 C 23.125 -28.203125 21.847656 -25.351562 20.539062 -22.597656 C 19.167969 -19.703125 17.945312 -17.339844 16.875 -15.515625 L 16.78125 -15.351562 L 16.679688 -15.195312 C 14.957031 -12.488281 12.480469 -9.136719 9.25 -5.144531 L 8.152344 -3.792969 C 8.492188 -4.203125 8.765625 -4.6875 8.976562 -5.242188 C 9.226562 -5.910156 9.355469 -6.597656 9.355469 -7.304688 C 9.355469 -8.007812 9.230469 -8.71875 8.980469 -9.429688 C 8.683594 -10.277344 8.238281 -11.039062 7.652344 -11.714844 C 6.921875 -12.554688 6.039062 -13.203125 4.996094 -13.664062 C 4.027344 -14.089844 3.039062 -14.304688 2.027344 -14.304688 C 1.035156 -14.304688 0.0976562 -14.097656 -0.773438 -13.683594 C -1.332031 -13.421875 -1.75 -13.148438 -2.03125 -12.867188 C -0.414062 -14.4375 1.074219 -16.09375 2.4375 -17.839844 C 3.710938 -19.464844 5.039062 -21.597656 6.429688 -24.246094 L 13.378906 -37.46875 L 23.214844 -26.226562 C 24.148438 -25.160156 25.132812 -23.933594 26.160156 -22.554688 C 27.457031 -20.808594 28.539062 -18.984375 29.410156 -17.078125 C 30.539062 -14.609375 31.15625 -11.996094 31.261719 -9.242188 L 31.71875 2.652344 L 19.890625 1.335938 C 19.296875 1.273438 18.472656 1.164062 17.421875 1.011719 C 16.957031 0.945312 16.613281 0.914062 16.394531 0.914062 C 16.523438 0.914062 16.738281 0.859375 17.050781 0.753906 C 17.800781 0.5 18.484375 0.0664062 19.097656 -0.546875 C 19.527344 -0.976562 19.871094 -1.5 20.132812 -2.121094 C 20.414062 -2.789062 20.554688 -3.460938 20.554688 -4.140625 C 20.554688 -4.96875 20.371094 -5.746094 19.996094 -6.476562 C 19.769531 -6.921875 19.53125 -7.257812 19.277344 -7.476562 C 18.914062 -7.796875 18.5625 -8.003906 18.230469 -8.105469 C 18.339844 -8.074219 18.59375 -8.054688 18.992188 -8.054688 Z M 18.992188 -8.054688 "/></g></g></g><g fill="#ffffff" fill-opacity="1"><g transform="translate(106.686294, 108.374996)"><g><path d="M 18.992188 12.4375 C 13.617188 12.4375 9.21875 10.945312 5.800781 7.964844 C 4.0625 6.445312 2.707031 4.730469 1.734375 2.824219 C 0.617188 0.632812 0.0625 -1.6875 0.0625 -4.140625 C 0.0625 -6.226562 0.457031 -8.210938 1.253906 -10.09375 C 2.027344 -11.933594 3.144531 -13.578125 4.605469 -15.039062 C 6.246094 -16.679688 8.199219 -17.882812 10.464844 -18.652344 C 12.289062 -19.273438 14.265625 -19.582031 16.394531 -19.582031 C 17.585938 -19.582031 18.890625 -19.480469 20.320312 -19.277344 C 21.160156 -19.15625 21.773438 -19.074219 22.152344 -19.03125 L 21.023438 -8.847656 L 10.78125 -8.453125 C 10.78125 -8.511719 10.773438 -8.550781 10.765625 -8.570312 C 10.5 -9.152344 10.148438 -9.738281 9.714844 -10.316406 C 9.011719 -11.265625 8.371094 -12.070312 7.789062 -12.730469 L 15.503906 -19.480469 L 24.574219 -14.714844 C 22.609375 -10.976562 20.613281 -7.808594 18.582031 -5.210938 C 16.644531 -2.738281 14.539062 -0.390625 12.257812 1.828125 C 11 3.085938 9.582031 4.085938 8 4.835938 C 6.097656 5.738281 4.105469 6.1875 2.027344 6.1875 C 0.152344 6.1875 -1.621094 5.820312 -3.292969 5.078125 C -5.039062 4.308594 -6.542969 3.191406 -7.8125 1.734375 C -8.941406 0.433594 -9.792969 -1.023438 -10.359375 -2.644531 C -10.878906 -4.128906 -11.140625 -5.679688 -11.140625 -7.304688 C -11.140625 -10.839844 -9.980469 -14.011719 -7.667969 -16.824219 L -6.65625 -18.070312 C -3.933594 -21.433594 -1.917969 -24.144531 -0.609375 -26.199219 L 8.035156 -20.695312 L -0.804688 -25.878906 C -0.0351562 -27.191406 0.90625 -29.023438 2.023438 -31.378906 C 3.207031 -33.871094 4.363281 -36.457031 5.496094 -39.136719 C 6.949219 -42.503906 9.226562 -45.050781 12.320312 -46.773438 C 14.941406 -48.234375 17.949219 -48.964844 21.347656 -48.964844 C 24.339844 -48.964844 26.808594 -48.523438 28.753906 -47.640625 C 30.777344 -46.71875 32.402344 -45.367188 33.625 -43.585938 C 34.976562 -41.621094 35.652344 -39.429688 35.652344 -37.011719 C 35.652344 -35.660156 35.394531 -34.140625 34.875 -32.457031 C 34.460938 -31.113281 33.90625 -29.792969 33.210938 -28.5 L 24.1875 -33.359375 L 33.351562 -28.777344 C 33.136719 -28.34375 32.992188 -28.003906 32.917969 -27.761719 C 32.957031 -27.882812 32.972656 -28.097656 32.972656 -28.40625 C 32.972656 -29.0625 32.882812 -29.671875 32.703125 -30.238281 C 32.617188 -30.507812 32.527344 -30.726562 32.429688 -30.894531 C 32.730469 -30.378906 33.304688 -29.597656 34.160156 -28.550781 L 34.265625 -28.421875 L 34.367188 -28.289062 C 36.390625 -25.628906 37.96875 -23.292969 39.097656 -21.277344 C 40.859375 -18.125 41.738281 -14.714844 41.738281 -11.039062 C 41.738281 -10.117188 41.664062 -8.984375 41.515625 -7.632812 L 31.328125 -8.765625 L 27.625 -18.320312 C 27.601562 -18.308594 27.578125 -18.300781 27.5625 -18.292969 C 27.5625 -18.292969 27.570312 -18.296875 27.578125 -18.300781 C 27.636719 -18.332031 27.714844 -18.378906 27.804688 -18.4375 C 28.117188 -18.640625 28.476562 -18.925781 28.890625 -19.285156 C 30 -20.261719 31.265625 -21.628906 32.679688 -23.390625 L 32.882812 -23.632812 C 34.070312 -25.019531 35.4375 -26.113281 36.980469 -26.914062 C 38.824219 -27.867188 40.785156 -28.347656 42.855469 -28.347656 C 45.058594 -28.347656 47.097656 -27.796875 48.976562 -26.699219 C 50.703125 -25.6875 52.113281 -24.308594 53.207031 -22.558594 C 54.652344 -20.246094 55.375 -17.542969 55.375 -14.449219 C 55.375 -10.015625 54.125 -6.214844 51.621094 -3.054688 C 47.933594 1.519531 44.183594 4.746094 40.375 6.628906 C 36.578125 8.507812 32.125 9.523438 27.007812 9.675781 L 26.703125 -0.566406 L 33.339844 7.238281 C 31.308594 8.964844 29.0625 10.269531 26.605469 11.148438 C 24.203125 12.007812 21.667969 12.4375 18.992188 12.4375 Z M 18.992188 -8.054688 C 19.296875 -8.054688 19.53125 -8.085938 19.699219 -8.148438 C 19.8125 -8.1875 19.933594 -8.261719 20.066406 -8.375 L 22.804688 -10.703125 L 26.398438 -10.8125 C 28.535156 -10.875 30.164062 -11.183594 31.292969 -11.742188 C 31.707031 -11.945312 32.21875 -12.320312 32.828125 -12.859375 C 33.691406 -13.621094 34.597656 -14.59375 35.550781 -15.777344 C 35.265625 -15.417969 35.066406 -15.039062 34.945312 -14.648438 C 34.910156 -14.542969 34.890625 -14.453125 34.878906 -14.375 L 34.878906 -14.363281 C 34.878906 -14.386719 34.878906 -14.414062 34.878906 -14.449219 C 34.878906 -14.25 34.914062 -14 34.984375 -13.699219 C 35.136719 -13.019531 35.417969 -12.351562 35.828125 -11.695312 C 36.515625 -10.59375 37.449219 -9.699219 38.621094 -9.011719 C 39.941406 -8.238281 41.355469 -7.851562 42.855469 -7.851562 C 44.113281 -7.851562 45.300781 -8.140625 46.414062 -8.71875 C 47.230469 -9.140625 47.90625 -9.664062 48.445312 -10.292969 L 40.664062 -16.964844 L 48.644531 -10.539062 C 46.492188 -7.859375 44.414062 -5.644531 42.414062 -3.886719 C 39.949219 -1.722656 37.488281 -0.164062 35.035156 0.789062 L 19.277344 6.898438 L 21.144531 -9.898438 C 21.210938 -10.496094 21.246094 -10.875 21.246094 -11.039062 C 21.246094 -11.152344 21.234375 -11.230469 21.210938 -11.269531 C 20.550781 -12.445312 19.503906 -13.976562 18.066406 -15.867188 L 26.214844 -22.078125 L 18.273438 -15.605469 C 16.746094 -17.476562 15.5625 -19.132812 14.726562 -20.566406 C 13.226562 -23.136719 12.480469 -25.75 12.480469 -28.40625 C 12.480469 -31.375 13.328125 -34.550781 15.023438 -37.941406 L 15.089844 -38.082031 L 15.164062 -38.21875 C 15.226562 -38.332031 15.265625 -38.417969 15.285156 -38.484375 L 15.296875 -38.492188 C 15.203125 -38.054688 15.15625 -37.558594 15.15625 -37.011719 C 15.15625 -35.1875 15.683594 -33.507812 16.738281 -31.976562 C 17.664062 -30.628906 18.839844 -29.632812 20.269531 -28.980469 C 20.910156 -28.691406 21.476562 -28.511719 21.972656 -28.449219 C 21.875 -28.460938 21.667969 -28.46875 21.347656 -28.46875 C 21.28125 -28.46875 21.234375 -28.464844 21.203125 -28.464844 C 21.230469 -28.464844 21.273438 -28.472656 21.332031 -28.488281 C 21.632812 -28.554688 21.957031 -28.683594 22.292969 -28.871094 C 23.253906 -29.40625 23.945312 -30.164062 24.371094 -31.152344 C 23.125 -28.203125 21.847656 -25.351562 20.539062 -22.597656 C 19.167969 -19.703125 17.945312 -17.339844 16.875 -15.515625 L 16.78125 -15.351562 L 16.679688 -15.195312 C 14.957031 -12.488281 12.480469 -9.136719 9.25 -5.144531 L 8.152344 -3.792969 C 8.492188 -4.203125 8.765625 -4.6875 8.976562 -5.242188 C 9.226562 -5.910156 9.355469 -6.597656 9.355469 -7.304688 C 9.355469 -8.007812 9.230469 -8.71875 8.980469 -9.429688 C 8.683594 -10.277344 8.238281 -11.039062 7.652344 -11.714844 C 6.921875 -12.554688 6.039062 -13.203125 4.996094 -13.664062 C 4.027344 -14.089844 3.039062 -14.304688 2.027344 -14.304688 C 1.035156 -14.304688 0.0976562 -14.097656 -0.773438 -13.683594 C -1.332031 -13.421875 -1.75 -13.148438 -2.03125 -12.867188 C -0.414062 -14.4375 1.074219 -16.09375 2.4375 -17.839844 C 3.710938 -19.464844 5.039062 -21.597656 6.429688 -24.246094 L 13.378906 -37.46875 L 23.214844 -26.226562 C 24.148438 -25.160156 25.132812 -23.933594 26.160156 -22.554688 C 27.457031 -20.808594 28.539062 -18.984375 29.410156 -17.078125 C 30.539062 -14.609375 31.15625 -11.996094 31.261719 -9.242188 L 31.71875 2.652344 L 19.890625 1.335938 C 19.296875 1.273438 18.472656 1.164062 17.421875 1.011719 C 16.957031 0.945312 16.613281 0.914062 16.394531 0.914062 C 16.523438 0.914062 16.738281 0.859375 17.050781 0.753906 C 17.800781 0.5 18.484375 0.0664062 19.097656 -0.546875 C 19.527344 -0.976562 19.871094 -1.5 20.132812 -2.121094 C 20.414062 -2.789062 20.554688 -3.460938 20.554688 -4.140625 C 20.554688 -4.96875 20.371094 -5.746094 19.996094 -6.476562 C 19.769531 -6.921875 19.53125 -7.257812 19.277344 -7.476562 C 18.914062 -7.796875 18.5625 -8.003906 18.230469 -8.105469 C 18.339844 -8.074219 18.59375 -8.054688 18.992188 -8.054688 Z M 18.992188 -8.054688 "/></g></g></g><g fill="#ffffff" fill-opacity="1"><g transform="translate(141.346353, 108.374996)"><g><path d="M 9.660156 10.652344 C 6.359375 10.652344 3.4375 9.703125 0.894531 7.800781 C -1.398438 6.085938 -3.109375 3.773438 -4.238281 0.863281 C -5.539062 -2.492188 -6.1875 -7.191406 -6.1875 -13.230469 C -6.1875 -21.320312 -5.027344 -29.03125 -2.710938 -36.367188 C -1.507812 -40.238281 0.667969 -43.210938 3.820312 -45.285156 C 6.640625 -47.140625 10.074219 -48.070312 14.121094 -48.070312 C 17.164062 -48.070312 19.730469 -47.414062 21.828125 -46.105469 C 23.878906 -44.824219 25.378906 -43.058594 26.328125 -40.804688 C 26.96875 -39.277344 27.292969 -37.632812 27.292969 -35.875 C 27.292969 -34.738281 27.117188 -33.335938 26.773438 -31.675781 C 26.53125 -30.511719 26.179688 -29.082031 25.726562 -27.378906 C 25.25 -25.472656 24.863281 -23.796875 24.570312 -22.347656 C 24.320312 -21.121094 24.105469 -19.503906 23.921875 -17.496094 L 13.71875 -18.425781 L 4.035156 -21.777344 C 5.800781 -26.886719 7.96875 -31.289062 10.535156 -34.984375 C 13.300781 -38.964844 16.285156 -42.03125 19.492188 -44.183594 C 23.355469 -46.773438 27.273438 -48.070312 31.25 -48.070312 C 33.273438 -48.070312 35.132812 -47.796875 36.824219 -47.25 C 39.230469 -46.472656 41.242188 -45.191406 42.859375 -43.40625 C 45.414062 -40.585938 46.691406 -36.96875 46.691406 -32.546875 C 46.691406 -30.050781 46.09375 -26.160156 44.894531 -20.871094 C 44.507812 -19.128906 44.25 -17.859375 44.117188 -17.066406 L 34.007812 -18.75 L 24.515625 -22.609375 C 27.796875 -30.683594 31.65625 -36.757812 36.085938 -40.828125 C 41.347656 -45.65625 46.742188 -48.070312 52.269531 -48.070312 C 54.257812 -48.070312 56.109375 -47.785156 57.820312 -47.214844 C 60.007812 -46.484375 61.894531 -45.328125 63.472656 -43.75 C 65.054688 -42.171875 66.207031 -40.285156 66.9375 -38.097656 C 67.507812 -36.382812 67.792969 -34.535156 67.792969 -32.546875 C 67.792969 -29.707031 67.121094 -25.171875 65.777344 -18.941406 C 65.296875 -16.742188 64.941406 -14.949219 64.714844 -13.566406 C 64.546875 -12.566406 64.464844 -11.964844 64.464844 -11.769531 C 64.464844 -12.042969 64.417969 -12.371094 64.324219 -12.753906 C 64.105469 -13.660156 63.699219 -14.527344 63.101562 -15.347656 C 62.25 -16.527344 61.15625 -17.421875 59.824219 -18.035156 C 58.757812 -18.523438 57.675781 -18.769531 56.570312 -18.769531 C 55.453125 -18.769531 54.480469 -18.554688 53.648438 -18.125 C 53.527344 -18.0625 53.4375 -18.011719 53.378906 -17.96875 C 53.429688 -18.007812 53.507812 -18.070312 53.609375 -18.164062 C 54.722656 -19.15625 56.363281 -20.945312 58.53125 -23.539062 C 59.773438 -24.988281 61.167969 -26.113281 62.710938 -26.914062 C 64.554688 -27.867188 66.511719 -28.347656 68.585938 -28.347656 C 70.789062 -28.347656 72.828125 -27.796875 74.703125 -26.699219 C 76.433594 -25.6875 77.84375 -24.308594 78.9375 -22.558594 C 80.382812 -20.246094 81.105469 -17.542969 81.105469 -14.449219 C 81.105469 -9.742188 79.757812 -5.832031 77.070312 -2.71875 L 69.316406 -9.414062 L 77.273438 -2.957031 C 74.324219 0.675781 71.101562 3.695312 67.609375 6.09375 C 63.183594 9.132812 58.207031 10.652344 52.675781 10.652344 C 50.03125 10.652344 47.601562 10.226562 45.378906 9.375 C 42.765625 8.375 40.554688 6.847656 38.738281 4.785156 C 35.625 1.253906 34.070312 -3.316406 34.070312 -8.929688 C 34.070312 -11.101562 34.511719 -14.457031 35.394531 -19 C 35.722656 -20.597656 35.960938 -21.890625 36.109375 -22.882812 C 36.210938 -23.554688 36.261719 -23.964844 36.261719 -24.105469 C 36.261719 -23.550781 36.328125 -22.976562 36.464844 -22.386719 C 36.71875 -21.277344 37.175781 -20.242188 37.839844 -19.273438 C 38.789062 -17.894531 40.019531 -16.835938 41.535156 -16.101562 C 42.835938 -15.472656 44.195312 -15.15625 45.613281 -15.15625 C 47.140625 -15.15625 48.550781 -15.5 49.84375 -16.1875 C 50.378906 -16.472656 50.835938 -16.785156 51.214844 -17.128906 C 51.28125 -17.1875 51.335938 -17.242188 51.378906 -17.289062 L 51.386719 -17.292969 C 51.378906 -17.285156 51.367188 -17.273438 51.355469 -17.257812 C 51.242188 -17.128906 51.105469 -16.949219 50.941406 -16.71875 C 50.0625 -15.492188 49.117188 -13.71875 48.109375 -11.402344 C 47.042969 -8.960938 46.171875 -6.375 45.5 -3.640625 C 45.109375 -1.933594 44.644531 -0.402344 44.105469 0.953125 C 43.304688 2.964844 42.292969 4.640625 41.074219 5.988281 C 39.503906 7.722656 37.570312 8.984375 35.28125 9.769531 C 33.574219 10.359375 31.714844 10.652344 29.707031 10.652344 C 26.824219 10.652344 24.210938 9.90625 21.859375 8.410156 C 19.652344 7.007812 17.902344 5.070312 16.609375 2.605469 C 14.9375 -0.589844 14.101562 -4.246094 14.101562 -8.359375 C 14.101562 -10.886719 14.40625 -14.335938 15.011719 -18.699219 C 15.378906 -21.644531 15.5625 -23.449219 15.5625 -24.105469 C 15.5625 -23.550781 15.628906 -22.976562 15.765625 -22.386719 C 16.019531 -21.277344 16.480469 -20.242188 17.144531 -19.273438 C 18.09375 -17.894531 19.324219 -16.835938 20.835938 -16.101562 C 22.136719 -15.472656 23.496094 -15.15625 24.917969 -15.15625 C 26.410156 -15.15625 27.792969 -15.492188 29.0625 -16.164062 C 29.65625 -16.480469 30.164062 -16.835938 30.585938 -17.234375 C 30.703125 -17.347656 30.78125 -17.425781 30.816406 -17.46875 C 30.726562 -17.355469 30.609375 -17.1875 30.46875 -16.964844 C 29.597656 -15.601562 28.703125 -13.726562 27.789062 -11.34375 C 26.785156 -8.730469 25.984375 -6.175781 25.382812 -3.6875 C 24.976562 -1.953125 24.503906 -0.414062 23.964844 0.925781 C 23.1875 2.871094 22.214844 4.507812 21.050781 5.832031 C 19.5 7.59375 17.59375 8.882812 15.332031 9.703125 C 13.589844 10.335938 11.699219 10.652344 9.660156 10.652344 Z M 9.660156 -9.839844 C 9.296875 -9.839844 8.859375 -9.75 8.347656 -9.5625 C 7.316406 -9.1875 6.417969 -8.566406 5.652344 -7.699219 C 5.382812 -7.386719 5.164062 -7.089844 5 -6.796875 C 4.96875 -6.742188 4.945312 -6.695312 4.925781 -6.660156 C 4.929688 -6.667969 4.9375 -6.683594 4.949219 -6.710938 C 5.097656 -7.085938 5.269531 -7.679688 5.457031 -8.484375 C 6.265625 -11.839844 7.332031 -15.242188 8.65625 -18.6875 C 10.066406 -22.363281 11.582031 -25.46875 13.199219 -28 C 14.269531 -29.679688 15.367188 -31.050781 16.492188 -32.113281 C 18.980469 -34.472656 21.789062 -35.652344 24.917969 -35.652344 C 26.636719 -35.652344 28.253906 -35.28125 29.777344 -34.542969 C 31.515625 -33.703125 32.933594 -32.480469 34.03125 -30.886719 C 35.382812 -28.921875 36.058594 -26.660156 36.058594 -24.105469 C 36.058594 -22.597656 35.808594 -19.855469 35.3125 -15.878906 C 34.835938 -12.449219 34.597656 -9.945312 34.597656 -8.359375 C 34.597656 -7.871094 34.632812 -7.464844 34.703125 -7.140625 C 34.730469 -7.015625 34.75 -6.9375 34.765625 -6.90625 C 34.367188 -7.667969 33.734375 -8.324219 32.863281 -8.878906 C 31.855469 -9.519531 30.804688 -9.839844 29.707031 -9.839844 C 29.429688 -9.839844 29.066406 -9.765625 28.613281 -9.609375 C 27.582031 -9.253906 26.675781 -8.640625 25.886719 -7.773438 C 25.578125 -7.433594 25.328125 -7.09375 25.140625 -6.761719 C 25.101562 -6.699219 25.074219 -6.644531 25.050781 -6.597656 C 25.054688 -6.597656 25.058594 -6.609375 25.066406 -6.632812 C 25.21875 -7.011719 25.394531 -7.644531 25.597656 -8.535156 C 26.550781 -12.402344 27.792969 -16.089844 29.324219 -19.601562 C 30.910156 -23.238281 32.5625 -26.253906 34.28125 -28.652344 C 35.355469 -30.15625 36.414062 -31.378906 37.457031 -32.320312 C 39.910156 -34.542969 42.628906 -35.652344 45.613281 -35.652344 C 47.332031 -35.652344 48.953125 -35.28125 50.476562 -34.542969 C 52.214844 -33.703125 53.628906 -32.480469 54.730469 -30.886719 C 56.078125 -28.921875 56.753906 -26.660156 56.753906 -24.105469 C 56.753906 -22.109375 56.339844 -19.105469 55.511719 -15.089844 C 54.878906 -11.839844 54.5625 -9.785156 54.5625 -8.929688 C 54.5625 -8.429688 54.589844 -8.085938 54.648438 -7.902344 C 54.566406 -8.164062 54.390625 -8.449219 54.113281 -8.765625 C 53.707031 -9.226562 53.238281 -9.558594 52.710938 -9.761719 C 52.582031 -9.8125 52.480469 -9.839844 52.398438 -9.855469 C 52.453125 -9.847656 52.546875 -9.839844 52.675781 -9.839844 C 53.964844 -9.839844 55.074219 -10.160156 56.003906 -10.800781 C 57.871094 -12.082031 59.652344 -13.769531 61.355469 -15.871094 L 61.558594 -16.113281 C 61.132812 -15.621094 60.839844 -15.105469 60.675781 -14.570312 C 60.636719 -14.449219 60.613281 -14.351562 60.605469 -14.273438 C 60.609375 -14.304688 60.609375 -14.359375 60.609375 -14.449219 C 60.609375 -14.25 60.644531 -14 60.710938 -13.699219 C 60.867188 -13.019531 61.148438 -12.351562 61.558594 -11.695312 C 62.246094 -10.59375 63.175781 -9.699219 64.351562 -9.011719 C 65.671875 -8.238281 67.082031 -7.851562 68.585938 -7.851562 C 69.84375 -7.851562 71.03125 -8.140625 72.144531 -8.71875 C 72.957031 -9.140625 73.660156 -9.695312 74.253906 -10.390625 C 71.441406 -7.027344 69.105469 -4.519531 67.242188 -2.859375 C 63.8125 0.195312 60.257812 1.726562 56.570312 1.726562 C 54.683594 1.726562 52.914062 1.34375 51.261719 0.585938 C 49.339844 -0.296875 47.757812 -1.597656 46.511719 -3.320312 C 44.816406 -5.652344 43.972656 -8.472656 43.972656 -11.769531 C 43.972656 -14.019531 44.5625 -17.851562 45.742188 -23.261719 C 46.78125 -28.070312 47.296875 -31.164062 47.296875 -32.546875 C 47.296875 -32.316406 47.363281 -32.007812 47.496094 -31.613281 C 47.785156 -30.746094 48.28125 -29.957031 48.980469 -29.257812 C 49.683594 -28.558594 50.46875 -28.0625 51.335938 -27.773438 C 51.730469 -27.640625 52.039062 -27.574219 52.269531 -27.574219 C 52.410156 -27.574219 52.519531 -27.585938 52.605469 -27.609375 C 52.550781 -27.59375 52.457031 -27.554688 52.324219 -27.488281 C 51.664062 -27.164062 50.871094 -26.578125 49.949219 -25.730469 C 47.777344 -23.738281 45.628906 -20.125 43.5 -14.890625 L 23.898438 -20.433594 C 24.09375 -21.589844 24.429688 -23.242188 24.90625 -25.394531 C 25.375 -27.464844 25.722656 -29.183594 25.945312 -30.550781 C 26.113281 -31.570312 26.195312 -32.238281 26.195312 -32.546875 C 26.195312 -32.570312 26.195312 -32.585938 26.195312 -32.59375 C 26.195312 -32.574219 26.199219 -32.550781 26.203125 -32.519531 C 26.222656 -32.355469 26.261719 -32.175781 26.324219 -31.972656 C 26.570312 -31.140625 27.019531 -30.363281 27.671875 -29.644531 C 28.503906 -28.722656 29.457031 -28.09375 30.523438 -27.746094 C 30.773438 -27.667969 31 -27.613281 31.203125 -27.585938 C 31.246094 -27.578125 31.277344 -27.574219 31.300781 -27.574219 C 31.292969 -27.574219 31.273438 -27.574219 31.25 -27.574219 C 31.480469 -27.574219 31.648438 -27.59375 31.75 -27.628906 C 31.550781 -27.558594 31.269531 -27.402344 30.910156 -27.164062 C 29.84375 -26.445312 28.664062 -25.15625 27.367188 -23.292969 C 25.875 -21.144531 24.554688 -18.402344 23.402344 -15.074219 L 3.511719 -19.351562 C 3.761719 -22.109375 4.085938 -24.46875 4.488281 -26.433594 C 4.839844 -28.175781 5.324219 -30.261719 5.929688 -32.683594 C 6.285156 -34.011719 6.542969 -35.070312 6.707031 -35.855469 C 6.765625 -36.132812 6.804688 -36.34375 6.824219 -36.484375 C 6.808594 -36.351562 6.796875 -36.148438 6.796875 -35.875 C 6.796875 -34.875 7.011719 -33.867188 7.4375 -32.851562 C 8.167969 -31.113281 9.34375 -29.738281 10.964844 -28.726562 C 11.867188 -28.164062 12.78125 -27.796875 13.699219 -27.632812 C 13.859375 -27.605469 14 -27.585938 14.121094 -27.578125 L 14.121094 -27.574219 C 13.972656 -27.574219 13.847656 -27.570312 13.75 -27.5625 C 13.734375 -27.558594 13.722656 -27.558594 13.71875 -27.558594 C 13.738281 -27.558594 13.765625 -27.566406 13.796875 -27.574219 C 14.199219 -27.667969 14.632812 -27.867188 15.089844 -28.167969 C 15.640625 -28.53125 16.089844 -28.964844 16.441406 -29.472656 C 16.644531 -29.765625 16.773438 -30 16.832031 -30.1875 C 15.148438 -24.863281 14.304688 -19.210938 14.304688 -13.230469 C 14.304688 -11.261719 14.386719 -9.617188 14.546875 -8.292969 C 14.652344 -7.410156 14.761719 -6.828125 14.871094 -6.542969 C 14.582031 -7.289062 14.015625 -7.980469 13.167969 -8.613281 C 12.070312 -9.433594 10.902344 -9.839844 9.660156 -9.839844 Z M 9.660156 -9.839844 "/></g></g></g><g fill="#ffffff" fill-opacity="1"><g transform="translate(201.73237, 108.374996)"><g><path d="M 13.878906 10.652344 C 10.722656 10.652344 7.800781 10.042969 5.113281 8.820312 C 2.332031 7.558594 -0.0625 5.703125 -2.070312 3.261719 C -5.628906 -1.0625 -7.40625 -6.425781 -7.40625 -12.824219 C -7.40625 -18.816406 -6.023438 -24.484375 -3.257812 -29.832031 C -0.492188 -35.175781 3.234375 -39.507812 7.921875 -42.820312 C 13.023438 -46.429688 18.523438 -48.234375 24.429688 -48.234375 C 28.703125 -48.234375 32.0625 -46.847656 34.507812 -44.074219 C 36.066406 -42.308594 37.175781 -39.980469 37.832031 -37.089844 L 27.839844 -34.820312 L 25.921875 -44.886719 C 27.691406 -45.222656 29.523438 -45.390625 31.410156 -45.390625 C 34.925781 -45.390625 37.90625 -44.519531 40.351562 -42.773438 C 42.140625 -41.492188 43.5 -39.863281 44.425781 -37.878906 C 45.230469 -36.152344 45.636719 -34.292969 45.636719 -32.304688 C 45.636719 -30.523438 45.167969 -27.183594 44.238281 -22.277344 C 43.113281 -16.652344 42.550781 -12.960938 42.550781 -11.199219 C 42.550781 -11.835938 42.445312 -12.492188 42.238281 -13.160156 C 41.933594 -14.132812 41.449219 -15.015625 40.785156 -15.8125 C 40 -16.753906 39.042969 -17.484375 37.90625 -18.007812 C 36.808594 -18.515625 35.671875 -18.769531 34.496094 -18.769531 C 33.304688 -18.769531 32.265625 -18.535156 31.382812 -18.0625 C 31.257812 -17.996094 31.164062 -17.941406 31.105469 -17.898438 C 31.160156 -17.9375 31.238281 -18.003906 31.34375 -18.101562 C 32.457031 -19.109375 34.105469 -20.921875 36.292969 -23.539062 C 37.535156 -24.988281 38.929688 -26.113281 40.472656 -26.914062 C 42.316406 -27.867188 44.273438 -28.347656 46.34375 -28.347656 C 48.550781 -28.347656 50.589844 -27.796875 52.464844 -26.699219 C 54.195312 -25.6875 55.605469 -24.308594 56.699219 -22.558594 C 58.144531 -20.246094 58.863281 -17.542969 58.863281 -14.449219 C 58.863281 -9.742188 57.519531 -5.832031 54.832031 -2.71875 L 47.074219 -9.414062 L 55.0625 -2.996094 C 52.320312 0.414062 49.371094 3.320312 46.21875 5.71875 C 41.898438 9.007812 37.421875 10.652344 32.789062 10.652344 C 28.566406 10.652344 24.765625 9.273438 21.390625 6.511719 C 18.4375 4.09375 16.265625 0.941406 14.867188 -2.949219 L 24.511719 -6.410156 L 33.226562 -1.019531 C 31 2.574219 28.351562 5.355469 25.273438 7.328125 C 21.816406 9.542969 18.019531 10.652344 13.878906 10.652344 Z M 13.878906 -9.839844 C 14.015625 -9.839844 14.125 -9.871094 14.210938 -9.925781 C 14.679688 -10.222656 15.207031 -10.851562 15.800781 -11.804688 L 26.980469 -29.867188 L 34.15625 -9.875 C 34.246094 -9.625 34.332031 -9.4375 34.417969 -9.3125 L 34.425781 -9.296875 C 34.410156 -9.316406 34.390625 -9.332031 34.371094 -9.351562 C 34.234375 -9.460938 34.042969 -9.5625 33.796875 -9.65625 C 33.460938 -9.78125 33.128906 -9.839844 32.789062 -9.839844 C 32.695312 -9.839844 32.613281 -9.835938 32.542969 -9.820312 C 32.53125 -9.816406 32.523438 -9.816406 32.519531 -9.816406 C 32.539062 -9.820312 32.5625 -9.828125 32.589844 -9.839844 C 32.914062 -9.96875 33.320312 -10.21875 33.808594 -10.589844 C 35.632812 -11.976562 37.394531 -13.726562 39.089844 -15.835938 L 39.203125 -15.976562 L 39.320312 -16.113281 C 38.894531 -15.621094 38.597656 -15.105469 38.433594 -14.570312 C 38.398438 -14.449219 38.375 -14.351562 38.363281 -14.273438 C 38.367188 -14.304688 38.371094 -14.359375 38.371094 -14.449219 C 38.371094 -14.25 38.40625 -14 38.472656 -13.699219 C 38.628906 -13.019531 38.910156 -12.351562 39.320312 -11.695312 C 40.007812 -10.59375 40.9375 -9.699219 42.113281 -9.011719 C 43.433594 -8.238281 44.84375 -7.851562 46.34375 -7.851562 C 47.605469 -7.851562 48.792969 -8.140625 49.90625 -8.71875 C 50.71875 -9.140625 51.421875 -9.695312 52.015625 -10.390625 C 49.222656 -7.050781 46.925781 -4.5625 45.113281 -2.921875 C 41.699219 0.175781 38.160156 1.726562 34.496094 1.726562 C 32.671875 1.726562 30.945312 1.351562 29.316406 0.597656 C 27.65625 -0.167969 26.230469 -1.265625 25.039062 -2.691406 C 23.050781 -5.078125 22.054688 -7.914062 22.054688 -11.199219 C 22.054688 -14.3125 22.738281 -19.277344 24.101562 -26.097656 C 24.484375 -28.105469 24.765625 -29.71875 24.949219 -30.941406 C 25.027344 -31.472656 25.085938 -31.902344 25.121094 -32.234375 C 25.132812 -32.339844 25.140625 -32.425781 25.144531 -32.484375 C 25.140625 -32.449219 25.140625 -32.386719 25.140625 -32.304688 C 25.140625 -31.261719 25.378906 -30.230469 25.851562 -29.214844 C 26.445312 -27.941406 27.308594 -26.902344 28.4375 -26.09375 C 29.195312 -25.554688 29.972656 -25.191406 30.777344 -25 C 31.058594 -24.929688 31.273438 -24.898438 31.410156 -24.898438 C 30.8125 -24.898438 30.261719 -24.847656 29.757812 -24.753906 L 20.039062 -22.902344 L 17.847656 -32.546875 C 17.832031 -32.613281 17.820312 -32.65625 17.8125 -32.679688 C 17.832031 -32.621094 17.863281 -32.542969 17.902344 -32.445312 C 18.167969 -31.792969 18.582031 -31.148438 19.140625 -30.515625 C 20.253906 -29.253906 21.570312 -28.402344 23.085938 -27.964844 C 23.613281 -27.8125 24.0625 -27.738281 24.429688 -27.738281 C 22.867188 -27.738281 21.3125 -27.1875 19.757812 -26.089844 C 17.785156 -24.695312 16.183594 -22.800781 14.945312 -20.410156 C 13.707031 -18.019531 13.089844 -15.488281 13.089844 -12.824219 C 13.089844 -11.320312 13.3125 -10.300781 13.757812 -9.753906 C 13.777344 -9.730469 13.792969 -9.714844 13.804688 -9.703125 C 13.796875 -9.710938 13.789062 -9.71875 13.777344 -9.726562 C 13.722656 -9.769531 13.664062 -9.804688 13.59375 -9.835938 C 13.554688 -9.855469 13.527344 -9.863281 13.515625 -9.867188 C 13.601562 -9.851562 13.722656 -9.839844 13.878906 -9.839844 Z M 16.800781 -18.039062 C 15.453125 -18.039062 14.238281 -17.703125 13.152344 -17.03125 C 12.660156 -16.726562 12.304688 -16.433594 12.085938 -16.148438 C 12.074219 -16.132812 12.066406 -16.121094 12.058594 -16.109375 C 12.058594 -16.109375 12.058594 -16.113281 12.0625 -16.121094 C 12.09375 -16.171875 12.125 -16.242188 12.164062 -16.328125 C 12.300781 -16.65625 12.425781 -17.082031 12.535156 -17.601562 L 15.519531 -32.457031 L 25.566406 -30.4375 L 25.8125 -20.191406 C 25.925781 -20.195312 26.039062 -20.21875 26.148438 -20.265625 C 26.164062 -20.269531 26.175781 -20.273438 26.183594 -20.28125 C 26.183594 -20.277344 26.175781 -20.277344 26.167969 -20.269531 C 26.109375 -20.234375 26.039062 -20.179688 25.953125 -20.109375 C 25.257812 -19.507812 24.652344 -18.597656 24.140625 -17.378906 C 23.535156 -15.941406 23.234375 -14.398438 23.234375 -12.742188 L 23.230469 -12.746094 C 23.210938 -12.890625 23.179688 -13.054688 23.128906 -13.238281 C 22.90625 -14.054688 22.488281 -14.832031 21.875 -15.570312 C 21.171875 -16.410156 20.3125 -17.050781 19.292969 -17.492188 C 18.457031 -17.855469 17.625 -18.039062 16.800781 -18.039062 Z M 16.800781 2.457031 C 14.785156 2.457031 12.890625 2.070312 11.121094 1.300781 C 9.167969 0.453125 7.503906 -0.796875 6.128906 -2.449219 C 3.867188 -5.160156 2.738281 -8.59375 2.738281 -12.742188 C 2.738281 -17.148438 3.574219 -21.339844 5.242188 -25.316406 C 7.003906 -29.507812 9.457031 -32.953125 12.597656 -35.652344 C 16.371094 -38.894531 20.613281 -40.570312 25.324219 -40.679688 L 38.140625 -40.988281 L 32.59375 -13.402344 C 31.785156 -9.546875 30.367188 -6.296875 28.332031 -3.652344 C 27.03125 -1.964844 25.566406 -0.613281 23.941406 0.394531 C 21.71875 1.769531 19.339844 2.457031 16.800781 2.457031 Z M 16.800781 2.457031 "/></g></g></g><g fill="#ffffff" fill-opacity="1"><g transform="translate(239.879451, 108.374996)"><g><path d="M 40.09375 -28.347656 C 42.300781 -28.347656 44.339844 -27.796875 46.214844 -26.699219 C 47.945312 -25.6875 49.355469 -24.308594 50.449219 -22.558594 C 51.894531 -20.246094 52.617188 -17.542969 52.617188 -14.449219 C 52.617188 -9.742188 51.269531 -5.832031 48.582031 -2.71875 L 40.824219 -9.414062 L 48.742188 -2.90625 C 45.925781 0.515625 42.136719 3.566406 37.371094 6.25 C 32.160156 9.1875 26.574219 10.652344 20.617188 10.652344 C 16.613281 10.652344 12.964844 10.078125 9.664062 8.921875 C 6.015625 7.648438 2.863281 5.703125 0.203125 3.089844 C -2.449219 0.480469 -4.433594 -2.59375 -5.75 -6.128906 C -6.960938 -9.390625 -7.570312 -12.976562 -7.570312 -16.882812 C -7.570312 -22.191406 -6.4375 -27.164062 -4.179688 -31.800781 C -1.8125 -36.65625 1.515625 -40.542969 5.804688 -43.457031 C 10.332031 -46.53125 15.402344 -48.070312 21.023438 -48.070312 C 23.816406 -48.070312 26.417969 -47.625 28.828125 -46.730469 C 31.460938 -45.753906 33.773438 -44.285156 35.765625 -42.320312 C 37.785156 -40.328125 39.296875 -37.996094 40.296875 -35.316406 C 41.203125 -32.894531 41.660156 -30.265625 41.660156 -27.433594 C 41.660156 -24.199219 41.058594 -21.144531 39.863281 -18.277344 C 38.671875 -15.433594 36.933594 -12.863281 34.640625 -10.570312 C 30.613281 -6.542969 24.480469 -3.515625 16.242188 -1.492188 L 13.796875 -11.445312 L 22.800781 -16.335938 C 22.429688 -17.023438 21.898438 -17.53125 21.207031 -17.867188 C 21.050781 -17.941406 20.9375 -17.984375 20.863281 -18 C 21.007812 -17.972656 21.222656 -17.957031 21.507812 -17.957031 C 21.699219 -17.957031 22 -18.019531 22.40625 -18.144531 C 23.125 -18.367188 23.960938 -18.738281 24.90625 -19.253906 C 26.863281 -20.328125 28.558594 -21.734375 29.992188 -23.476562 C 31.269531 -24.96875 32.679688 -26.113281 34.222656 -26.914062 C 36.066406 -27.867188 38.023438 -28.347656 40.09375 -28.347656 Z M 40.09375 -7.851562 C 41.355469 -7.851562 42.542969 -8.140625 43.65625 -8.71875 C 44.46875 -9.140625 45.1875 -9.71875 45.8125 -10.449219 C 42.703125 -6.671875 39.015625 -3.617188 34.75 -1.28125 C 30.105469 1.265625 25.691406 2.535156 21.507812 2.535156 C 18.046875 2.535156 14.96875 1.882812 12.273438 0.578125 C 9.011719 -1 6.519531 -3.378906 4.792969 -6.550781 L -1.550781 -18.226562 L 11.351562 -21.394531 C 13.886719 -22.019531 15.984375 -22.71875 17.636719 -23.492188 C 18.816406 -24.046875 19.65625 -24.570312 20.148438 -25.0625 C 20.53125 -25.449219 20.800781 -25.820312 20.949219 -26.179688 C 21.09375 -26.519531 21.164062 -26.9375 21.164062 -27.433594 C 21.164062 -27.792969 21.144531 -28.027344 21.105469 -28.132812 C 21.160156 -27.984375 21.25 -27.851562 21.375 -27.726562 C 21.472656 -27.628906 21.582031 -27.558594 21.699219 -27.515625 C 21.589844 -27.554688 21.363281 -27.574219 21.023438 -27.574219 C 19.605469 -27.574219 18.375 -27.21875 17.324219 -26.507812 C 16.042969 -25.636719 15.015625 -24.40625 14.242188 -22.824219 C 13.363281 -21.019531 12.925781 -19.039062 12.925781 -16.882812 C 12.925781 -14.390625 13.472656 -12.605469 14.570312 -11.527344 C 15.714844 -10.402344 17.730469 -9.839844 20.617188 -9.839844 C 22.992188 -9.839844 25.226562 -10.429688 27.316406 -11.609375 C 29.855469 -13.039062 31.71875 -14.476562 32.910156 -15.921875 L 32.988281 -16.019531 L 33.070312 -16.113281 C 32.644531 -15.621094 32.347656 -15.105469 32.183594 -14.570312 C 32.148438 -14.449219 32.125 -14.351562 32.113281 -14.273438 C 32.117188 -14.304688 32.121094 -14.359375 32.121094 -14.449219 C 32.121094 -14.25 32.15625 -14 32.222656 -13.699219 C 32.378906 -13.019531 32.660156 -12.351562 33.070312 -11.695312 C 33.757812 -10.59375 34.6875 -9.699219 35.863281 -9.011719 C 37.183594 -8.238281 38.59375 -7.851562 40.09375 -7.851562 Z M 19.640625 -19.621094 C 20.765625 -19.621094 21.777344 -19.933594 22.679688 -20.554688 C 22.957031 -20.742188 23.179688 -20.9375 23.355469 -21.136719 C 23.390625 -21.175781 23.414062 -21.207031 23.433594 -21.230469 C 23.421875 -21.214844 23.40625 -21.191406 23.382812 -21.152344 C 22.957031 -20.4375 22.746094 -19.363281 22.746094 -17.9375 L 22.746094 -17.773438 L 12.5 -17.773438 L 10.132812 -27.746094 C 11.785156 -28.136719 12.917969 -28.585938 13.535156 -29.09375 C 13.382812 -28.972656 13.21875 -28.738281 13.039062 -28.390625 C 12.71875 -27.78125 12.558594 -27.136719 12.558594 -26.460938 C 12.558594 -25.832031 12.675781 -25.183594 12.90625 -24.515625 C 13.222656 -23.589844 13.71875 -22.757812 14.386719 -22.027344 C 15.152344 -21.191406 16.0625 -20.558594 17.117188 -20.132812 C 17.960938 -19.792969 18.800781 -19.621094 19.640625 -19.621094 Z M 19.640625 -40.117188 C 21.457031 -40.117188 23.167969 -39.789062 24.785156 -39.136719 C 26.613281 -38.402344 28.191406 -37.304688 29.523438 -35.84375 C 30.761719 -34.488281 31.679688 -32.9375 32.285156 -31.183594 C 32.796875 -29.691406 33.054688 -28.117188 33.054688 -26.460938 C 33.054688 -23.78125 32.4375 -21.257812 31.199219 -18.890625 C 30.097656 -16.785156 28.550781 -14.910156 26.5625 -13.273438 C 23.5 -10.75 19.601562 -8.929688 14.867188 -7.804688 L 2.253906 -4.8125 L 2.253906 -17.9375 C 2.253906 -23.113281 3.417969 -27.667969 5.753906 -31.605469 C 7.210938 -34.0625 8.980469 -36.003906 11.0625 -37.4375 C 13.660156 -39.222656 16.519531 -40.117188 19.640625 -40.117188 Z M 19.640625 -40.117188 "/></g></g></g><g fill="#ffffff" fill-opacity="1"><g transform="translate(271.776903, 108.374996)"><g><path d="M 34.65625 -28.347656 C 36.863281 -28.347656 38.902344 -27.796875 40.777344 -26.699219 C 42.507812 -25.6875 43.917969 -24.308594 45.011719 -22.558594 C 46.457031 -20.246094 47.175781 -17.542969 47.175781 -14.449219 C 47.175781 -9.742188 45.832031 -5.832031 43.144531 -2.71875 L 35.386719 -9.414062 L 43.34375 -2.957031 C 40.375 0.703125 37.101562 3.738281 33.523438 6.148438 C 29.058594 9.152344 24.054688 10.652344 18.503906 10.652344 C 14.199219 10.652344 10.339844 9.609375 6.929688 7.519531 C 3.578125 5.464844 0.886719 2.53125 -1.136719 -1.28125 C -4.234375 -7.113281 -5.785156 -14.316406 -5.785156 -22.886719 C -5.785156 -30.171875 -4.863281 -38.371094 -3.023438 -47.480469 C -1.113281 -56.945312 1.757812 -65.164062 5.585938 -72.136719 C 7.945312 -76.429688 10.6875 -79.773438 13.8125 -82.164062 C 17.632812 -85.082031 21.847656 -86.542969 26.460938 -86.542969 C 29.621094 -86.542969 32.515625 -85.769531 35.144531 -84.21875 C 37.621094 -82.761719 39.671875 -80.710938 41.304688 -78.070312 C 43.8125 -74.011719 45.066406 -68.765625 45.066406 -62.335938 C 45.066406 -54.519531 43.015625 -45.726562 38.910156 -35.960938 C 35.027344 -26.722656 29.789062 -17.613281 23.195312 -8.628906 L 14.933594 -14.691406 L 25.035156 -16.414062 C 25.105469 -16 25.167969 -15.726562 25.222656 -15.589844 C 25.070312 -15.976562 24.785156 -16.398438 24.363281 -16.855469 C 23.777344 -17.5 23.070312 -17.992188 22.242188 -18.335938 C 21.550781 -18.625 20.871094 -18.769531 20.210938 -18.769531 C 20.246094 -18.769531 20.269531 -18.769531 20.277344 -18.773438 C 20.242188 -18.765625 20.203125 -18.757812 20.15625 -18.742188 C 20.039062 -18.703125 19.941406 -18.652344 19.863281 -18.597656 C 20.933594 -19.40625 22.519531 -21.0625 24.628906 -23.5625 C 25.855469 -24.996094 27.238281 -26.113281 28.785156 -26.914062 C 30.628906 -27.867188 32.585938 -28.347656 34.65625 -28.347656 Z M 34.65625 -7.851562 C 35.917969 -7.851562 37.105469 -8.140625 38.21875 -8.71875 C 39.03125 -9.140625 39.726562 -9.6875 40.304688 -10.363281 C 37.214844 -6.695312 34.53125 -3.996094 32.246094 -2.261719 C 28.738281 0.394531 24.726562 1.726562 20.210938 1.726562 C 18.140625 1.726562 16.191406 1.34375 14.363281 0.582031 C 12.398438 -0.234375 10.691406 -1.441406 9.238281 -3.027344 C 7.019531 -5.457031 5.550781 -8.769531 4.832031 -12.964844 L 4.101562 -17.25 L 6.671875 -20.753906 C 12.308594 -28.4375 16.757812 -36.152344 20.015625 -43.90625 C 23.054688 -51.128906 24.574219 -57.273438 24.574219 -62.335938 C 24.574219 -63.851562 24.464844 -65.117188 24.246094 -66.128906 C 24.121094 -66.703125 23.996094 -67.09375 23.871094 -67.296875 C 23.894531 -67.253906 23.953125 -67.191406 24.039062 -67.101562 C 24.234375 -66.902344 24.464844 -66.722656 24.738281 -66.5625 C 25.320312 -66.21875 25.894531 -66.046875 26.460938 -66.046875 C 26.484375 -66.046875 26.511719 -66.054688 26.546875 -66.066406 C 26.492188 -66.046875 26.398438 -65.984375 26.261719 -65.882812 C 25.425781 -65.242188 24.519531 -64.039062 23.550781 -62.273438 C 20.726562 -57.125 18.5625 -50.84375 17.066406 -43.425781 C 15.496094 -35.652344 14.710938 -28.808594 14.710938 -22.886719 C 14.710938 -17.71875 15.460938 -13.722656 16.964844 -10.894531 C 17.238281 -10.375 17.464844 -10.0625 17.640625 -9.953125 C 17.765625 -9.878906 18.050781 -9.839844 18.503906 -9.839844 C 19.882812 -9.839844 21.074219 -10.179688 22.074219 -10.855469 C 23.960938 -12.125 25.746094 -13.796875 27.429688 -15.871094 L 27.632812 -16.113281 C 27.207031 -15.621094 26.910156 -15.105469 26.746094 -14.570312 C 26.710938 -14.449219 26.6875 -14.351562 26.675781 -14.273438 C 26.679688 -14.304688 26.683594 -14.359375 26.683594 -14.449219 C 26.683594 -14.25 26.71875 -14 26.785156 -13.699219 C 26.941406 -13.019531 27.222656 -12.351562 27.632812 -11.695312 C 28.320312 -10.59375 29.25 -9.699219 30.425781 -9.011719 C 31.746094 -8.238281 33.15625 -7.851562 34.65625 -7.851562 Z M 24.675781 -58.011719 C 25.945312 -58.011719 27.15625 -58.261719 28.300781 -58.765625 C 29.058594 -59.09375 29.734375 -59.511719 30.332031 -60.019531 C 30.8125 -60.425781 31.15625 -60.796875 31.371094 -61.136719 C 31.074219 -60.660156 30.660156 -59.664062 30.128906 -58.144531 C 28.738281 -54.167969 27.496094 -49.117188 26.402344 -43 C 25.308594 -36.878906 24.710938 -31.035156 24.613281 -25.46875 L 14.367188 -25.648438 L 5.605469 -30.964844 C 9.089844 -36.703125 11.847656 -42.425781 13.886719 -48.128906 C 15.761719 -53.375 16.699219 -58.027344 16.699219 -62.089844 C 16.699219 -62.703125 16.675781 -63.183594 16.632812 -63.539062 C 16.628906 -63.585938 16.625 -63.621094 16.617188 -63.652344 L 16.621094 -63.636719 C 16.648438 -63.507812 16.699219 -63.351562 16.761719 -63.175781 C 17.15625 -62.113281 17.832031 -61.144531 18.792969 -60.277344 C 19.585938 -59.558594 20.492188 -59 21.503906 -58.609375 C 22.527344 -58.210938 23.585938 -58.011719 24.675781 -58.011719 Z M 24.675781 -78.507812 C 26.140625 -78.507812 27.554688 -78.242188 28.910156 -77.71875 C 30.253906 -77.195312 31.464844 -76.449219 32.542969 -75.472656 C 34.074219 -74.089844 35.222656 -72.351562 35.996094 -70.261719 C 36.792969 -68.089844 37.195312 -65.367188 37.195312 -62.089844 C 37.195312 -55.660156 35.859375 -48.707031 33.1875 -41.230469 C 30.679688 -34.222656 27.328125 -27.253906 23.125 -20.332031 L 3.449219 12.09375 L 4.121094 -25.828125 C 4.238281 -32.488281 4.941406 -39.414062 6.226562 -46.605469 C 7.511719 -53.800781 9.03125 -59.898438 10.78125 -64.902344 C 11.816406 -67.871094 12.890625 -70.242188 14 -72.015625 C 14.917969 -73.476562 15.945312 -74.691406 17.085938 -75.660156 C 19.328125 -77.558594 21.859375 -78.507812 24.675781 -78.507812 Z M 24.675781 -78.507812 "/></g></g></g><g fill="#ffffff" fill-opacity="1"><g transform="translate(298.236363, 108.374996)"><g><path d="M 14.527344 -32.933594 C 9.574219 -32.933594 5.542969 -34.371094 2.441406 -37.253906 C 0.714844 -38.855469 -0.574219 -40.761719 -1.425781 -42.976562 C -2.167969 -44.898438 -2.535156 -46.96875 -2.535156 -49.1875 C -2.535156 -51.660156 -2.027344 -53.980469 -1.003906 -56.152344 C -0.0078125 -58.277344 1.421875 -60.132812 3.285156 -61.722656 C 5.019531 -63.207031 6.964844 -64.316406 9.125 -65.058594 C 11.128906 -65.746094 13.253906 -66.089844 15.503906 -66.089844 C 19.859375 -66.089844 23.589844 -64.875 26.6875 -62.449219 C 28.636719 -60.925781 30.109375 -59.050781 31.113281 -56.828125 C 32.027344 -54.796875 32.488281 -52.601562 32.488281 -50.242188 C 32.488281 -47.816406 32.054688 -45.550781 31.195312 -43.445312 C 30.253906 -41.148438 28.855469 -39.164062 27 -37.484375 C 25.25 -35.90625 23.246094 -34.726562 20.976562 -33.957031 C 18.972656 -33.273438 16.824219 -32.933594 14.527344 -32.933594 Z M 14.527344 -53.425781 C 14.59375 -53.425781 14.636719 -53.429688 14.652344 -53.429688 C 14.574219 -53.417969 14.480469 -53.394531 14.371094 -53.355469 C 13.96875 -53.21875 13.597656 -53 13.257812 -52.6875 C 12.808594 -52.285156 12.464844 -51.792969 12.226562 -51.210938 C 12.070312 -50.828125 11.992188 -50.503906 11.992188 -50.242188 C 11.992188 -49.664062 12.136719 -49.050781 12.429688 -48.402344 C 12.8125 -47.558594 13.355469 -46.859375 14.058594 -46.3125 C 14.449219 -46.003906 14.855469 -45.789062 15.277344 -45.660156 C 15.390625 -45.628906 15.484375 -45.605469 15.570312 -45.59375 L 15.582031 -45.59375 C 15.5625 -45.59375 15.535156 -45.59375 15.503906 -45.59375 L 15.488281 -45.597656 C 15.574219 -45.609375 15.667969 -45.636719 15.773438 -45.671875 C 16.078125 -45.777344 16.355469 -45.933594 16.601562 -46.144531 C 16.972656 -46.464844 17.289062 -46.894531 17.542969 -47.433594 C 17.820312 -48.023438 17.957031 -48.605469 17.957031 -49.1875 C 17.957031 -49.507812 17.871094 -49.894531 17.699219 -50.34375 C 17.414062 -51.082031 16.976562 -51.722656 16.386719 -52.273438 C 15.816406 -52.804688 15.210938 -53.167969 14.574219 -53.363281 C 14.453125 -53.402344 14.351562 -53.425781 14.277344 -53.4375 C 14.328125 -53.429688 14.410156 -53.425781 14.527344 -53.425781 Z M 13.878906 10.652344 C 10.546875 10.652344 7.53125 9.996094 4.839844 8.6875 C 1.835938 7.222656 -0.582031 5.0625 -2.417969 2.203125 C -5.09375 -1.96875 -6.433594 -7.113281 -6.433594 -13.230469 C -6.433594 -16.21875 -6.078125 -19.894531 -5.367188 -24.253906 C -4.675781 -28.492188 -3.78125 -32.464844 -2.6875 -36.179688 C -1.628906 -39.9375 0.164062 -42.828125 2.6875 -44.851562 C 5.371094 -46.996094 8.804688 -48.070312 12.988281 -48.070312 C 16.433594 -48.070312 19.363281 -47.265625 21.773438 -45.660156 C 23.628906 -44.421875 25.046875 -42.820312 26.03125 -40.851562 C 26.925781 -39.066406 27.375 -37.136719 27.375 -35.0625 C 27.375 -33.003906 26.785156 -29.167969 25.613281 -23.554688 C 24.460938 -18.261719 23.882812 -14.929688 23.882812 -13.554688 C 23.882812 -13.332031 23.886719 -13.199219 23.894531 -13.160156 C 23.832031 -13.523438 23.683594 -13.941406 23.449219 -14.402344 C 22.769531 -15.769531 21.746094 -16.855469 20.382812 -17.664062 C 19.136719 -18.402344 17.835938 -18.769531 16.476562 -18.769531 C 15.191406 -18.769531 14.082031 -18.507812 13.144531 -17.988281 C 13.027344 -17.921875 12.941406 -17.871094 12.890625 -17.832031 C 12.957031 -17.882812 13.050781 -17.960938 13.167969 -18.070312 C 14.304688 -19.125 15.949219 -20.941406 18.101562 -23.523438 C 19.351562 -24.984375 20.746094 -26.113281 22.289062 -26.914062 C 24.132812 -27.867188 26.09375 -28.347656 28.164062 -28.347656 C 30.367188 -28.347656 32.410156 -27.796875 34.285156 -26.699219 C 36.011719 -25.6875 37.425781 -24.308594 38.519531 -22.558594 C 39.960938 -20.246094 40.683594 -17.542969 40.683594 -14.449219 C 40.683594 -9.742188 39.339844 -5.832031 36.648438 -2.71875 L 28.894531 -9.414062 L 36.824219 -2.925781 C 29.417969 6.125 21.769531 10.652344 13.878906 10.652344 Z M 13.878906 -9.839844 C 13.917969 -9.839844 14.003906 -9.867188 14.144531 -9.914062 C 14.53125 -10.042969 14.988281 -10.28125 15.515625 -10.625 C 17.136719 -11.6875 18.953125 -13.445312 20.964844 -15.902344 L 21.050781 -16.007812 L 21.140625 -16.113281 C 20.714844 -15.621094 20.417969 -15.105469 20.253906 -14.570312 C 20.21875 -14.449219 20.195312 -14.351562 20.183594 -14.273438 C 20.1875 -14.304688 20.191406 -14.359375 20.191406 -14.449219 C 20.191406 -14.25 20.222656 -14 20.292969 -13.699219 C 20.445312 -13.019531 20.730469 -12.351562 21.136719 -11.695312 C 21.828125 -10.59375 22.757812 -9.699219 23.929688 -9.011719 C 25.253906 -8.238281 26.664062 -7.851562 28.164062 -7.851562 C 29.425781 -7.851562 30.609375 -8.140625 31.726562 -8.71875 C 32.539062 -9.140625 33.246094 -9.703125 33.84375 -10.402344 C 31.128906 -7.140625 28.875 -4.683594 27.089844 -3.03125 C 23.664062 0.140625 20.128906 1.726562 16.476562 1.726562 C 14.089844 1.726562 11.910156 1.140625 9.933594 -0.03125 C 7.839844 -1.273438 6.234375 -3.007812 5.121094 -5.238281 C 3.964844 -7.546875 3.386719 -10.320312 3.386719 -13.554688 C 3.386719 -16.402344 4.109375 -21.128906 5.550781 -27.742188 C 6.035156 -30.058594 6.394531 -31.929688 6.628906 -33.351562 C 6.730469 -33.972656 6.804688 -34.480469 6.847656 -34.878906 C 6.863281 -35.015625 6.875 -35.121094 6.878906 -35.203125 L 6.882812 -35.207031 C 6.878906 -35.164062 6.878906 -35.117188 6.878906 -35.0625 C 6.878906 -33.910156 7.152344 -32.785156 7.703125 -31.6875 C 8.339844 -30.410156 9.242188 -29.382812 10.40625 -28.605469 C 11.125 -28.128906 11.847656 -27.808594 12.574219 -27.648438 C 12.730469 -27.613281 12.867188 -27.589844 12.984375 -27.578125 L 12.988281 -27.574219 C 12.898438 -27.574219 12.839844 -27.574219 12.8125 -27.570312 C 12.902344 -27.582031 13.019531 -27.601562 13.160156 -27.636719 C 13.957031 -27.835938 14.734375 -28.242188 15.492188 -28.847656 C 16.160156 -29.378906 16.65625 -29.953125 16.992188 -30.5625 C 17.039062 -30.648438 17.070312 -30.714844 17.089844 -30.761719 C 17.066406 -30.703125 17.027344 -30.574219 16.972656 -30.378906 C 16.117188 -27.488281 15.414062 -24.347656 14.863281 -20.953125 C 14.328125 -17.6875 14.0625 -15.109375 14.0625 -13.230469 C 14.0625 -11.988281 14.164062 -10.9375 14.375 -10.078125 C 14.503906 -9.542969 14.65625 -9.136719 14.835938 -8.859375 C 14.597656 -9.230469 14.253906 -9.523438 13.808594 -9.742188 C 13.671875 -9.808594 13.5625 -9.847656 13.476562 -9.867188 C 13.558594 -9.851562 13.691406 -9.839844 13.878906 -9.839844 Z M 13.878906 -9.839844 "/></g></g></g><g fill="#ffffff" fill-opacity="1"><g transform="translate(318.202708, 108.374996)"><g><path d="M 18.992188 12.4375 C 13.617188 12.4375 9.21875 10.945312 5.800781 7.964844 C 4.0625 6.445312 2.707031 4.730469 1.734375 2.824219 C 0.617188 0.632812 0.0625 -1.6875 0.0625 -4.140625 C 0.0625 -6.226562 0.457031 -8.210938 1.253906 -10.09375 C 2.027344 -11.933594 3.144531 -13.578125 4.605469 -15.039062 C 6.246094 -16.679688 8.199219 -17.882812 10.464844 -18.652344 C 12.289062 -19.273438 14.265625 -19.582031 16.394531 -19.582031 C 17.585938 -19.582031 18.890625 -19.480469 20.320312 -19.277344 C 21.160156 -19.15625 21.773438 -19.074219 22.152344 -19.03125 L 21.023438 -8.847656 L 10.78125 -8.453125 C 10.78125 -8.511719 10.773438 -8.550781 10.765625 -8.570312 C 10.5 -9.152344 10.148438 -9.738281 9.714844 -10.316406 C 9.011719 -11.265625 8.371094 -12.070312 7.789062 -12.730469 L 15.503906 -19.480469 L 24.574219 -14.714844 C 22.609375 -10.976562 20.613281 -7.808594 18.582031 -5.210938 C 16.644531 -2.738281 14.539062 -0.390625 12.257812 1.828125 C 11 3.085938 9.582031 4.085938 8 4.835938 C 6.097656 5.738281 4.105469 6.1875 2.027344 6.1875 C 0.152344 6.1875 -1.621094 5.820312 -3.292969 5.078125 C -5.039062 4.308594 -6.542969 3.191406 -7.8125 1.734375 C -8.941406 0.433594 -9.792969 -1.023438 -10.359375 -2.644531 C -10.878906 -4.128906 -11.140625 -5.679688 -11.140625 -7.304688 C -11.140625 -10.839844 -9.980469 -14.011719 -7.667969 -16.824219 L -6.65625 -18.070312 C -3.933594 -21.433594 -1.917969 -24.144531 -0.609375 -26.199219 L 8.035156 -20.695312 L -0.804688 -25.878906 C -0.0351562 -27.191406 0.90625 -29.023438 2.023438 -31.378906 C 3.207031 -33.871094 4.363281 -36.457031 5.496094 -39.136719 C 6.949219 -42.503906 9.226562 -45.050781 12.320312 -46.773438 C 14.941406 -48.234375 17.949219 -48.964844 21.347656 -48.964844 C 24.339844 -48.964844 26.808594 -48.523438 28.753906 -47.640625 C 30.777344 -46.71875 32.402344 -45.367188 33.625 -43.585938 C 34.976562 -41.621094 35.652344 -39.429688 35.652344 -37.011719 C 35.652344 -35.660156 35.394531 -34.140625 34.875 -32.457031 C 34.460938 -31.113281 33.90625 -29.792969 33.210938 -28.5 L 24.1875 -33.359375 L 33.351562 -28.777344 C 33.136719 -28.34375 32.992188 -28.003906 32.917969 -27.761719 C 32.957031 -27.882812 32.972656 -28.097656 32.972656 -28.40625 C 32.972656 -29.0625 32.882812 -29.671875 32.703125 -30.238281 C 32.617188 -30.507812 32.527344 -30.726562 32.429688 -30.894531 C 32.730469 -30.378906 33.304688 -29.597656 34.160156 -28.550781 L 34.265625 -28.421875 L 34.367188 -28.289062 C 36.390625 -25.628906 37.96875 -23.292969 39.097656 -21.277344 C 40.859375 -18.125 41.738281 -14.714844 41.738281 -11.039062 C 41.738281 -10.117188 41.664062 -8.984375 41.515625 -7.632812 L 31.328125 -8.765625 L 27.625 -18.320312 C 27.601562 -18.308594 27.578125 -18.300781 27.5625 -18.292969 C 27.5625 -18.292969 27.570312 -18.296875 27.578125 -18.300781 C 27.636719 -18.332031 27.714844 -18.378906 27.804688 -18.4375 C 28.117188 -18.640625 28.476562 -18.925781 28.890625 -19.285156 C 30 -20.261719 31.265625 -21.628906 32.679688 -23.390625 L 32.882812 -23.632812 C 34.070312 -25.019531 35.4375 -26.113281 36.980469 -26.914062 C 38.824219 -27.867188 40.785156 -28.347656 42.855469 -28.347656 C 45.058594 -28.347656 47.097656 -27.796875 48.976562 -26.699219 C 50.703125 -25.6875 52.113281 -24.308594 53.207031 -22.558594 C 54.652344 -20.246094 55.375 -17.542969 55.375 -14.449219 C 55.375 -10.015625 54.125 -6.214844 51.621094 -3.054688 C 47.933594 1.519531 44.183594 4.746094 40.375 6.628906 C 36.578125 8.507812 32.125 9.523438 27.007812 9.675781 L 26.703125 -0.566406 L 33.339844 7.238281 C 31.308594 8.964844 29.0625 10.269531 26.605469 11.148438 C 24.203125 12.007812 21.667969 12.4375 18.992188 12.4375 Z M 18.992188 -8.054688 C 19.296875 -8.054688 19.53125 -8.085938 19.699219 -8.148438 C 19.8125 -8.1875 19.933594 -8.261719 20.066406 -8.375 L 22.804688 -10.703125 L 26.398438 -10.8125 C 28.535156 -10.875 30.164062 -11.183594 31.292969 -11.742188 C 31.707031 -11.945312 32.21875 -12.320312 32.828125 -12.859375 C 33.691406 -13.621094 34.597656 -14.59375 35.550781 -15.777344 C 35.265625 -15.417969 35.066406 -15.039062 34.945312 -14.648438 C 34.910156 -14.542969 34.890625 -14.453125 34.878906 -14.375 L 34.878906 -14.363281 C 34.878906 -14.386719 34.878906 -14.414062 34.878906 -14.449219 C 34.878906 -14.25 34.914062 -14 34.984375 -13.699219 C 35.136719 -13.019531 35.417969 -12.351562 35.828125 -11.695312 C 36.515625 -10.59375 37.449219 -9.699219 38.621094 -9.011719 C 39.941406 -8.238281 41.355469 -7.851562 42.855469 -7.851562 C 44.113281 -7.851562 45.300781 -8.140625 46.414062 -8.71875 C 47.230469 -9.140625 47.90625 -9.664062 48.445312 -10.292969 L 40.664062 -16.964844 L 48.644531 -10.539062 C 46.492188 -7.859375 44.414062 -5.644531 42.414062 -3.886719 C 39.949219 -1.722656 37.488281 -0.164062 35.035156 0.789062 L 19.277344 6.898438 L 21.144531 -9.898438 C 21.210938 -10.496094 21.246094 -10.875 21.246094 -11.039062 C 21.246094 -11.152344 21.234375 -11.230469 21.210938 -11.269531 C 20.550781 -12.445312 19.503906 -13.976562 18.066406 -15.867188 L 26.214844 -22.078125 L 18.273438 -15.605469 C 16.746094 -17.476562 15.5625 -19.132812 14.726562 -20.566406 C 13.226562 -23.136719 12.480469 -25.75 12.480469 -28.40625 C 12.480469 -31.375 13.328125 -34.550781 15.023438 -37.941406 L 15.089844 -38.082031 L 15.164062 -38.21875 C 15.226562 -38.332031 15.265625 -38.417969 15.285156 -38.484375 L 15.296875 -38.492188 C 15.203125 -38.054688 15.15625 -37.558594 15.15625 -37.011719 C 15.15625 -35.1875 15.683594 -33.507812 16.738281 -31.976562 C 17.664062 -30.628906 18.839844 -29.632812 20.269531 -28.980469 C 20.910156 -28.691406 21.476562 -28.511719 21.972656 -28.449219 C 21.875 -28.460938 21.667969 -28.46875 21.347656 -28.46875 C 21.28125 -28.46875 21.234375 -28.464844 21.203125 -28.464844 C 21.230469 -28.464844 21.273438 -28.472656 21.332031 -28.488281 C 21.632812 -28.554688 21.957031 -28.683594 22.292969 -28.871094 C 23.253906 -29.40625 23.945312 -30.164062 24.371094 -31.152344 C 23.125 -28.203125 21.847656 -25.351562 20.539062 -22.597656 C 19.167969 -19.703125 17.945312 -17.339844 16.875 -15.515625 L 16.78125 -15.351562 L 16.679688 -15.195312 C 14.957031 -12.488281 12.480469 -9.136719 9.25 -5.144531 L 8.152344 -3.792969 C 8.492188 -4.203125 8.765625 -4.6875 8.976562 -5.242188 C 9.226562 -5.910156 9.355469 -6.597656 9.355469 -7.304688 C 9.355469 -8.007812 9.230469 -8.71875 8.980469 -9.429688 C 8.683594 -10.277344 8.238281 -11.039062 7.652344 -11.714844 C 6.921875 -12.554688 6.039062 -13.203125 4.996094 -13.664062 C 4.027344 -14.089844 3.039062 -14.304688 2.027344 -14.304688 C 1.035156 -14.304688 0.0976562 -14.097656 -0.773438 -13.683594 C -1.332031 -13.421875 -1.75 -13.148438 -2.03125 -12.867188 C -0.414062 -14.4375 1.074219 -16.09375 2.4375 -17.839844 C 3.710938 -19.464844 5.039062 -21.597656 6.429688 -24.246094 L 13.378906 -37.46875 L 23.214844 -26.226562 C 24.148438 -25.160156 25.132812 -23.933594 26.160156 -22.554688 C 27.457031 -20.808594 28.539062 -18.984375 29.410156 -17.078125 C 30.539062 -14.609375 31.15625 -11.996094 31.261719 -9.242188 L 31.71875 2.652344 L 19.890625 1.335938 C 19.296875 1.273438 18.472656 1.164062 17.421875 1.011719 C 16.957031 0.945312 16.613281 0.914062 16.394531 0.914062 C 16.523438 0.914062 16.738281 0.859375 17.050781 0.753906 C 17.800781 0.5 18.484375 0.0664062 19.097656 -0.546875 C 19.527344 -0.976562 19.871094 -1.5 20.132812 -2.121094 C 20.414062 -2.789062 20.554688 -3.460938 20.554688 -4.140625 C 20.554688 -4.96875 20.371094 -5.746094 19.996094 -6.476562 C 19.769531 -6.921875 19.53125 -7.257812 19.277344 -7.476562 C 18.914062 -7.796875 18.5625 -8.003906 18.230469 -8.105469 C 18.339844 -8.074219 18.59375 -8.054688 18.992188 -8.054688 Z M 18.992188 -8.054688 "/></g></g></g><g fill="#f50ca0" fill-opacity="1"><g transform="translate(9.451825, 108.374996)"><g><path d="M 50.8125 -18.09375 C 51.519531 -18.09375 52.078125 -17.769531 52.484375 -17.125 C 52.890625 -16.476562 53.09375 -15.585938 53.09375 -14.453125 C 53.09375 -12.285156 52.578125 -10.609375 51.546875 -9.421875 C 49.109375 -6.441406 46.644531 -4.054688 44.15625 -2.265625 C 41.664062 -0.484375 38.71875 0.40625 35.3125 0.40625 C 31.144531 0.40625 27.785156 -0.78125 25.234375 -3.15625 C 22.691406 -5.539062 21.421875 -8.707031 21.421875 -12.65625 C 21.421875 -14.769531 22.503906 -16.285156 24.671875 -17.203125 C 27.054688 -18.234375 28.757812 -19.328125 29.78125 -20.484375 C 30.8125 -21.648438 31.328125 -23.070312 31.328125 -24.75 C 31.328125 -25.726562 31.125 -26.457031 30.71875 -26.9375 C 30.3125 -27.425781 29.8125 -27.671875 29.21875 -27.671875 C 27.757812 -27.671875 26.148438 -26.613281 24.390625 -24.5 C 22.628906 -22.394531 20.988281 -19.675781 19.46875 -16.34375 C 17.957031 -13.019531 16.769531 -9.601562 15.90625 -6.09375 C 15.3125 -3.539062 14.617188 -1.816406 13.828125 -0.921875 C 13.046875 -0.0351562 11.816406 0.40625 10.140625 0.40625 C 8.460938 0.40625 7.234375 -0.203125 6.453125 -1.421875 C 5.671875 -2.640625 5.144531 -4.519531 4.875 -7.0625 C 4.601562 -9.601562 4.46875 -13.335938 4.46875 -18.265625 C 4.46875 -26.597656 5.316406 -35.28125 7.015625 -44.3125 C 8.722656 -53.351562 11.238281 -60.941406 14.5625 -67.078125 C 17.894531 -73.222656 21.890625 -76.296875 26.546875 -76.296875 C 29.035156 -76.296875 31.050781 -75.226562 32.59375 -73.09375 C 34.132812 -70.957031 34.90625 -68.1875 34.90625 -64.78125 C 34.90625 -59.3125 33.304688 -53.640625 30.109375 -47.765625 C 26.921875 -41.898438 21.726562 -35.039062 14.53125 -27.1875 C 14.363281 -24.375 14.28125 -21.476562 14.28125 -18.5 C 16.882812 -25.269531 19.863281 -30.179688 23.21875 -33.234375 C 26.570312 -36.296875 29.707031 -37.828125 32.625 -37.828125 C 35.332031 -37.828125 37.507812 -36.90625 39.15625 -35.0625 C 40.8125 -33.226562 41.640625 -30.957031 41.640625 -28.25 C 41.640625 -25.269531 40.878906 -22.535156 39.359375 -20.046875 C 37.847656 -17.554688 35.253906 -15.335938 31.578125 -13.390625 C 31.796875 -11.929688 32.457031 -10.753906 33.5625 -9.859375 C 34.675781 -8.960938 36.015625 -8.515625 37.578125 -8.515625 C 39.253906 -8.515625 40.878906 -9.164062 42.453125 -10.46875 C 44.023438 -11.769531 46.082031 -13.9375 48.625 -16.96875 C 49.269531 -17.71875 50 -18.09375 50.8125 -18.09375 Z M 24.84375 -68.265625 C 23.863281 -68.265625 22.78125 -66.867188 21.59375 -64.078125 C 20.40625 -61.296875 19.253906 -57.535156 18.140625 -52.796875 C 17.035156 -48.066406 16.128906 -42.914062 15.421875 -37.34375 C 18.773438 -41.289062 21.546875 -45.585938 23.734375 -50.234375 C 25.929688 -54.890625 27.03125 -59.113281 27.03125 -62.90625 C 27.03125 -64.632812 26.835938 -65.957031 26.453125 -66.875 C 26.078125 -67.800781 25.539062 -68.265625 24.84375 -68.265625 Z M 24.84375 -68.265625 "/></g></g></g><g fill="#f50ca0" fill-opacity="1"><g transform="translate(52.062926, 108.374996)"><g><path d="M 14.53125 -43.1875 C 12.257812 -43.1875 10.554688 -43.710938 9.421875 -44.765625 C 8.285156 -45.816406 7.71875 -47.289062 7.71875 -49.1875 C 7.71875 -51.082031 8.457031 -52.664062 9.9375 -53.9375 C 11.425781 -55.207031 13.28125 -55.84375 15.5 -55.84375 C 17.5 -55.84375 19.117188 -55.351562 20.359375 -54.375 C 21.609375 -53.40625 22.234375 -52.03125 22.234375 -50.25 C 22.234375 -48.082031 21.53125 -46.363281 20.125 -45.09375 C 18.71875 -43.820312 16.851562 -43.1875 14.53125 -43.1875 Z M 13.875 0.40625 C 10.363281 0.40625 7.804688 -0.835938 6.203125 -3.328125 C 4.609375 -5.816406 3.8125 -9.117188 3.8125 -13.234375 C 3.8125 -15.671875 4.125 -18.796875 4.75 -22.609375 C 5.375 -26.421875 6.171875 -29.976562 7.140625 -33.28125 C 7.628906 -35.007812 8.28125 -36.195312 9.09375 -36.84375 C 9.90625 -37.5 11.203125 -37.828125 12.984375 -37.828125 C 15.742188 -37.828125 17.125 -36.90625 17.125 -35.0625 C 17.125 -33.707031 16.609375 -30.570312 15.578125 -25.65625 C 14.285156 -19.695312 13.640625 -15.664062 13.640625 -13.5625 C 13.640625 -11.9375 13.851562 -10.6875 14.28125 -9.8125 C 14.71875 -8.945312 15.453125 -8.515625 16.484375 -8.515625 C 17.453125 -8.515625 18.664062 -9.191406 20.125 -10.546875 C 21.59375 -11.898438 23.539062 -14.039062 25.96875 -16.96875 C 26.625 -17.71875 27.359375 -18.09375 28.171875 -18.09375 C 28.867188 -18.09375 29.421875 -17.769531 29.828125 -17.125 C 30.234375 -16.476562 30.4375 -15.585938 30.4375 -14.453125 C 30.4375 -12.285156 29.921875 -10.609375 28.890625 -9.421875 C 23.535156 -2.867188 18.53125 0.40625 13.875 0.40625 Z M 13.875 0.40625 "/></g></g></g><g fill="#f50ca0" fill-opacity="1"><g transform="translate(72.029272, 108.374996)"><g><path d="M 19 2.1875 C 16.175781 2.1875 14.019531 1.535156 12.53125 0.234375 C 11.050781 -1.054688 10.3125 -2.515625 10.3125 -4.140625 C 10.3125 -5.546875 10.820312 -6.757812 11.84375 -7.78125 C 12.875 -8.8125 14.390625 -9.328125 16.390625 -9.328125 C 17.097656 -9.328125 17.925781 -9.257812 18.875 -9.125 C 19.820312 -8.988281 20.539062 -8.894531 21.03125 -8.84375 C 20.96875 -10.25 20.648438 -11.570312 20.078125 -12.8125 C 19.515625 -14.0625 18.800781 -15.269531 17.9375 -16.4375 C 17.070312 -17.601562 16.257812 -18.617188 15.5 -19.484375 C 13.820312 -16.285156 12.15625 -13.628906 10.5 -11.515625 C 8.851562 -9.410156 7.054688 -7.410156 5.109375 -5.515625 C 4.140625 -4.546875 3.113281 -4.0625 2.03125 -4.0625 C 1.164062 -4.0625 0.460938 -4.367188 -0.078125 -4.984375 C -0.617188 -5.609375 -0.890625 -6.382812 -0.890625 -7.3125 C -0.890625 -8.382812 -0.507812 -9.382812 0.25 -10.3125 L 1.296875 -11.609375 C 4.273438 -15.285156 6.519531 -18.316406 8.03125 -20.703125 C 8.957031 -22.265625 10.039062 -24.359375 11.28125 -26.984375 C 12.53125 -29.609375 13.75 -32.328125 14.9375 -35.140625 C 15.96875 -37.523438 18.101562 -38.71875 21.34375 -38.71875 C 22.863281 -38.71875 23.921875 -38.582031 24.515625 -38.3125 C 25.109375 -38.039062 25.40625 -37.609375 25.40625 -37.015625 C 25.40625 -36.691406 25.296875 -36.175781 25.078125 -35.46875 C 24.859375 -34.769531 24.5625 -34.066406 24.1875 -33.359375 C 23.21875 -31.410156 22.734375 -29.757812 22.734375 -28.40625 C 22.734375 -27.59375 23.015625 -26.695312 23.578125 -25.71875 C 24.148438 -24.75 25.03125 -23.535156 26.21875 -22.078125 C 27.945312 -19.804688 29.257812 -17.867188 30.15625 -16.265625 C 31.050781 -14.671875 31.5 -12.929688 31.5 -11.046875 C 31.5 -10.503906 31.441406 -9.742188 31.328125 -8.765625 C 33.984375 -9.796875 37.097656 -12.53125 40.671875 -16.96875 C 41.316406 -17.71875 42.046875 -18.09375 42.859375 -18.09375 C 43.554688 -18.09375 44.109375 -17.769531 44.515625 -17.125 C 44.921875 -16.476562 45.125 -15.585938 45.125 -14.453125 C 45.125 -12.390625 44.613281 -10.710938 43.59375 -9.421875 C 40.882812 -6.066406 38.296875 -3.78125 35.828125 -2.5625 C 33.367188 -1.34375 30.328125 -0.675781 26.703125 -0.5625 C 24.535156 1.269531 21.96875 2.1875 19 2.1875 Z M 19 2.1875 "/></g></g></g><g fill="#f50ca0" fill-opacity="1"><g transform="translate(106.686294, 108.374996)"><g><path d="M 19 2.1875 C 16.175781 2.1875 14.019531 1.535156 12.53125 0.234375 C 11.050781 -1.054688 10.3125 -2.515625 10.3125 -4.140625 C 10.3125 -5.546875 10.820312 -6.757812 11.84375 -7.78125 C 12.875 -8.8125 14.390625 -9.328125 16.390625 -9.328125 C 17.097656 -9.328125 17.925781 -9.257812 18.875 -9.125 C 19.820312 -8.988281 20.539062 -8.894531 21.03125 -8.84375 C 20.96875 -10.25 20.648438 -11.570312 20.078125 -12.8125 C 19.515625 -14.0625 18.800781 -15.269531 17.9375 -16.4375 C 17.070312 -17.601562 16.257812 -18.617188 15.5 -19.484375 C 13.820312 -16.285156 12.15625 -13.628906 10.5 -11.515625 C 8.851562 -9.410156 7.054688 -7.410156 5.109375 -5.515625 C 4.140625 -4.546875 3.113281 -4.0625 2.03125 -4.0625 C 1.164062 -4.0625 0.460938 -4.367188 -0.078125 -4.984375 C -0.617188 -5.609375 -0.890625 -6.382812 -0.890625 -7.3125 C -0.890625 -8.382812 -0.507812 -9.382812 0.25 -10.3125 L 1.296875 -11.609375 C 4.273438 -15.285156 6.519531 -18.316406 8.03125 -20.703125 C 8.957031 -22.265625 10.039062 -24.359375 11.28125 -26.984375 C 12.53125 -29.609375 13.75 -32.328125 14.9375 -35.140625 C 15.96875 -37.523438 18.101562 -38.71875 21.34375 -38.71875 C 22.863281 -38.71875 23.921875 -38.582031 24.515625 -38.3125 C 25.109375 -38.039062 25.40625 -37.609375 25.40625 -37.015625 C 25.40625 -36.691406 25.296875 -36.175781 25.078125 -35.46875 C 24.859375 -34.769531 24.5625 -34.066406 24.1875 -33.359375 C 23.21875 -31.410156 22.734375 -29.757812 22.734375 -28.40625 C 22.734375 -27.59375 23.015625 -26.695312 23.578125 -25.71875 C 24.148438 -24.75 25.03125 -23.535156 26.21875 -22.078125 C 27.945312 -19.804688 29.257812 -17.867188 30.15625 -16.265625 C 31.050781 -14.671875 31.5 -12.929688 31.5 -11.046875 C 31.5 -10.503906 31.441406 -9.742188 31.328125 -8.765625 C 33.984375 -9.796875 37.097656 -12.53125 40.671875 -16.96875 C 41.316406 -17.71875 42.046875 -18.09375 42.859375 -18.09375 C 43.554688 -18.09375 44.109375 -17.769531 44.515625 -17.125 C 44.921875 -16.476562 45.125 -15.585938 45.125 -14.453125 C 45.125 -12.390625 44.613281 -10.710938 43.59375 -9.421875 C 40.882812 -6.066406 38.296875 -3.78125 35.828125 -2.5625 C 33.367188 -1.34375 30.328125 -0.675781 26.703125 -0.5625 C 24.535156 1.269531 21.96875 2.1875 19 2.1875 Z M 19 2.1875 "/></g></g></g><g fill="#ffacec" fill-opacity="1"><g transform="translate(141.346353, 108.374996)"><g><path d="M 9.65625 0.40625 C 7.601562 0.40625 6.15625 -0.675781 5.3125 -2.84375 C 4.476562 -5.007812 4.0625 -8.472656 4.0625 -13.234375 C 4.0625 -20.265625 5.0625 -26.945312 7.0625 -33.28125 C 7.550781 -34.851562 8.347656 -36.003906 9.453125 -36.734375 C 10.566406 -37.460938 12.125 -37.828125 14.125 -37.828125 C 15.207031 -37.828125 15.960938 -37.691406 16.390625 -37.421875 C 16.828125 -37.148438 17.046875 -36.632812 17.046875 -35.875 C 17.046875 -35.007812 16.640625 -33.0625 15.828125 -30.03125 C 15.285156 -27.863281 14.851562 -25.984375 14.53125 -24.390625 C 14.207031 -22.796875 13.9375 -20.804688 13.71875 -18.421875 C 15.175781 -22.640625 16.921875 -26.210938 18.953125 -29.140625 C 20.984375 -32.066406 23.066406 -34.242188 25.203125 -35.671875 C 27.335938 -37.109375 29.351562 -37.828125 31.25 -37.828125 C 33.144531 -37.828125 34.484375 -37.394531 35.265625 -36.53125 C 36.054688 -35.664062 36.453125 -34.335938 36.453125 -32.546875 C 36.453125 -30.816406 35.9375 -27.679688 34.90625 -23.140625 C 34.46875 -21.191406 34.171875 -19.726562 34.015625 -18.75 C 36.710938 -25.40625 39.710938 -30.25 43.015625 -33.28125 C 46.316406 -36.3125 49.40625 -37.828125 52.28125 -37.828125 C 55.789062 -37.828125 57.546875 -36.066406 57.546875 -32.546875 C 57.546875 -30.441406 56.953125 -26.628906 55.765625 -21.109375 C 54.734375 -16.398438 54.21875 -13.285156 54.21875 -11.765625 C 54.21875 -9.597656 55.003906 -8.515625 56.578125 -8.515625 C 57.660156 -8.515625 58.945312 -9.175781 60.4375 -10.5 C 61.925781 -11.832031 63.914062 -13.988281 66.40625 -16.96875 C 67.050781 -17.71875 67.78125 -18.09375 68.59375 -18.09375 C 69.289062 -18.09375 69.84375 -17.769531 70.25 -17.125 C 70.65625 -16.476562 70.859375 -15.585938 70.859375 -14.453125 C 70.859375 -12.285156 70.347656 -10.609375 69.328125 -9.421875 C 66.992188 -6.546875 64.488281 -4.1875 61.8125 -2.34375 C 59.132812 -0.507812 56.09375 0.40625 52.6875 0.40625 C 49.925781 0.40625 47.835938 -0.390625 46.421875 -1.984375 C 45.015625 -3.585938 44.3125 -5.898438 44.3125 -8.921875 C 44.3125 -10.441406 44.691406 -13.148438 45.453125 -17.046875 C 46.160156 -20.453125 46.515625 -22.804688 46.515625 -24.109375 C 46.515625 -24.972656 46.21875 -25.40625 45.625 -25.40625 C 44.914062 -25.40625 43.910156 -24.5 42.609375 -22.6875 C 41.316406 -20.875 40.019531 -18.476562 38.71875 -15.5 C 37.414062 -12.53125 36.359375 -9.394531 35.546875 -6.09375 C 34.953125 -3.488281 34.265625 -1.753906 33.484375 -0.890625 C 32.703125 -0.0234375 31.441406 0.40625 29.703125 0.40625 C 27.921875 0.40625 26.582031 -0.441406 25.6875 -2.140625 C 24.800781 -3.847656 24.359375 -5.921875 24.359375 -8.359375 C 24.359375 -10.410156 24.625 -13.390625 25.15625 -17.296875 C 25.59375 -20.753906 25.8125 -23.023438 25.8125 -24.109375 C 25.8125 -24.972656 25.515625 -25.40625 24.921875 -25.40625 C 24.109375 -25.40625 23.078125 -24.429688 21.828125 -22.484375 C 20.585938 -20.535156 19.382812 -18.046875 18.21875 -15.015625 C 17.0625 -11.984375 16.128906 -9.007812 15.421875 -6.09375 C 14.828125 -3.539062 14.132812 -1.816406 13.34375 -0.921875 C 12.5625 -0.0351562 11.332031 0.40625 9.65625 0.40625 Z M 9.65625 0.40625 "/></g></g></g><g fill="#ffacec" fill-opacity="1"><g transform="translate(201.73237, 108.374996)"><g><path d="M 13.875 0.40625 C 10.519531 0.40625 7.84375 -0.8125 5.84375 -3.25 C 3.84375 -5.6875 2.84375 -8.878906 2.84375 -12.828125 C 2.84375 -17.148438 3.84375 -21.242188 5.84375 -25.109375 C 7.84375 -28.984375 10.503906 -32.097656 13.828125 -34.453125 C 17.160156 -36.804688 20.695312 -37.984375 24.4375 -37.984375 C 25.625 -37.984375 26.421875 -37.753906 26.828125 -37.296875 C 27.234375 -36.835938 27.570312 -36.015625 27.84375 -34.828125 C 28.976562 -35.035156 30.164062 -35.140625 31.40625 -35.140625 C 34.0625 -35.140625 35.390625 -34.195312 35.390625 -32.3125 C 35.390625 -31.175781 34.984375 -28.46875 34.171875 -24.1875 C 32.929688 -17.96875 32.3125 -13.640625 32.3125 -11.203125 C 32.3125 -10.390625 32.515625 -9.738281 32.921875 -9.25 C 33.328125 -8.757812 33.851562 -8.515625 34.5 -8.515625 C 35.53125 -8.515625 36.773438 -9.175781 38.234375 -10.5 C 39.691406 -11.832031 41.664062 -13.988281 44.15625 -16.96875 C 44.800781 -17.71875 45.53125 -18.09375 46.34375 -18.09375 C 47.050781 -18.09375 47.609375 -17.769531 48.015625 -17.125 C 48.421875 -16.476562 48.625 -15.585938 48.625 -14.453125 C 48.625 -12.285156 48.109375 -10.609375 47.078125 -9.421875 C 44.859375 -6.660156 42.503906 -4.332031 40.015625 -2.4375 C 37.523438 -0.539062 35.117188 0.40625 32.796875 0.40625 C 31.003906 0.40625 29.363281 -0.203125 27.875 -1.421875 C 26.394531 -2.640625 25.273438 -4.300781 24.515625 -6.40625 C 21.703125 -1.863281 18.15625 0.40625 13.875 0.40625 Z M 16.796875 -7.796875 C 17.992188 -7.796875 19.128906 -8.5 20.203125 -9.90625 C 21.285156 -11.3125 22.070312 -13.175781 22.5625 -15.5 L 25.5625 -30.4375 C 23.289062 -30.382812 21.191406 -29.53125 19.265625 -27.875 C 17.347656 -26.226562 15.820312 -24.050781 14.6875 -21.34375 C 13.550781 -18.644531 12.984375 -15.78125 12.984375 -12.75 C 12.984375 -11.070312 13.320312 -9.828125 14 -9.015625 C 14.675781 -8.203125 15.609375 -7.796875 16.796875 -7.796875 Z M 16.796875 -7.796875 "/></g></g></g><g fill="#ffacec" fill-opacity="1"><g transform="translate(239.879451, 108.374996)"><g><path d="M 40.09375 -18.09375 C 40.800781 -18.09375 41.359375 -17.769531 41.765625 -17.125 C 42.171875 -16.476562 42.375 -15.585938 42.375 -14.453125 C 42.375 -12.285156 41.859375 -10.609375 40.828125 -9.421875 C 38.828125 -6.984375 36 -4.734375 32.34375 -2.671875 C 28.695312 -0.617188 24.789062 0.40625 20.625 0.40625 C 14.9375 0.40625 10.519531 -1.132812 7.375 -4.21875 C 4.238281 -7.300781 2.671875 -11.523438 2.671875 -16.890625 C 2.671875 -20.617188 3.457031 -24.09375 5.03125 -27.3125 C 6.601562 -30.53125 8.78125 -33.085938 11.5625 -34.984375 C 14.351562 -36.878906 17.507812 -37.828125 21.03125 -37.828125 C 24.164062 -37.828125 26.675781 -36.890625 28.5625 -35.015625 C 30.457031 -33.148438 31.40625 -30.625 31.40625 -27.4375 C 31.40625 -23.695312 30.066406 -20.488281 27.390625 -17.8125 C 24.710938 -15.132812 20.179688 -13.007812 13.796875 -11.4375 C 15.148438 -8.957031 17.722656 -7.71875 21.515625 -7.71875 C 23.941406 -7.71875 26.710938 -8.566406 29.828125 -10.265625 C 32.941406 -11.972656 35.632812 -14.207031 37.90625 -16.96875 C 38.550781 -17.71875 39.28125 -18.09375 40.09375 -18.09375 Z M 19.640625 -29.875 C 17.640625 -29.875 15.945312 -28.707031 14.5625 -26.375 C 13.1875 -24.050781 12.5 -21.238281 12.5 -17.9375 L 12.5 -17.78125 C 15.695312 -18.53125 18.210938 -19.660156 20.046875 -21.171875 C 21.890625 -22.691406 22.8125 -24.457031 22.8125 -26.46875 C 22.8125 -27.488281 22.523438 -28.3125 21.953125 -28.9375 C 21.390625 -29.5625 20.617188 -29.875 19.640625 -29.875 Z M 19.640625 -29.875 "/></g></g></g><g fill="#ffacec" fill-opacity="1"><g transform="translate(271.776903, 108.374996)"><g><path d="M 34.65625 -18.09375 C 35.363281 -18.09375 35.921875 -17.769531 36.328125 -17.125 C 36.734375 -16.476562 36.9375 -15.585938 36.9375 -14.453125 C 36.9375 -12.285156 36.421875 -10.609375 35.390625 -9.421875 C 33.066406 -6.546875 30.535156 -4.1875 27.796875 -2.34375 C 25.066406 -0.507812 21.96875 0.40625 18.5 0.40625 C 13.738281 0.40625 10.207031 -1.753906 7.90625 -6.078125 C 5.613281 -10.410156 4.46875 -16.015625 4.46875 -22.890625 C 4.46875 -29.492188 5.316406 -37.015625 7.015625 -45.453125 C 8.722656 -53.898438 11.238281 -61.148438 14.5625 -67.203125 C 17.894531 -73.265625 21.863281 -76.296875 26.46875 -76.296875 C 29.0625 -76.296875 31.101562 -75.09375 32.59375 -72.6875 C 34.082031 -70.28125 34.828125 -66.832031 34.828125 -62.34375 C 34.828125 -55.90625 33.039062 -48.4375 29.46875 -39.9375 C 25.894531 -31.4375 21.050781 -23.019531 14.9375 -14.6875 C 15.3125 -12.46875 15.929688 -10.882812 16.796875 -9.9375 C 17.660156 -8.988281 18.800781 -8.515625 20.21875 -8.515625 C 22.4375 -8.515625 24.382812 -9.148438 26.0625 -10.421875 C 27.738281 -11.703125 29.875 -13.882812 32.46875 -16.96875 C 33.113281 -17.71875 33.84375 -18.09375 34.65625 -18.09375 Z M 24.671875 -68.265625 C 23.429688 -68.265625 22.023438 -66.019531 20.453125 -61.53125 C 18.878906 -57.039062 17.5 -51.46875 16.3125 -44.8125 C 15.125 -38.15625 14.476562 -31.769531 14.375 -25.65625 C 18.207031 -31.976562 21.257812 -38.316406 23.53125 -44.671875 C 25.8125 -51.035156 26.953125 -56.84375 26.953125 -62.09375 C 26.953125 -66.207031 26.191406 -68.265625 24.671875 -68.265625 Z M 24.671875 -68.265625 "/></g></g></g><g fill="#ffacec" fill-opacity="1"><g transform="translate(298.236363, 108.374996)"><g><path d="M 14.53125 -43.1875 C 12.257812 -43.1875 10.554688 -43.710938 9.421875 -44.765625 C 8.285156 -45.816406 7.71875 -47.289062 7.71875 -49.1875 C 7.71875 -51.082031 8.457031 -52.664062 9.9375 -53.9375 C 11.425781 -55.207031 13.28125 -55.84375 15.5 -55.84375 C 17.5 -55.84375 19.117188 -55.351562 20.359375 -54.375 C 21.609375 -53.40625 22.234375 -52.03125 22.234375 -50.25 C 22.234375 -48.082031 21.53125 -46.363281 20.125 -45.09375 C 18.71875 -43.820312 16.851562 -43.1875 14.53125 -43.1875 Z M 13.875 0.40625 C 10.363281 0.40625 7.804688 -0.835938 6.203125 -3.328125 C 4.609375 -5.816406 3.8125 -9.117188 3.8125 -13.234375 C 3.8125 -15.671875 4.125 -18.796875 4.75 -22.609375 C 5.375 -26.421875 6.171875 -29.976562 7.140625 -33.28125 C 7.628906 -35.007812 8.28125 -36.195312 9.09375 -36.84375 C 9.90625 -37.5 11.203125 -37.828125 12.984375 -37.828125 C 15.742188 -37.828125 17.125 -36.90625 17.125 -35.0625 C 17.125 -33.707031 16.609375 -30.570312 15.578125 -25.65625 C 14.285156 -19.695312 13.640625 -15.664062 13.640625 -13.5625 C 13.640625 -11.9375 13.851562 -10.6875 14.28125 -9.8125 C 14.71875 -8.945312 15.453125 -8.515625 16.484375 -8.515625 C 17.453125 -8.515625 18.664062 -9.191406 20.125 -10.546875 C 21.59375 -11.898438 23.539062 -14.039062 25.96875 -16.96875 C 26.625 -17.71875 27.359375 -18.09375 28.171875 -18.09375 C 28.867188 -18.09375 29.421875 -17.769531 29.828125 -17.125 C 30.234375 -16.476562 30.4375 -15.585938 30.4375 -14.453125 C 30.4375 -12.285156 29.921875 -10.609375 28.890625 -9.421875 C 23.535156 -2.867188 18.53125 0.40625 13.875 0.40625 Z M 13.875 0.40625 "/></g></g></g><g fill="#ffacec" fill-opacity="1"><g transform="translate(318.202708, 108.374996)"><g><path d="M 19 2.1875 C 16.175781 2.1875 14.019531 1.535156 12.53125 0.234375 C 11.050781 -1.054688 10.3125 -2.515625 10.3125 -4.140625 C 10.3125 -5.546875 10.820312 -6.757812 11.84375 -7.78125 C 12.875 -8.8125 14.390625 -9.328125 16.390625 -9.328125 C 17.097656 -9.328125 17.925781 -9.257812 18.875 -9.125 C 19.820312 -8.988281 20.539062 -8.894531 21.03125 -8.84375 C 20.96875 -10.25 20.648438 -11.570312 20.078125 -12.8125 C 19.515625 -14.0625 18.800781 -15.269531 17.9375 -16.4375 C 17.070312 -17.601562 16.257812 -18.617188 15.5 -19.484375 C 13.820312 -16.285156 12.15625 -13.628906 10.5 -11.515625 C 8.851562 -9.410156 7.054688 -7.410156 5.109375 -5.515625 C 4.140625 -4.546875 3.113281 -4.0625 2.03125 -4.0625 C 1.164062 -4.0625 0.460938 -4.367188 -0.078125 -4.984375 C -0.617188 -5.609375 -0.890625 -6.382812 -0.890625 -7.3125 C -0.890625 -8.382812 -0.507812 -9.382812 0.25 -10.3125 L 1.296875 -11.609375 C 4.273438 -15.285156 6.519531 -18.316406 8.03125 -20.703125 C 8.957031 -22.265625 10.039062 -24.359375 11.28125 -26.984375 C 12.53125 -29.609375 13.75 -32.328125 14.9375 -35.140625 C 15.96875 -37.523438 18.101562 -38.71875 21.34375 -38.71875 C 22.863281 -38.71875 23.921875 -38.582031 24.515625 -38.3125 C 25.109375 -38.039062 25.40625 -37.609375 25.40625 -37.015625 C 25.40625 -36.691406 25.296875 -36.175781 25.078125 -35.46875 C 24.859375 -34.769531 24.5625 -34.066406 24.1875 -33.359375 C 23.21875 -31.410156 22.734375 -29.757812 22.734375 -28.40625 C 22.734375 -27.59375 23.015625 -26.695312 23.578125 -25.71875 C 24.148438 -24.75 25.03125 -23.535156 26.21875 -22.078125 C 27.945312 -19.804688 29.257812 -17.867188 30.15625 -16.265625 C 31.050781 -14.671875 31.5 -12.929688 31.5 -11.046875 C 31.5 -10.503906 31.441406 -9.742188 31.328125 -8.765625 C 33.984375 -9.796875 37.097656 -12.53125 40.671875 -16.96875 C 41.316406 -17.71875 42.046875 -18.09375 42.859375 -18.09375 C 43.554688 -18.09375 44.109375 -17.769531 44.515625 -17.125 C 44.921875 -16.476562 45.125 -15.585938 45.125 -14.453125 C 45.125 -12.390625 44.613281 -10.710938 43.59375 -9.421875 C 40.882812 -6.066406 38.296875 -3.78125 35.828125 -2.5625 C 33.367188 -1.34375 30.328125 -0.675781 26.703125 -0.5625 C 24.535156 1.269531 21.96875 2.1875 19 2.1875 Z M 19 2.1875 "/></g></g></g></svg>