<svg version="1.1" viewBox="0 0 417 36"><g fill="none"><path d="M31.708 1.016V1.976C30.684 2.104 29.9 2.376 29.356 2.792C28.844 3.176 28.508 3.8 28.348 4.664C28.188 5.528 28.108 6.744 28.108 8.312V21.032C28.108 23.112 27.964 25.016 27.676 26.744C27.388 28.472 26.876 29.96 26.14 31.208C25.308 32.584 24.092 33.672 22.492 34.472C20.892 35.272 18.86 35.672 16.396 35.672C14.924 35.672 13.42 35.496 11.884 35.144C10.348 34.824 8.972 34.2 7.756 33.272C6.732 32.408 5.948 31.432 5.404 30.344C4.86 29.256 4.492 27.976 4.3 26.504C4.108 25 4.012 23.224 4.012 21.176V6.104C4.012 4.92 3.916 4.056 3.724 3.512C3.564 2.936 3.228 2.552 2.716 2.36C2.204 2.136 1.436 2.008 0.412 1.976V1.016C1.212 1.048 2.284 1.08 3.628 1.112C5.004 1.144 6.428 1.16 7.9 1.16C9.372 1.16 10.78 1.144 12.124 1.112C13.5 1.08 14.636 1.048 15.532 1.016V1.976C14.444 2.008 13.612 2.136 13.036 2.36C12.492 2.552 12.124 2.936 11.932 3.512C11.74 4.056 11.644 4.92 11.644 6.104V24.2C11.644 25.8 11.74 27.224 11.932 28.472C12.156 29.688 12.508 30.712 12.988 31.544C13.5 32.344 14.188 32.952 15.052 33.368C15.916 33.784 16.988 33.992 18.268 33.992C20.508 33.992 22.252 33.464 23.5 32.408C24.78 31.352 25.676 29.896 26.188 28.04C26.732 26.152 27.004 23.992 27.004 21.56V8.888C27.004 7.128 26.892 5.784 26.668 4.856C26.444 3.896 25.996 3.208 25.324 2.792C24.684 2.376 23.692 2.104 22.348 1.976V1.016C22.956 1.048 23.756 1.08 24.748 1.112C25.74 1.144 26.668 1.16 27.532 1.16C28.3 1.16 29.052 1.144 29.788 1.112C30.556 1.08 31.196 1.048 31.708 1.016ZM32.3058 1.016C33.1058 1.048 34.1778 1.08 35.5218 1.112C36.8978 1.144 38.2578 1.16 39.6018 1.16C41.1378 1.16 42.6258 1.144 44.0658 1.112C45.5058 1.08 46.5298 1.064 47.1378 1.064C50.1138 1.064 52.5778 1.4 54.5298 2.072C56.5138 2.712 57.9858 3.656 58.9458 4.904C59.9378 6.152 60.4338 7.656 60.4338 9.416C60.4338 10.504 60.2098 11.608 59.7618 12.728C59.3138 13.816 58.5458 14.84 57.4578 15.8C56.4018 16.728 54.9458 17.48 53.0898 18.056C51.2338 18.6 48.8978 18.872 46.0818 18.872H41.4738V17.912H45.6018C47.4898 17.912 48.9138 17.56 49.8738 16.856C50.8658 16.12 51.5378 15.16 51.8898 13.976C52.2738 12.76 52.4658 11.416 52.4658 9.944C52.4658 7.416 52.0178 5.464 51.1218 4.088C50.2258 2.68 48.6898 1.976 46.5138 1.976C45.2658 1.976 44.4498 2.248 44.0658 2.792C43.7138 3.336 43.5378 4.44 43.5378 6.104V29.912C43.5378 31.064 43.6178 31.928 43.7778 32.504C43.9698 33.08 44.3218 33.464 44.8338 33.656C45.3458 33.848 46.1138 33.976 47.1378 34.04V35C46.2738 34.936 45.1858 34.904 43.8738 34.904C42.5618 34.872 41.2338 34.856 39.8898 34.856C38.3538 34.856 36.8978 34.872 35.5218 34.904C34.1778 34.904 33.1058 34.936 32.3058 35V34.04C33.3297 33.976 34.0977 33.848 34.6098 33.656C35.1218 33.464 35.4578 33.08 35.6178 32.504C35.8098 31.928 35.9058 31.064 35.9058 29.912V6.104C35.9058 4.92 35.8098 4.056 35.6178 3.512C35.4578 2.936 35.1058 2.552 34.5617 2.36C34.0498 2.136 33.2978 2.008 32.3058 1.976V1.016ZM41.3778 18.056C42.7538 18.088 43.9378 18.152 44.9298 18.248C45.9538 18.344 46.8498 18.44 47.6178 18.536C48.3858 18.6 49.0738 18.648 49.6818 18.68C52.5938 18.936 54.7378 19.56 56.1138 20.552C57.5218 21.544 58.4338 23.032 58.8498 25.016L59.9538 29.96C60.2418 31.24 60.5458 32.136 60.8658 32.648C61.1858 33.16 61.6498 33.416 62.2578 33.416C62.6738 33.384 63.0098 33.288 63.2658 33.128C63.5538 32.936 63.8578 32.664 64.1778 32.312L64.8498 32.888C63.9858 33.88 63.0578 34.584 62.0658 35C61.0738 35.448 59.8738 35.672 58.4658 35.672C56.7378 35.672 55.3138 35.304 54.1938 34.568C53.0738 33.832 52.3378 32.472 51.9858 30.488L51.1218 25.688C50.8978 24.344 50.6258 23.176 50.3058 22.184C49.9858 21.16 49.5378 20.36 48.9618 19.784C48.4178 19.176 47.6498 18.872 46.6578 18.872H41.4738L41.3778 18.056ZM87.5076 1.016V1.976C86.4196 2.008 85.5876 2.136 85.0116 2.36C84.4676 2.552 84.0996 2.936 83.9076 3.512C83.7156 4.056 83.6196 4.92 83.6196 6.104V30.488C83.6196 31.48 83.6836 32.216 83.8116 32.696C83.9716 33.176 84.2596 33.496 84.6756 33.656C85.1236 33.816 85.7796 33.896 86.6436 33.896H88.9956C90.0836 33.896 91.1076 33.64 92.0676 33.128C93.0276 32.616 93.8916 31.896 94.6596 30.968C95.4276 30.008 96.0676 28.872 96.5796 27.56C97.0916 26.248 97.4756 24.792 97.7316 23.192H98.8356C98.7396 24.28 98.6916 25.688 98.6916 27.416C98.6916 28.152 98.7076 29.224 98.7396 30.632C98.7716 32.04 98.8676 33.496 99.0276 35C97.3956 34.936 95.5556 34.904 93.5076 34.904C91.4596 34.872 89.6356 34.856 88.0356 34.856C87.2356 34.856 86.2116 34.856 84.9636 34.856C83.7156 34.856 82.3716 34.872 80.9316 34.904C79.4916 34.904 78.0356 34.92 76.5636 34.952C75.0916 34.952 73.6996 34.968 72.3876 35V34.04C73.4116 33.976 74.1796 33.848 74.6916 33.656C75.2036 33.464 75.5396 33.08 75.6996 32.504C75.8916 31.928 75.9876 31.064 75.9876 29.912V6.104C75.9876 4.92 75.8916 4.056 75.6996 3.512C75.5396 2.936 75.1876 2.552 74.6436 2.36C74.1316 2.136 73.3796 2.008 72.3876 1.976V1.016C73.1876 1.048 74.2596 1.08 75.6036 1.112C76.9796 1.144 78.4356 1.16 79.9716 1.16C81.3796 1.16 82.7556 1.144 84.0996 1.112C85.4756 1.08 86.6116 1.048 87.5076 1.016ZM114.643 1.016V1.976C113.619 2.008 112.835 2.136 112.291 2.36C111.779 2.552 111.443 2.936 111.283 3.512C111.123 4.056 111.043 4.92 111.043 6.104V29.912C111.043 31.064 111.123 31.928 111.283 32.504C111.475 33.08 111.827 33.464 112.339 33.656C112.851 33.848 113.619 33.976 114.643 34.04V35C113.779 34.936 112.691 34.904 111.379 34.904C110.067 34.872 108.739 34.856 107.395 34.856C105.827 34.856 104.371 34.872 103.027 34.904C101.715 34.904 100.643 34.936 99.8114 35V34.04C100.835 33.976 101.603 33.848 102.115 33.656C102.627 33.464 102.963 33.08 103.123 32.504C103.315 31.928 103.411 31.064 103.411 29.912V6.104C103.411 4.92 103.315 4.056 103.123 3.512C102.963 2.936 102.611 2.552 102.067 2.36C101.555 2.136 100.803 2.008 99.8114 1.976V1.016C100.643 1.048 101.715 1.08 103.027 1.112C104.371 1.144 105.827 1.16 107.395 1.16C108.739 1.16 110.067 1.144 111.379 1.112C112.691 1.08 113.779 1.048 114.643 1.016ZM145.122 1.016C144.994 2.648 144.898 4.216 144.834 5.72C144.802 7.224 144.786 8.376 144.786 9.176C144.786 9.88 144.802 10.552 144.834 11.192C144.866 11.832 144.898 12.376 144.93 12.824H143.826C143.314 10.136 142.658 8.008 141.858 6.44C141.09 4.872 140.162 3.768 139.074 3.128C137.986 2.456 136.706 2.12 135.234 2.12H134.13V29.528C134.13 30.808 134.258 31.768 134.514 32.408C134.802 33.048 135.314 33.48 136.05 33.704C136.786 33.896 137.858 34.008 139.266 34.04V35C138.274 34.968 136.946 34.936 135.282 34.904C133.65 34.872 131.938 34.856 130.146 34.856C128.386 34.856 126.722 34.872 125.154 34.904C123.586 34.936 122.322 34.968 121.362 35V34.04C122.802 34.008 123.89 33.896 124.626 33.704C125.362 33.48 125.858 33.048 126.114 32.408C126.37 31.768 126.498 30.808 126.498 29.528V2.12H125.442C123.97 2.12 122.69 2.456 121.602 3.128C120.514 3.768 119.586 4.872 118.818 6.44C118.05 7.976 117.378 10.104 116.802 12.824H115.698C115.762 12.376 115.794 11.832 115.794 11.192C115.826 10.552 115.842 9.88 115.842 9.176C115.842 8.376 115.81 7.224 115.746 5.72C115.714 4.216 115.634 2.648 115.506 1.016C116.978 1.048 118.578 1.08 120.306 1.112C122.066 1.144 123.826 1.16 125.586 1.16C127.346 1.16 128.93 1.16 130.338 1.16C131.778 1.16 133.362 1.16 135.09 1.16C136.85 1.16 138.61 1.144 140.37 1.112C142.13 1.08 143.714 1.048 145.122 1.016ZM175.265 1.016C175.137 2.648 175.041 4.216 174.977 5.72C174.945 7.224 174.929 8.376 174.929 9.176C174.929 9.88 174.945 10.552 174.977 11.192C175.009 11.832 175.041 12.376 175.073 12.824H173.969C173.457 10.136 172.801 8.008 172.001 6.44C171.233 4.872 170.305 3.768 169.217 3.128C168.129 2.456 166.849 2.12 165.377 2.12H164.273V29.528C164.273 30.808 164.401 31.768 164.657 32.408C164.945 33.048 165.457 33.48 166.193 33.704C166.929 33.896 168.001 34.008 169.409 34.04V35C168.417 34.968 167.089 34.936 165.425 34.904C163.793 34.872 162.081 34.856 160.289 34.856C158.529 34.856 156.865 34.872 155.297 34.904C153.729 34.936 152.465 34.968 151.505 35V34.04C152.945 34.008 154.033 33.896 154.769 33.704C155.505 33.48 156.001 33.048 156.257 32.408C156.513 31.768 156.641 30.808 156.641 29.528V2.12H155.585C154.113 2.12 152.833 2.456 151.745 3.128C150.657 3.768 149.729 4.872 148.961 6.44C148.193 7.976 147.521 10.104 146.945 12.824H145.841C145.905 12.376 145.937 11.832 145.937 11.192C145.969 10.552 145.985 9.88 145.985 9.176C145.985 8.376 145.953 7.224 145.889 5.72C145.857 4.216 145.777 2.648 145.649 1.016C147.121 1.048 148.721 1.08 150.449 1.112C152.209 1.144 153.969 1.16 155.729 1.16C157.489 1.16 159.073 1.16 160.481 1.16C161.921 1.16 163.505 1.16 165.233 1.16C166.993 1.16 168.753 1.144 170.513 1.112C172.273 1.08 173.857 1.048 175.265 1.016ZM191.343 1.016V1.976C190.255 2.008 189.423 2.136 188.847 2.36C188.303 2.552 187.935 2.936 187.743 3.512C187.551 4.056 187.455 4.92 187.455 6.104V30.488C187.455 31.48 187.519 32.216 187.647 32.696C187.807 33.176 188.095 33.496 188.511 33.656C188.959 33.816 189.615 33.896 190.479 33.896H192.831C193.919 33.896 194.943 33.64 195.903 33.128C196.863 32.616 197.727 31.896 198.495 30.968C199.263 30.008 199.903 28.872 200.415 27.56C200.927 26.248 201.311 24.792 201.567 23.192H202.671C202.575 24.28 202.527 25.688 202.527 27.416C202.527 28.152 202.543 29.224 202.575 30.632C202.607 32.04 202.703 33.496 202.863 35C201.231 34.936 199.391 34.904 197.343 34.904C195.295 34.872 193.471 34.856 191.871 34.856C191.071 34.856 190.047 34.856 188.799 34.856C187.551 34.856 186.207 34.872 184.767 34.904C183.327 34.904 181.871 34.92 180.399 34.952C178.927 34.952 177.535 34.968 176.223 35V34.04C177.247 33.976 178.015 33.848 178.527 33.656C179.039 33.464 179.375 33.08 179.535 32.504C179.727 31.928 179.823 31.064 179.823 29.912V6.104C179.823 4.92 179.727 4.056 179.535 3.512C179.375 2.936 179.023 2.552 178.479 2.36C177.967 2.136 177.215 2.008 176.223 1.976V1.016C177.023 1.048 178.095 1.08 179.439 1.112C180.815 1.144 182.271 1.16 183.807 1.16C185.215 1.16 186.591 1.144 187.935 1.112C189.311 1.08 190.447 1.048 191.343 1.016ZM229.327 1.016C229.199 2.424 229.103 3.784 229.039 5.096C229.007 6.408 228.991 7.416 228.991 8.12C228.991 8.76 229.007 9.368 229.039 9.944C229.071 10.52 229.103 11 229.135 11.384H228.031C227.711 9.048 227.215 7.208 226.543 5.864C225.871 4.488 224.991 3.528 223.903 2.984C222.847 2.408 221.599 2.12 220.159 2.12H218.191C217.263 2.12 216.559 2.2 216.079 2.36C215.599 2.52 215.279 2.84 215.119 3.32C214.959 3.8 214.879 4.536 214.879 5.528V30.488C214.879 31.48 214.959 32.216 215.119 32.696C215.279 33.176 215.599 33.496 216.079 33.656C216.559 33.816 217.263 33.896 218.191 33.896H220.543C221.983 33.896 223.247 33.592 224.335 32.984C225.455 32.344 226.399 31.272 227.167 29.768C227.967 28.264 228.575 26.232 228.991 23.672H230.095C229.999 24.696 229.951 26.04 229.951 27.704C229.951 28.44 229.967 29.48 229.999 30.824C230.031 32.168 230.127 33.56 230.287 35C228.655 34.936 226.815 34.904 224.767 34.904C222.719 34.872 220.895 34.856 219.295 34.856C218.495 34.856 217.471 34.856 216.223 34.856C214.975 34.856 213.631 34.872 212.191 34.904C210.751 34.904 209.295 34.92 207.823 34.952C206.351 34.952 204.959 34.968 203.647 35V34.04C204.671 33.976 205.439 33.848 205.951 33.656C206.463 33.464 206.799 33.08 206.959 32.504C207.151 31.928 207.247 31.064 207.247 29.912V6.104C207.247 4.92 207.151 4.056 206.959 3.512C206.799 2.936 206.447 2.552 205.903 2.36C205.391 2.136 204.639 2.008 203.647 1.976V1.016C204.959 1.048 206.351 1.08 207.823 1.112C209.295 1.112 210.751 1.128 212.191 1.16C213.631 1.16 214.975 1.16 216.223 1.16C217.471 1.16 218.495 1.16 219.295 1.16C220.767 1.16 222.431 1.16 224.287 1.16C226.175 1.128 227.855 1.08 229.327 1.016ZM221.839 17.432C221.839 17.432 221.839 17.592 221.839 17.912C221.839 18.232 221.839 18.392 221.839 18.392H213.439C213.439 18.392 213.439 18.232 213.439 17.912C213.439 17.592 213.439 17.432 213.439 17.432H221.839ZM223.231 11.096C223.103 12.92 223.039 14.312 223.039 15.272C223.071 16.232 223.087 17.112 223.087 17.912C223.087 18.712 223.103 19.592 223.135 20.552C223.167 21.512 223.247 22.904 223.375 24.728H222.271C222.111 23.608 221.807 22.568 221.359 21.608C220.943 20.648 220.335 19.88 219.535 19.304C218.735 18.696 217.695 18.392 216.415 18.392V17.432C217.375 17.432 218.191 17.24 218.863 16.856C219.535 16.44 220.079 15.912 220.495 15.272C220.943 14.6 221.295 13.896 221.551 13.16C221.807 12.424 221.999 11.736 222.127 11.096H223.231ZM253.432 0.391999C255.32 0.391999 256.776 0.599999 257.8 1.016C258.824 1.4 259.704 1.816 260.44 2.264C260.824 2.488 261.128 2.664 261.352 2.792C261.608 2.888 261.848 2.936 262.072 2.936C262.392 2.936 262.616 2.76 262.744 2.408C262.904 2.056 263.032 1.528 263.128 0.823999H264.232C264.2 1.432 264.152 2.168 264.088 3.032C264.056 3.864 264.024 4.968 263.992 6.344C263.992 7.72 263.992 9.528 263.992 11.768H262.888C262.76 10.104 262.376 8.488 261.736 6.92C261.096 5.352 260.184 4.072 259 3.08C257.848 2.056 256.424 1.544 254.728 1.544C253.192 1.544 251.928 1.976 250.936 2.84C249.944 3.704 249.448 4.904 249.448 6.44C249.448 7.72 249.768 8.824 250.408 9.752C251.048 10.648 251.976 11.528 253.192 12.392C254.44 13.256 255.944 14.296 257.704 15.512C259.24 16.504 260.616 17.496 261.832 18.488C263.048 19.48 264.024 20.6 264.76 21.848C265.496 23.096 265.864 24.584 265.864 26.312C265.864 28.424 265.304 30.168 264.184 31.544C263.096 32.92 261.656 33.96 259.864 34.664C258.072 35.336 256.104 35.672 253.96 35.672C251.976 35.672 250.392 35.48 249.208 35.096C248.024 34.712 247.032 34.312 246.232 33.896C245.528 33.448 244.984 33.224 244.6 33.224C244.28 33.224 244.04 33.4 243.88 33.752C243.752 34.104 243.64 34.632 243.544 35.336H242.44C242.504 34.568 242.536 33.672 242.536 32.648C242.568 31.624 242.584 30.296 242.584 28.664C242.616 27 242.632 24.904 242.632 22.376H243.736C243.864 24.488 244.216 26.472 244.792 28.328C245.4 30.152 246.312 31.624 247.528 32.744C248.776 33.864 250.424 34.424 252.472 34.424C253.592 34.424 254.584 34.232 255.448 33.848C256.344 33.432 257.064 32.824 257.608 32.024C258.152 31.224 258.424 30.232 258.424 29.048C258.424 27.704 258.104 26.536 257.464 25.544C256.856 24.552 256.008 23.624 254.92 22.76C253.864 21.896 252.632 21.016 251.224 20.12C249.72 19.128 248.312 18.136 247 17.144C245.688 16.152 244.632 15.016 243.832 13.736C243.064 12.456 242.68 10.936 242.68 9.176C242.68 7.16 243.176 5.512 244.168 4.232C245.192 2.92 246.52 1.96 248.152 1.352C249.816 0.711999 251.576 0.391999 253.432 0.391999ZM293.223 1.016C293.095 2.424 292.999 3.784 292.935 5.096C292.903 6.408 292.887 7.416 292.887 8.12C292.887 8.76 292.903 9.368 292.935 9.944C292.967 10.52 292.999 11 293.031 11.384H291.927C291.607 9.048 291.111 7.208 290.439 5.864C289.767 4.488 288.887 3.528 287.799 2.984C286.743 2.408 285.495 2.12 284.055 2.12H282.087C281.159 2.12 280.455 2.2 279.975 2.36C279.495 2.52 279.175 2.84 279.015 3.32C278.855 3.8 278.775 4.536 278.775 5.528V30.488C278.775 31.48 278.855 32.216 279.015 32.696C279.175 33.176 279.495 33.496 279.975 33.656C280.455 33.816 281.159 33.896 282.087 33.896H284.439C285.879 33.896 287.143 33.592 288.231 32.984C289.351 32.344 290.295 31.272 291.063 29.768C291.863 28.264 292.471 26.232 292.887 23.672H293.991C293.895 24.696 293.847 26.04 293.847 27.704C293.847 28.44 293.863 29.48 293.895 30.824C293.927 32.168 294.023 33.56 294.183 35C292.551 34.936 290.711 34.904 288.663 34.904C286.615 34.872 284.791 34.856 283.191 34.856C282.391 34.856 281.367 34.856 280.119 34.856C278.871 34.856 277.527 34.872 276.087 34.904C274.647 34.904 273.191 34.92 271.719 34.952C270.247 34.952 268.855 34.968 267.543 35V34.04C268.567 33.976 269.335 33.848 269.847 33.656C270.359 33.464 270.695 33.08 270.855 32.504C271.047 31.928 271.143 31.064 271.143 29.912V6.104C271.143 4.92 271.047 4.056 270.855 3.512C270.695 2.936 270.343 2.552 269.799 2.36C269.287 2.136 268.535 2.008 267.543 1.976V1.016C268.855 1.048 270.247 1.08 271.719 1.112C273.191 1.112 274.647 1.128 276.087 1.16C277.527 1.16 278.871 1.16 280.119 1.16C281.367 1.16 282.391 1.16 283.191 1.16C284.663 1.16 286.327 1.16 288.183 1.16C290.071 1.128 291.751 1.08 293.223 1.016ZM285.735 17.432C285.735 17.432 285.735 17.592 285.735 17.912C285.735 18.232 285.735 18.392 285.735 18.392H277.335C277.335 18.392 277.335 18.232 277.335 17.912C277.335 17.592 277.335 17.432 277.335 17.432H285.735ZM287.127 11.096C286.999 12.92 286.935 14.312 286.935 15.272C286.967 16.232 286.983 17.112 286.983 17.912C286.983 18.712 286.999 19.592 287.031 20.552C287.063 21.512 287.143 22.904 287.271 24.728H286.167C286.007 23.608 285.703 22.568 285.255 21.608C284.839 20.648 284.231 19.88 283.431 19.304C282.631 18.696 281.591 18.392 280.311 18.392V17.432C281.271 17.432 282.087 17.24 282.759 16.856C283.431 16.44 283.975 15.912 284.391 15.272C284.839 14.6 285.191 13.896 285.447 13.16C285.703 12.424 285.895 11.736 286.023 11.096H287.127ZM313.469 0.343997C315.581 0.343997 317.309 0.663998 318.653 1.304C320.029 1.912 321.245 2.632 322.301 3.464C322.941 3.944 323.421 4.008 323.741 3.656C324.093 3.272 324.333 2.392 324.461 1.016H325.565C325.501 2.264 325.453 3.784 325.421 5.576C325.389 7.336 325.373 9.688 325.373 12.632H324.269C324.109 11.16 323.901 9.912 323.645 8.888C323.389 7.832 323.037 6.904 322.589 6.104C322.141 5.304 321.501 4.584 320.669 3.944C319.869 3.144 318.941 2.552 317.885 2.168C316.829 1.784 315.725 1.592 314.573 1.592C312.845 1.592 311.373 2.056 310.157 2.984C308.941 3.88 307.949 5.112 307.181 6.68C306.445 8.248 305.901 10.024 305.549 12.008C305.197 13.96 305.021 15.992 305.021 18.104C305.021 20.248 305.197 22.312 305.549 24.296C305.933 26.248 306.509 27.992 307.277 29.528C308.077 31.064 309.101 32.28 310.349 33.176C311.597 34.072 313.069 34.52 314.765 34.52C315.821 34.52 316.877 34.328 317.933 33.944C319.021 33.528 319.949 32.936 320.717 32.168C321.965 31.208 322.813 30.024 323.261 28.616C323.709 27.176 324.045 25.272 324.269 22.904H325.373C325.373 25.944 325.389 28.408 325.421 30.296C325.453 32.152 325.501 33.72 325.565 35H324.461C324.333 33.624 324.109 32.76 323.789 32.408C323.501 32.056 323.005 32.104 322.301 32.552C321.117 33.384 319.853 34.12 318.509 34.76C317.197 35.368 315.501 35.672 313.421 35.672C310.029 35.672 307.053 34.984 304.493 33.608C301.965 32.232 299.997 30.248 298.589 27.656C297.181 25.064 296.477 21.944 296.477 18.296C296.477 14.712 297.197 11.576 298.637 8.888C300.109 6.2 302.109 4.104 304.637 2.6C307.197 1.096 310.141 0.343997 313.469 0.343997ZM327.969 1.016C328.769 1.048 329.841 1.08 331.185 1.112C332.561 1.144 333.921 1.16 335.265 1.16C336.801 1.16 338.289 1.144 339.729 1.112C341.169 1.08 342.193 1.064 342.801 1.064C345.777 1.064 348.241 1.4 350.193 2.072C352.177 2.712 353.649 3.656 354.609 4.904C355.601 6.152 356.097 7.656 356.097 9.416C356.097 10.504 355.873 11.608 355.425 12.728C354.977 13.816 354.209 14.84 353.121 15.8C352.065 16.728 350.609 17.48 348.753 18.056C346.897 18.6 344.561 18.872 341.745 18.872H337.137V17.912H341.265C343.153 17.912 344.577 17.56 345.537 16.856C346.529 16.12 347.201 15.16 347.553 13.976C347.937 12.76 348.129 11.416 348.129 9.944C348.129 7.416 347.681 5.464 346.785 4.088C345.889 2.68 344.353 1.976 342.177 1.976C340.929 1.976 340.113 2.248 339.729 2.792C339.377 3.336 339.201 4.44 339.201 6.104V29.912C339.201 31.064 339.281 31.928 339.441 32.504C339.633 33.08 339.985 33.464 340.497 33.656C341.009 33.848 341.777 33.976 342.801 34.04V35C341.937 34.936 340.849 34.904 339.537 34.904C338.225 34.872 336.897 34.856 335.553 34.856C334.017 34.856 332.561 34.872 331.185 34.904C329.841 34.904 328.769 34.936 327.969 35V34.04C328.993 33.976 329.761 33.848 330.273 33.656C330.785 33.464 331.121 33.08 331.281 32.504C331.473 31.928 331.569 31.064 331.569 29.912V6.104C331.569 4.92 331.473 4.056 331.281 3.512C331.121 2.936 330.769 2.552 330.225 2.36C329.713 2.136 328.961 2.008 327.969 1.976V1.016ZM337.041 18.056C338.417 18.088 339.601 18.152 340.593 18.248C341.617 18.344 342.513 18.44 343.281 18.536C344.049 18.6 344.737 18.648 345.345 18.68C348.257 18.936 350.401 19.56 351.777 20.552C353.185 21.544 354.097 23.032 354.513 25.016L355.617 29.96C355.905 31.24 356.209 32.136 356.529 32.648C356.849 33.16 357.313 33.416 357.921 33.416C358.337 33.384 358.673 33.288 358.929 33.128C359.217 32.936 359.521 32.664 359.841 32.312L360.513 32.888C359.649 33.88 358.721 34.584 357.729 35C356.737 35.448 355.537 35.672 354.129 35.672C352.401 35.672 350.977 35.304 349.857 34.568C348.737 33.832 348.001 32.472 347.649 30.488L346.785 25.688C346.561 24.344 346.289 23.176 345.969 22.184C345.649 21.16 345.201 20.36 344.625 19.784C344.081 19.176 343.313 18.872 342.321 18.872H337.137L337.041 18.056ZM384.963 1.016C384.835 2.424 384.739 3.784 384.675 5.096C384.643 6.408 384.627 7.416 384.627 8.12C384.627 8.76 384.643 9.368 384.675 9.944C384.707 10.52 384.739 11 384.771 11.384H383.667C383.347 9.048 382.851 7.208 382.179 5.864C381.507 4.488 380.627 3.528 379.539 2.984C378.483 2.408 377.235 2.12 375.795 2.12H373.827C372.899 2.12 372.195 2.2 371.715 2.36C371.235 2.52 370.915 2.84 370.755 3.32C370.595 3.8 370.515 4.536 370.515 5.528V30.488C370.515 31.48 370.595 32.216 370.755 32.696C370.915 33.176 371.235 33.496 371.715 33.656C372.195 33.816 372.899 33.896 373.827 33.896H376.179C377.619 33.896 378.883 33.592 379.971 32.984C381.091 32.344 382.035 31.272 382.803 29.768C383.603 28.264 384.211 26.232 384.627 23.672H385.731C385.635 24.696 385.587 26.04 385.587 27.704C385.587 28.44 385.603 29.48 385.635 30.824C385.667 32.168 385.763 33.56 385.923 35C384.291 34.936 382.451 34.904 380.403 34.904C378.355 34.872 376.531 34.856 374.931 34.856C374.131 34.856 373.107 34.856 371.859 34.856C370.611 34.856 369.267 34.872 367.827 34.904C366.387 34.904 364.931 34.92 363.459 34.952C361.987 34.952 360.595 34.968 359.283 35V34.04C360.307 33.976 361.075 33.848 361.587 33.656C362.099 33.464 362.435 33.08 362.595 32.504C362.787 31.928 362.883 31.064 362.883 29.912V6.104C362.883 4.92 362.787 4.056 362.595 3.512C362.435 2.936 362.083 2.552 361.539 2.36C361.027 2.136 360.275 2.008 359.283 1.976V1.016C360.595 1.048 361.987 1.08 363.459 1.112C364.931 1.112 366.387 1.128 367.827 1.16C369.267 1.16 370.611 1.16 371.859 1.16C373.107 1.16 374.131 1.16 374.931 1.16C376.403 1.16 378.067 1.16 379.923 1.16C381.811 1.128 383.491 1.08 384.963 1.016ZM377.475 17.432C377.475 17.432 377.475 17.592 377.475 17.912C377.475 18.232 377.475 18.392 377.475 18.392H369.075C369.075 18.392 369.075 18.232 369.075 17.912C369.075 17.592 369.075 17.432 369.075 17.432H377.475ZM378.867 11.096C378.739 12.92 378.675 14.312 378.675 15.272C378.707 16.232 378.723 17.112 378.723 17.912C378.723 18.712 378.739 19.592 378.771 20.552C378.803 21.512 378.883 22.904 379.011 24.728H377.907C377.747 23.608 377.443 22.568 376.995 21.608C376.579 20.648 375.971 19.88 375.171 19.304C374.371 18.696 373.331 18.392 372.051 18.392V17.432C373.011 17.432 373.827 17.24 374.499 16.856C375.171 16.44 375.715 15.912 376.131 15.272C376.579 14.6 376.931 13.896 377.187 13.16C377.443 12.424 377.635 11.736 377.763 11.096H378.867ZM416.969 1.016C416.841 2.648 416.745 4.216 416.681 5.72C416.649 7.224 416.633 8.376 416.633 9.176C416.633 9.88 416.649 10.552 416.681 11.192C416.713 11.832 416.745 12.376 416.777 12.824H415.673C415.161 10.136 414.505 8.008 413.705 6.44C412.937 4.872 412.009 3.768 410.921 3.128C409.833 2.456 408.553 2.12 407.081 2.12H405.977V29.528C405.977 30.808 406.105 31.768 406.361 32.408C406.649 33.048 407.161 33.48 407.897 33.704C408.633 33.896 409.705 34.008 411.113 34.04V35C410.121 34.968 408.793 34.936 407.129 34.904C405.497 34.872 403.785 34.856 401.993 34.856C400.233 34.856 398.569 34.872 397.001 34.904C395.433 34.936 394.169 34.968 393.209 35V34.04C394.649 34.008 395.737 33.896 396.473 33.704C397.209 33.48 397.705 33.048 397.961 32.408C398.217 31.768 398.345 30.808 398.345 29.528V2.12H397.289C395.817 2.12 394.537 2.456 393.449 3.128C392.361 3.768 391.433 4.872 390.665 6.44C389.897 7.976 389.225 10.104 388.649 12.824H387.545C387.609 12.376 387.641 11.832 387.641 11.192C387.673 10.552 387.689 9.88 387.689 9.176C387.689 8.376 387.657 7.224 387.593 5.72C387.561 4.216 387.481 2.648 387.353 1.016C388.825 1.048 390.425 1.08 392.153 1.112C393.913 1.144 395.673 1.16 397.433 1.16C399.193 1.16 400.777 1.16 402.185 1.16C403.625 1.16 405.209 1.16 406.937 1.16C408.697 1.16 410.457 1.144 412.217 1.112C413.977 1.08 415.561 1.048 416.969 1.016Z" fill="#FFFFFF"></path></g></svg>