<svg width="130" height="159" xmlns="http://www.w3.org/2000/svg" fill="none">

 <g>
  <title>Layer 1</title>
  <path id="svg_1" fill="black" d="m21.96,108.059c5.3442,-1.786 5.183,-3.985 3.8157,-9.258l-9.25,-35.6778c-1.0572,-4.0774 -1.8613,-6.2001 -4.724,-6.3688l-2.93275,0.8122l13.09105,50.4924z"/>
  <path id="svg_2" fill="black" d="m45.6907,101.458c2.5645,-0.71 4.8471,-1.6916 6.1297,-2.8334c5.5287,-4.663 8.523,-9.8041 6.6599,-21.3936l-9.2876,-15.8703c-2.9553,-5.0377 -4.3541,-6.5732 -10.9647,-2.441l-0.4382,0.267l-0.2039,-0.3514l26.5274,-16.5817l-31.9046,8.8351c-2.381,1.6354 -2.0145,3.8646 -0.9573,7.9421l9.2536,35.6913c1.8077,6.9729 2.2399,7.5519 5.1857,6.7359z"/>
  <path id="svg_3" fill="black" d="m67.51,148.266c-0.2925,-1.128 -1.8316,-2.552 -4.5903,-5.255l-13.153,-13.11l-1.0297,3.694c-1.3817,5.001 -2.2423,9.347 -1.2979,12.99c0.6061,2.337 2.8939,6.54 7.0305,7.055l11.9807,-3.317c1.1164,-0.805 1.1901,-1.554 1.0597,-2.057z"/>
  <path id="svg_4" fill="black" d="m86.587,43.037l13.011,22.2395c3.438,5.8655 4.654,8.3838 0.921,14.8075c-1.9113,3.2826 -5.464,6.3787 -9.456,8.868c-2.148,1.3378 -4.4111,2.5035 -6.6254,3.4226c-0.1461,0.3609 -0.1526,0.7706 -0.0293,1.2463c0.3594,1.3863 1.8034,3.259 3.8099,5.3983l11.2032,12.2228l1.6606,-7.351c0.815,-3.488 2.017,-8.3662 1.125,-11.8049c-1.254,-4.8386 -5.6082,-3.9096 -7.5638,-3.7322l-0.1022,-0.3942l11.77,-3.2594l-13.0908,-50.4925l-9.6792,2.6804c0.5546,1.813 1.6804,3.8175 3.046,6.1488z"/>
  <path id="svg_5" fill="black" d="m90.4387,136.017l-4.8065,-18.539l-17.9298,-16.638c-2.9023,5.116 -5.0459,11.799 -6.6435,15.912l-0.745,1.911l22.1535,21.892c2.2663,2.272 4.1768,3.389 6.0864,3.632l0.9206,-0.255c2.3547,-1.628 2.0144,-3.865 0.9643,-7.915z"/>
  <path id="svg_6" fill="black" d="m46.6126,139.428l2.7328,-9.847l-18.573,-18.412c-2.5481,-2.543 -3.9448,-3.744 -6.513,-3.266l-2.1831,0.605l13.091,50.492l2.8933,-0.801c4.7379,-3.526 6.6951,-12.124 8.552,-18.771z"/>
  <path id="svg_7" fill="black" d="m63.5286,52.3941l15.7492,26.9294c3.4685,5.9298 4.52,7.4304 8.1191,7.1767c1.9424,-0.1737 4.8983,-1.3856 7.5204,-3.0149c2.4259,-1.5166 4.6924,-3.4845 5.7317,-5.1853c2.693,-4.5625 1.758,-7.0276 -1.7105,-12.9575l-12.8651,-22.003c-1.4912,-2.5442 -2.7838,-4.6482 -4.2096,-6.016l-16.3074,4.5159c-5.4911,3.7203 -4.8134,5.7906 -2.0278,10.5547z"/>
  <path id="svg_8" fill="black" d="m103.181,96.9296l-3.3373,14.6904l5.2713,20.333c1.05,4.05 1.838,6.163 4.655,6.373l9.732,-2.695l-12.541,-48.3719c-1.552,2.0613 -2.722,5.0511 -3.78,9.6705z"/>
  <path id="svg_9" fill="black" d="m49.2824,100.959c-3.0245,1.056 -3.2475,2.371 -3.0466,3.145c0.3101,1.196 2.166,2.809 4.757,5.355l9.0217,8.864c1.5848,-4.489 3.2883,-8.791 2.1888,-13.032c-1.4623,-5.6405 -4.8379,-6.2644 -7.5815,-5.8106l-5.3394,1.4786z"/>
  <path id="svg_10" fill="black" d="m59.751,79.4138l4.3978,16.9622l7.8906,-2.1851c-3.9248,-0.8943 -5.7829,-3.6574 -7.9605,-7.3808l-4.3279,-7.3963z"/>
  <path id="svg_11" fill="black" d="m84.5581,28.3614c4.3899,-6.4453 -3.3827,-16.6897 -16.3502,-19.62487c-9.1823,-2.08966 -13.0928,16.15357 -14.601,26.97237c-0.4843,-0.1281 -0.9869,-0.1638 -1.5042,-0.0933l-4.4485,0.62c-7.7148,-9.532 -21.4007,-23.9367 -29.0872,-17.3214c-11.15511,9.6007 -13.01418,23.4155 -5.0253,27.2632c6.6138,3.1651 18.0998,4.3546 31.3577,0.5812c0.6939,1.6433 2.3755,2.6926 4.1845,2.4393l4.4333,-1.5481c2.1782,-0.2973 3.9721,-1.4787 3.688,-3.7163l-0.1469,-1.1101c13.879,-2.139 23.5135,-8.58 27.4998,-14.462zm-40.5767,12.5186l0.0496,0.4087c-8.661,-3.3411 -16.4421,-8.0185 -20.8286,-11.509c-4.8518,-3.8715 -4.1088,-7.5297 2.2706,-6.7908c4.705,0.5326 14.0457,10.7361 18.6773,16.0962c-0.1791,0.5595 -0.2486,1.1614 -0.1689,1.7949zm11.9858,-3.4066c0.96,-4.1262 5.0107,-20.2523 9.5834,-22.5674c5.231,-2.6577 7.6006,0.2843 5.1208,5.1809c-2.3993,4.7724 -7.6416,12.0074 -14.4282,17.9073c-0.0923,-0.1929 -0.1644,-0.3623 -0.276,-0.5208z"/>
  <rect fill-opacity="0" id="svg_22" height="158" width="46" y="-158" x="138" fill="#000000"/>
 </g>
</svg>