<svg width="597" height="504" viewBox="0 0 597 504" fill="none" xmlns="http://www.w3.org/2000/svg">
<path d="M422.009 264.953C419.961 269.097 417.266 272.842 414.028 276.128L313.843 378.811C309.233 383.535 304.954 390.135 298.353 390.135V390.135V390.135C291.52 390.135 287.161 383.181 282.388 378.291L182.636 276.107C182.114 275.605 181.55 274.998 181.028 274.391C169.83 261.814 167.678 243.65 175.575 228.165L288.597 6.30303C290.79 2.89203 294.384 0.966797 298.353 0.966797C302.322 0.966797 305.895 2.8711 307.984 6.07284L364.631 117.286L421.277 228.499C427.231 240.155 427.503 253.799 422.009 264.953ZM301.779 457.267L19.5799 169.843L18.6816 168.922C16.5925 167.248 14.19 166.39 11.5995 166.39C7.81814 166.536 4.49643 168.19 2.44908 170.91C0.527086 173.463 -0.0369786 176.769 0.840455 180.285L82.9641 463.398C84.9278 470.157 88.1033 476.435 92.4696 482.002C92.9919 482.713 93.5768 483.404 94.1409 484.073C103.897 495.395 118.605 501.61 133.855 501.61C139.767 501.61 145.763 500.689 151.571 498.722C193.855 484.701 238.124 476.833 283.249 475.389C287.072 475.096 290.874 474.866 294.655 474.677C297.789 474.51 300.693 473.003 302.573 470.555C304.432 468.169 305.143 465.156 304.579 462.247C304.224 460.51 303.283 458.836 301.8 457.288L301.779 457.267ZM591.291 168.147C591.291 168.156 591.28 168.162 591.273 168.157C587.703 165.721 583.156 165.871 578.401 168.713V168.713C577.624 169.185 576.909 169.753 576.272 170.402L334.579 417.004C330.547 421.106 330.526 427.551 334.537 431.653L376.821 474.97C381.835 480.118 388.269 483.634 395.477 485.162C414.655 489.2 433.687 494.516 452.071 500.94C456.333 502.426 460.783 503.158 465.254 503.158C470.79 503.158 476.326 502.028 481.611 499.768C490.72 496.043 498.596 490.163 504.383 482.734C508.707 477.189 511.925 470.911 513.909 464.089L596.054 180.85C596.388 179.532 596.513 178.213 596.409 177.083C596.409 173.49 594.494 170.148 591.308 168.138C591.3 168.133 591.291 168.138 591.291 168.147V168.147Z" fill="#0B0B2B"/>
</svg>
